<svg xmlns="http://www.w3.org/2000/svg" xmlns:xlink="http://www.w3.org/1999/xlink" width="2000" zoomAndPan="magnify" viewBox="0 0 1500 1499.999933" height="2000" preserveAspectRatio="xMidYMid meet" version="1.0"><defs><g/></defs><g fill="#fd4610" fill-opacity="1"><g transform="translate(368.121095, 884.016261)"><g><path d="M 73.671875 -66.671875 C 59.367188 -71.960938 44.757812 -79.113281 29.84375 -88.125 C 28.289062 -89.050781 26.734375 -89.515625 25.171875 -89.515625 C 21.128906 -89.515625 18.332031 -87.648438 16.78125 -83.921875 L -3.734375 -42.890625 C -4.660156 -41.023438 -5.125 -39.316406 -5.125 -37.765625 C -5.125 -34.660156 -3.414062 -32.175781 0 -30.3125 C 31.394531 -13.207031 57.503906 -3.570312 78.328125 -1.40625 C 87.035156 -0.78125 93.566406 -0.46875 97.921875 -0.46875 C 116.566406 -0.46875 133.503906 -3.421875 148.734375 -9.328125 C 163.035156 -14.921875 174.535156 -24.085938 183.234375 -36.828125 C 191.941406 -49.578125 198.003906 -64.8125 201.421875 -82.53125 L 201.421875 -83 C 201.734375 -85.175781 201.890625 -88.59375 201.890625 -93.25 C 201.890625 -127.757812 182.617188 -156.671875 144.078125 -179.984375 L 129.625 -188.84375 C 122.46875 -193.1875 116.25 -198.003906 110.96875 -203.296875 C 102.269531 -211.066406 97.921875 -220.078125 97.921875 -230.328125 C 97.921875 -236.546875 99.472656 -242.609375 102.578125 -248.515625 C 106.304688 -258.148438 112.679688 -262.191406 121.703125 -260.640625 L 122.15625 -260.640625 C 125.582031 -260.328125 127.757812 -257.375 128.6875 -251.78125 C 129.625 -240.28125 130.09375 -229.242188 130.09375 -218.671875 C 130.09375 -212.460938 133.195312 -209.359375 139.40625 -209.359375 L 193.5 -209.359375 C 199.71875 -209.359375 202.828125 -212.3125 202.828125 -218.21875 C 203.453125 -228.164062 203.765625 -236.710938 203.765625 -243.859375 C 203.765625 -250.078125 203.453125 -255.671875 202.828125 -260.640625 C 201.578125 -275.867188 197.535156 -287.835938 190.703125 -296.546875 C 177.023438 -313.328125 155.578125 -321.71875 126.359375 -321.71875 C 118.273438 -321.71875 110.503906 -321.253906 103.046875 -320.328125 C 68.847656 -316.285156 43.976562 -300.585938 28.4375 -273.234375 C 17.25 -254.578125 11.65625 -235.304688 11.65625 -215.421875 C 11.65625 -207.335938 12.585938 -199.097656 14.453125 -190.703125 C 17.554688 -177.648438 23.304688 -167.238281 31.703125 -159.46875 C 31.703125 -159.46875 31.78125 -159.390625 31.9375 -159.234375 C 32.09375 -159.078125 32.171875 -159 32.171875 -159 C 47.398438 -146.25 56.570312 -139.097656 59.6875 -137.546875 L 60.609375 -137.078125 L 69.9375 -131.484375 C 85.789062 -121.847656 96.050781 -115.164062 100.71875 -111.4375 C 110.351562 -104.289062 115.171875 -95.273438 115.171875 -84.390625 C 115.171875 -77.554688 113.070312 -72.273438 108.875 -68.546875 C 104.675781 -64.816406 99.160156 -62.953125 92.328125 -62.953125 C 86.722656 -62.953125 80.503906 -64.191406 73.671875 -66.671875 Z M 149.203125 -267.171875 L 151.0625 -267.171875 L 151.0625 -266.234375 L 149.203125 -266.234375 Z M 161.328125 -251.3125 C 161.015625 -251 160.625 -250.84375 160.15625 -250.84375 C 159.695312 -250.84375 159.617188 -251.15625 159.921875 -251.78125 C 159.921875 -251.78125 160 -251.859375 160.15625 -252.015625 C 160.3125 -252.171875 160.390625 -252.25 160.390625 -252.25 L 160.859375 -253.1875 C 160.859375 -253.1875 160.9375 -253.109375 161.09375 -252.953125 C 161.25 -252.796875 161.328125 -252.71875 161.328125 -252.71875 L 162.265625 -252.25 Z M 151.0625 -232.671875 C 151.0625 -232.046875 150.910156 -231.734375 150.609375 -231.734375 L 148.265625 -231.734375 C 148.265625 -232.972656 149.046875 -233.59375 150.609375 -233.59375 Z M 139.875 -151.53125 C 140.5 -150.914062 140.8125 -150.140625 140.8125 -149.203125 L 137.078125 -149.203125 C 137.078125 -149.203125 136.921875 -149.742188 136.609375 -150.828125 C 136.304688 -151.921875 136.460938 -153.242188 137.078125 -154.796875 L 139.875 -154.796875 C 140.1875 -154.484375 140.34375 -153.707031 140.34375 -152.46875 Z M 119.828125 -151.53125 L 119.828125 -153.40625 L 124.03125 -153.40625 L 124.03125 -151.53125 Z M 145.46875 -148.734375 L 144.546875 -148.265625 L 144.546875 -147.8125 L 140.8125 -145.9375 C 139.570312 -147.800781 138.953125 -148.734375 138.953125 -148.734375 C 139.566406 -149.046875 140.5 -149.203125 141.75 -149.203125 L 143.609375 -149.203125 Z M 132.421875 -132.890625 C 133.046875 -132.265625 133.359375 -131.640625 133.359375 -131.015625 L 132.421875 -130.546875 L 131.484375 -131.015625 L 130.546875 -131.015625 L 130.546875 -134.28125 L 131.484375 -133.359375 Z M 157.59375 -125.890625 L 156.671875 -125.421875 L 153.875 -125.421875 C 153.875 -126.671875 154.804688 -127.757812 156.671875 -128.6875 L 158.53125 -126.828125 L 158.53125 -125.890625 Z M 150.609375 -118.4375 L 150.609375 -119.828125 L 154.796875 -119.359375 L 154.796875 -117.5 Z M 176.25 -109.578125 C 176.5625 -109.578125 176.71875 -109.265625 176.71875 -108.640625 C 176.71875 -106.773438 175.785156 -105.84375 173.921875 -105.84375 C 172.054688 -105.84375 170.8125 -106.617188 170.1875 -108.171875 L 171.125 -110.5 L 175.3125 -110.5 C 175.3125 -110.1875 175.46875 -110.03125 175.78125 -110.03125 Z M 155.265625 -107.703125 L 153.40625 -108.640625 L 154.796875 -110.03125 L 156.671875 -109.578125 Z M 162.265625 -96.515625 C 162.265625 -95.890625 162.726562 -95.578125 163.65625 -95.578125 C 163.65625 -94.960938 163.5 -94.65625 163.1875 -94.65625 L 163.1875 -93.71875 C 162.882812 -93.71875 162.734375 -93.5625 162.734375 -93.25 L 159.46875 -93.25 L 159 -93.71875 L 158.53125 -93.71875 L 157.59375 -94.1875 L 158.53125 -97.453125 L 160.390625 -97.453125 Z M 181.375 -95.125 L 182.78125 -94.65625 L 181.375 -93.71875 L 180.4375 -93.25 C 179.507812 -92.320312 178.734375 -91.859375 178.109375 -91.859375 L 178.109375 -93.71875 C 177.796875 -94.34375 177.953125 -94.960938 178.578125 -95.578125 L 180.4375 -95.578125 Z M 166.921875 -86.71875 C 165.679688 -86.71875 164.671875 -87.03125 163.890625 -87.65625 C 163.117188 -88.28125 162.882812 -89.054688 163.1875 -89.984375 C 163.5 -89.984375 163.96875 -90.0625 164.59375 -90.21875 C 165.21875 -90.375 166.148438 -90.453125 167.390625 -90.453125 L 168.328125 -90.921875 C 168.628906 -91.234375 169.25 -91.390625 170.1875 -91.390625 L 170.65625 -89.0625 L 168.78125 -87.65625 Z M 164.59375 -79.265625 C 167.082031 -76.773438 168.328125 -75.375 168.328125 -75.0625 C 168.328125 -74.445312 168.171875 -73.984375 167.859375 -73.671875 L 167.859375 -72.734375 L 166.921875 -72.734375 L 165.984375 -72.265625 L 164.59375 -72.265625 C 163.65625 -72.265625 162.878906 -72.578125 162.265625 -73.203125 L 160.859375 -73.203125 C 160.859375 -73.203125 160.3125 -73.28125 159.21875 -73.4375 C 158.132812 -73.59375 156.660156 -73.828125 154.796875 -74.140625 C 154.179688 -74.753906 153.875 -75.21875 153.875 -75.53125 L 153.40625 -76 L 153.40625 -77.859375 L 154.796875 -77.859375 C 156.347656 -77.859375 157.59375 -77.707031 158.53125 -77.40625 C 159.15625 -77.09375 159.929688 -76.9375 160.859375 -76.9375 L 161.328125 -76.9375 C 161.953125 -76.9375 162.421875 -77.09375 162.734375 -77.40625 L 163.65625 -77.859375 C 163.65625 -78.171875 163.96875 -78.640625 164.59375 -79.265625 Z M 178.578125 -75.53125 L 178.578125 -74.609375 L 174.84375 -74.609375 C 175.78125 -75.535156 176.25 -76.46875 176.25 -77.40625 L 179.515625 -77.40625 Z M 173.453125 -71.34375 L 173.453125 -74.140625 L 175.78125 -74.140625 L 175.78125 -71.34375 Z M 163.1875 -69 C 163.1875 -68.382812 162.410156 -67.609375 160.859375 -66.671875 L 157.59375 -64.8125 L 155.734375 -64.8125 C 153.867188 -64.8125 152.625 -65.125 152 -65.75 L 152 -66.671875 C 152 -67.609375 152.929688 -68.539062 154.796875 -69.46875 C 155.734375 -69.46875 156.359375 -69.625 156.671875 -69.9375 C 158.222656 -70.875 158.84375 -71.1875 158.53125 -70.875 L 163.1875 -70.875 Z M 176.71875 -65.75 C 177.644531 -64.8125 178.109375 -64.1875 178.109375 -63.875 C 178.109375 -62.320312 177.332031 -61.546875 175.78125 -61.546875 L 173.921875 -60.140625 C 172.671875 -61.703125 172.046875 -62.945312 172.046875 -63.875 C 172.046875 -65.738281 172.828125 -66.828125 174.390625 -67.140625 Z M 163.65625 -62.015625 C 162.101562 -61.703125 160.394531 -61.703125 158.53125 -62.015625 L 158.53125 -63.875 L 160.390625 -65.28125 L 163.1875 -65.28125 C 163.5 -65.28125 163.65625 -64.8125 163.65625 -63.875 Z M 68.546875 -61.546875 L 68.546875 -62.953125 L 71.34375 -62.953125 L 71.34375 -61.546875 Z M 153.875 -55.484375 L 152.9375 -54.546875 L 152 -54.546875 C 152 -54.242188 151.6875 -54.09375 151.0625 -54.09375 L 151.0625 -55.953125 C 151.0625 -56.578125 151.375 -57.195312 152 -57.8125 C 152.3125 -57.8125 152.546875 -57.734375 152.703125 -57.578125 C 152.859375 -57.421875 152.9375 -57.34375 152.9375 -57.34375 L 153.40625 -56.421875 Z M 138.015625 -49.890625 C 138.640625 -49.578125 138.953125 -48.644531 138.953125 -47.09375 C 137.703125 -47.09375 136.457031 -47.40625 135.21875 -48.03125 C 135.53125 -48.03125 135.765625 -48.101562 135.921875 -48.25 C 136.078125 -48.40625 136.15625 -48.484375 136.15625 -48.484375 C 136.15625 -48.796875 136.460938 -48.953125 137.078125 -48.953125 L 137.078125 -49.421875 C 137.078125 -49.734375 137.390625 -49.890625 138.015625 -49.890625 Z M 163.65625 -48.953125 C 163.96875 -48.640625 164.125 -48.175781 164.125 -47.5625 C 163.195312 -47.5625 161.332031 -48.023438 158.53125 -48.953125 L 163.65625 -49.890625 Z M 77.859375 -47.09375 L 76 -48.03125 L 77.40625 -49.421875 L 79.265625 -48.953125 Z M 140.8125 -44.296875 C 142.050781 -44.296875 142.828125 -44.140625 143.140625 -43.828125 L 145.46875 -43.359375 C 145.46875 -41.804688 144.226562 -41.03125 141.75 -41.03125 C 141.75 -41.34375 141.125 -41.5 139.875 -41.5 Z M 131.484375 -41.03125 L 131.484375 -43.359375 L 133.359375 -43.359375 L 133.359375 -41.03125 Z M 89.0625 -32.640625 L 89.0625 -34.03125 L 92.328125 -34.03125 L 92.328125 -32.640625 Z M 139.875 -31.234375 C 139.257812 -31.546875 138.953125 -32.015625 138.953125 -32.640625 C 138.953125 -33.566406 139.257812 -34.03125 139.875 -34.03125 L 143.609375 -34.03125 Z M 139.875 -31.234375 "/></g></g></g><g fill="#fd4610" fill-opacity="1"><g transform="translate(591.462804, 884.016261)"><g><path d="M 238.265625 29.375 C 241.054688 29.375 243.304688 28.285156 245.015625 26.109375 C 246.734375 23.929688 247.4375 21.445312 247.125 18.65625 L 245.71875 3.265625 C 245.40625 -2.328125 242.296875 -5.125 236.390625 -5.125 C 146.242188 -2.945312 68.847656 0.3125 4.203125 4.65625 C 1.710938 4.96875 -0.617188 6.210938 -2.796875 8.390625 C -4.035156 9.640625 -4.65625 11.972656 -4.65625 15.390625 L -2.328125 40.5625 C -1.398438 46.78125 2.171875 49.578125 8.390625 48.953125 C 25.796875 47.085938 44.132812 44.757812 63.40625 41.96875 C 87.03125 38.539062 110.03125 35.894531 132.40625 34.03125 C 154.789062 32.164062 190.078125 30.613281 238.265625 29.375 Z M 238.265625 29.375 "/></g></g></g><g fill="#fd4610" fill-opacity="1"><g transform="translate(839.050465, 884.016261)"><g><path d="M 270.4375 -9.328125 C 270.4375 -6.835938 269.503906 -4.660156 267.640625 -2.796875 C 265.773438 -0.929688 263.597656 0 261.109375 0 L 193.5 -1.40625 C 191.007812 -1.40625 188.753906 -2.410156 186.734375 -4.421875 C 184.710938 -6.441406 183.859375 -8.695312 184.171875 -11.1875 L 190.234375 -110.96875 L 165.53125 -59.6875 C 162.101562 -52.53125 158.523438 -46.390625 154.796875 -41.265625 C 151.066406 -36.140625 146.875 -32.488281 142.21875 -30.3125 C 138.175781 -27.820312 133.351562 -26.578125 127.75 -26.578125 C 121.84375 -26.578125 116.632812 -28.363281 112.125 -31.9375 C 107.625 -35.507812 104.441406 -40.71875 102.578125 -47.5625 L 84.859375 -101.640625 L 83 -108.171875 L 81.59375 -61.546875 L 80.65625 -61.078125 L 80.65625 -58.75 L 81.59375 -58.75 L 80.203125 -10.71875 C 80.203125 -7.613281 78.800781 -4.972656 76 -2.796875 C 75.375 -3.109375 74.128906 -3.265625 72.265625 -3.265625 L 59.6875 -3.265625 L 56.890625 -3.734375 L 54.09375 -4.65625 C 53.15625 -4.65625 52.140625 -4.34375 51.046875 -3.71875 C 49.960938 -3.101562 49.265625 -2.332031 48.953125 -1.40625 L 70.875 -1.40625 L 5.125 0 C 2.332031 0 0.00390625 -0.929688 -1.859375 -2.796875 C -3.722656 -4.660156 -4.65625 -6.992188 -4.65625 -9.796875 L 2.796875 -160.859375 L 7.453125 -254.578125 C 8.078125 -257.992188 8.078125 -260.484375 7.453125 -262.046875 L 9.796875 -310.0625 C 10.109375 -315.96875 13.210938 -319.078125 19.109375 -319.390625 L 55.953125 -320.796875 L 56.421875 -319.859375 C 56.734375 -319.546875 57.195312 -319.390625 57.8125 -319.390625 L 56.421875 -320.796875 L 58.75 -320.796875 C 70.875 -321.097656 80.820312 -317.832031 88.59375 -311 C 86.101562 -310.6875 82.375 -310.53125 77.40625 -310.53125 C 73.363281 -310.53125 69.320312 -311.148438 65.28125 -312.390625 C 64.34375 -312.390625 58.742188 -313.171875 48.484375 -314.734375 C 46.617188 -312.554688 44.753906 -311.46875 42.890625 -311.46875 L 36.375 -312.390625 C 33.882812 -313.015625 32.019531 -313.328125 30.78125 -313.328125 C 28.289062 -313.328125 26.113281 -312.394531 24.25 -310.53125 C 22.382812 -311.46875 20.984375 -311.9375 20.046875 -311.9375 C 19.421875 -311.9375 18.875 -311.78125 18.40625 -311.46875 C 17.945312 -311.15625 17.71875 -310.84375 17.71875 -310.53125 L 16.78125 -310.0625 C 16.78125 -310.0625 15.847656 -311.460938 13.984375 -314.265625 L 13.0625 -307.734375 C 15.539062 -308.046875 18.957031 -308.203125 23.3125 -308.203125 C 28.289062 -308.203125 32.644531 -307.890625 36.375 -307.265625 L 41.03125 -306.796875 C 42.582031 -306.796875 46.15625 -307.109375 51.75 -307.734375 L 53.625 -308.671875 L 55.484375 -308.671875 L 58.75 -309.140625 L 60.609375 -308.203125 C 70.554688 -307.265625 81.28125 -306.796875 92.78125 -306.796875 C 96.207031 -302.753906 99.160156 -297.472656 101.640625 -290.953125 L 101.640625 -290.484375 L 135.21875 -173.921875 L 191.171875 -306.796875 C 205.460938 -306.796875 221.78125 -307.265625 240.125 -308.203125 L 240.59375 -312.390625 C 228.15625 -311.148438 213.859375 -310.53125 197.703125 -310.53125 L 192.5625 -310.53125 L 195.359375 -316.125 L 195.828125 -318 L 196.296875 -317.53125 L 197.703125 -316.59375 C 199.253906 -317.21875 200.03125 -317.992188 200.03125 -318.921875 L 200.5 -319.859375 L 200.5 -321.25 C 201.738281 -321.875 202.976562 -322.1875 204.21875 -322.1875 L 224.28125 -322.1875 C 237.644531 -322.1875 247.742188 -318.769531 254.578125 -311.9375 C 264.210938 -302.300781 269.03125 -290.332031 269.03125 -276.03125 Z M 71.34375 -317.0625 L 71.8125 -315.65625 L 74.609375 -315.65625 L 75.53125 -317.53125 C 75.53125 -318.457031 74.910156 -318.921875 73.671875 -318.921875 C 73.046875 -318.304688 72.425781 -318 71.8125 -318 Z M 238.265625 -314.265625 C 234.222656 -315.191406 231.113281 -316.125 228.9375 -317.0625 L 225.671875 -318 C 226.296875 -317.0625 226.453125 -316.4375 226.140625 -316.125 Z M 210.75 -314.734375 C 210.125 -315.347656 209.503906 -315.65625 208.890625 -315.65625 C 207.953125 -315.65625 207.015625 -315.34375 206.078125 -314.71875 C 205.148438 -314.101562 204.53125 -313.484375 204.21875 -312.859375 C 204.84375 -312.242188 205.3125 -311.9375 205.625 -311.9375 C 205.625 -311.9375 205.703125 -311.859375 205.859375 -311.703125 C 206.015625 -311.546875 206.09375 -311.46875 206.09375 -311.46875 L 210.75 -312.859375 Z M 61.546875 -315.65625 C 61.859375 -315.351562 62.015625 -315.351562 62.015625 -315.65625 Z M 13.984375 -298.40625 L 13.0625 -299.34375 L 11.65625 -298.40625 Z M 13.0625 -290.953125 L 13.0625 -293.75 L 11.1875 -290.953125 Z M 100.25 -258.3125 C 100.25 -258.3125 99.625 -257.691406 98.375 -256.453125 L 96.046875 -253.65625 L 99.78125 -253.65625 C 100.09375 -254.269531 100.25 -255.046875 100.25 -255.984375 Z M 87.65625 -250.84375 L 90.921875 -250.84375 L 90.921875 -251.78125 L 87.65625 -251.78125 Z M 232.671875 -248.515625 C 231.734375 -249.140625 231.265625 -249.609375 231.265625 -249.921875 L 228 -249.921875 C 228 -248.984375 228.46875 -248.050781 229.40625 -247.125 L 231.265625 -247.125 Z M 217.75 -246.1875 C 217.75 -244.007812 216.503906 -242.609375 214.015625 -241.984375 C 214.640625 -241.367188 215.414062 -241.0625 216.34375 -241.0625 C 217.59375 -241.0625 219.148438 -241.523438 221.015625 -242.453125 L 221.015625 -245.25 Z M 95.125 -232.203125 L 91.859375 -234.0625 C 91.859375 -233.75 91.703125 -233.59375 91.390625 -233.59375 L 91.390625 -233.140625 L 90.921875 -232.671875 L 92.78125 -232.203125 Z M 232.203125 -225.203125 C 232.203125 -226.453125 231.269531 -227.226562 229.40625 -227.53125 L 228.46875 -226.609375 C 228.15625 -225.984375 227.691406 -225.671875 227.078125 -225.671875 C 227.378906 -224.742188 228.3125 -224.585938 229.875 -225.203125 Z M 13.984375 -175.3125 L 12.59375 -176.71875 L 13.984375 -173.921875 Z M 216.8125 -167.859375 L 216.8125 -167.390625 L 218.21875 -167.859375 L 219.609375 -167.859375 C 219.609375 -169.097656 218.832031 -169.71875 217.28125 -169.71875 L 215.875 -168.78125 Z M 134.28125 -164.125 C 134.28125 -162.882812 134.4375 -162.109375 134.75 -161.796875 C 135.0625 -161.484375 135.21875 -161.015625 135.21875 -160.390625 L 138.953125 -160.390625 L 139.875 -161.796875 C 139.875 -161.796875 139.796875 -161.875 139.640625 -162.03125 C 139.484375 -162.1875 139.40625 -162.265625 139.40625 -162.265625 L 138.953125 -162.734375 L 138.015625 -164.125 Z M 207.015625 -154.796875 C 205.460938 -154.179688 204.6875 -153.40625 204.6875 -152.46875 C 204.6875 -151.84375 204.84375 -151.53125 205.15625 -151.53125 L 205.625 -151.0625 C 205.625 -151.375 205.9375 -151.53125 206.5625 -151.53125 L 207.015625 -151.53125 Z M 128.6875 -150.140625 L 129.15625 -148.734375 L 130.09375 -148.265625 C 131.019531 -148.265625 131.484375 -149.046875 131.484375 -150.609375 L 126.828125 -151.0625 Z M 13.984375 -150.140625 L 12.59375 -150.140625 L 12.59375 -144.546875 L 13.984375 -144.546875 Z M 166.921875 -143.140625 L 166.921875 -143.609375 C 166.921875 -143.609375 167 -143.6875 167.15625 -143.84375 C 167.3125 -144 167.390625 -144.078125 167.390625 -144.078125 C 167.703125 -144.078125 167.859375 -144.390625 167.859375 -145.015625 C 167.859375 -146.566406 166.613281 -147.34375 164.125 -147.34375 C 162.882812 -147.34375 161.484375 -146.410156 159.921875 -144.546875 C 160.546875 -144.546875 160.859375 -144.078125 160.859375 -143.140625 C 161.171875 -142.828125 162.257812 -142.671875 164.125 -142.671875 Z M 141.28125 -137.546875 C 142.207031 -137.546875 142.828125 -137.703125 143.140625 -138.015625 L 144.078125 -138.015625 C 145.003906 -138.941406 144.847656 -140.1875 143.609375 -141.75 L 138.015625 -140.34375 L 136.15625 -139.875 L 137.546875 -138.953125 Z M 13.984375 -141.28125 L 12.59375 -141.28125 L 12.59375 -137.078125 L 13.984375 -137.078125 Z M 132.890625 -130.09375 L 135.21875 -130.09375 L 135.21875 -131.953125 L 132.890625 -131.953125 Z M 169.71875 -131.015625 L 165.53125 -131.015625 L 165.53125 -129.625 L 169.71875 -129.625 Z M 10.71875 -128.6875 C 10.101562 -128.375 9.945312 -128.0625 10.25 -127.75 C 10.5625 -127.445312 11.1875 -127.140625 12.125 -126.828125 L 12.125 -130.09375 C 12.125 -129.78125 11.65625 -129.3125 10.71875 -128.6875 Z M 12.125 -125.890625 C 12.125 -125.265625 11.347656 -124.644531 9.796875 -124.03125 C 10.410156 -122.78125 10.71875 -121.847656 10.71875 -121.234375 C 10.71875 -119.367188 10.566406 -118.125 10.265625 -117.5 L 10.265625 -115.640625 C 10.265625 -113.460938 11.039062 -111.90625 12.59375 -110.96875 Z M 137.546875 -116.09375 L 138.953125 -116.09375 L 141.28125 -117.03125 L 139.875 -118.4375 C 139.875 -118.4375 139.566406 -118.742188 138.953125 -119.359375 C 138.328125 -118.742188 136.769531 -118.4375 134.28125 -118.4375 L 135.6875 -115.640625 Z M 155.265625 -113.765625 C 156.503906 -114.078125 157.125 -114.703125 157.125 -115.640625 C 157.125 -115.941406 156.816406 -116.40625 156.203125 -117.03125 L 155.734375 -117.03125 L 155.265625 -117.5 L 152.46875 -117.5 C 150.914062 -116.5625 150.140625 -115.785156 150.140625 -115.171875 C 150.140625 -114.546875 150.445312 -113.921875 151.0625 -113.296875 C 151.6875 -112.679688 152.3125 -112.375 152.9375 -112.375 Z M 146.875 -103.046875 C 147.5 -102.734375 148.273438 -102.65625 149.203125 -102.8125 C 150.140625 -102.96875 151.226562 -103.046875 152.46875 -103.046875 C 150.914062 -105.535156 149.363281 -106.78125 147.8125 -106.78125 C 147.5 -106.78125 146.097656 -106 143.609375 -104.4375 L 145.015625 -103.046875 Z M 164.125 -102.109375 C 164.75 -102.734375 165.0625 -103.203125 165.0625 -103.515625 C 165.0625 -104.441406 164.128906 -105.53125 162.265625 -106.78125 C 161.015625 -105.84375 159.84375 -104.671875 158.75 -103.265625 C 157.664062 -101.867188 157.125 -100.707031 157.125 -99.78125 C 157.125 -98.539062 157.28125 -97.765625 157.59375 -97.453125 C 158.21875 -96.515625 159.304688 -96.046875 160.859375 -96.046875 C 162.109375 -96.046875 162.882812 -96.515625 163.1875 -97.453125 C 163.1875 -98.378906 163.34375 -99.15625 163.65625 -99.78125 C 163.65625 -100.40625 163.5 -100.71875 163.1875 -100.71875 L 163.1875 -102.109375 Z M 9.796875 -46.15625 L 11.1875 -74.140625 L 13.984375 -105.375 L 9.796875 -106.3125 L 9.796875 -93.25 C 9.796875 -91.070312 8.863281 -89.050781 7 -87.1875 L 4.65625 -85.328125 C 4.039062 -84.703125 3.734375 -84.859375 3.734375 -85.796875 L 4.65625 -66.671875 L 6.0625 -54.546875 L 7.921875 -44.296875 C 8.546875 -39.941406 8.859375 -36.367188 8.859375 -33.578125 C 8.859375 -29.835938 8.390625 -25.796875 7.453125 -21.453125 C 6.835938 -19.585938 6.53125 -17.875 6.53125 -16.3125 L 7 -11.1875 C 7.300781 -10.257812 7.453125 -9.25 7.453125 -8.15625 C 7.453125 -7.070312 7.609375 -6.0625 7.921875 -5.125 L 12.59375 -11.1875 Z M 143.140625 -97.453125 C 143.140625 -97.765625 142.75 -98.148438 141.96875 -98.609375 C 141.195312 -99.078125 140.5 -99.3125 139.875 -99.3125 L 139.875 -97.453125 L 140.34375 -96.984375 C 141.28125 -96.984375 141.90625 -97.140625 142.21875 -97.453125 Z M 135.21875 -90.453125 C 135.53125 -90.453125 135.835938 -90.609375 136.140625 -90.921875 C 136.453125 -91.234375 136.457031 -91.390625 136.15625 -91.390625 C 135.53125 -91.390625 135.21875 -91.234375 135.21875 -90.921875 Z M 221.46875 -70.875 L 220.078125 -71.8125 C 219.453125 -72.425781 218.832031 -72.734375 218.21875 -72.734375 C 216.96875 -72.734375 216.035156 -71.957031 215.421875 -70.40625 C 215.421875 -70.40625 215.726562 -70.09375 216.34375 -69.46875 C 216.96875 -68.851562 217.742188 -68.546875 218.671875 -68.546875 C 218.984375 -68.546875 219.453125 -68.851562 220.078125 -69.46875 Z M 249.921875 -60.609375 C 249.921875 -61.546875 249.609375 -62.015625 248.984375 -62.015625 C 248.359375 -62.015625 247.582031 -61.546875 246.65625 -60.609375 Z M 140.34375 -55.015625 C 137.851562 -55.015625 135.675781 -55.640625 133.8125 -56.890625 C 132.570312 -57.503906 131.796875 -57.8125 131.484375 -57.8125 C 130.859375 -57.8125 130.3125 -57.578125 129.84375 -57.109375 C 129.382812 -56.648438 129.15625 -56.265625 129.15625 -55.953125 C 131.957031 -54.710938 133.664062 -53.9375 134.28125 -53.625 L 136.609375 -52.21875 C 137.234375 -51.601562 138.015625 -51.296875 138.953125 -51.296875 L 140.34375 -52.21875 Z M 151.53125 -50.828125 L 150.140625 -52.6875 C 150.140625 -52.6875 149.515625 -53.304688 148.265625 -54.546875 C 147.335938 -54.242188 146.875 -53.46875 146.875 -52.21875 C 147.5 -51.601562 148.195312 -51.140625 148.96875 -50.828125 C 149.75 -50.515625 150.296875 -50.203125 150.609375 -49.890625 Z M 71.8125 -50.359375 C 71.8125 -48.804688 73.050781 -48.03125 75.53125 -48.03125 C 76.78125 -48.03125 77.40625 -48.804688 77.40625 -50.359375 C 77.40625 -51.597656 76.625 -52.21875 75.0625 -52.21875 C 72.894531 -52.21875 71.8125 -51.597656 71.8125 -50.359375 Z M 56.421875 -46.625 L 55.953125 -47.09375 L 53.625 -47.09375 C 53.625 -47.09375 53.546875 -47.015625 53.390625 -46.859375 C 53.234375 -46.703125 53.15625 -46.625 53.15625 -46.625 L 53.15625 -45.6875 C 53.15625 -44.757812 53.773438 -44.296875 55.015625 -44.296875 C 55.953125 -44.921875 56.421875 -45.382812 56.421875 -45.6875 Z M 138.953125 -40.09375 C 138.015625 -40.09375 137.546875 -39.628906 137.546875 -38.703125 L 138.953125 -38.234375 Z M 138.953125 -34.03125 L 138.015625 -34.03125 L 138.015625 -32.171875 L 138.953125 -31.703125 Z M 48.03125 -31.703125 C 48.03125 -32.953125 47.5625 -33.578125 46.625 -33.578125 C 46 -33.578125 45.296875 -33.421875 44.515625 -33.109375 C 43.742188 -32.796875 43.203125 -32.484375 42.890625 -32.171875 C 44.140625 -30.929688 45.695312 -30.3125 47.5625 -30.3125 C 47.5625 -30.625 47.71875 -30.78125 48.03125 -30.78125 Z M 76.46875 -16.78125 L 76.46875 -18.65625 L 78.796875 -20.515625 L 77.40625 -20.984375 L 76 -21.453125 C 74.445312 -21.453125 73.671875 -21.140625 73.671875 -20.515625 L 73.671875 -19.578125 C 74.910156 -18.335938 75.375 -17.25 75.0625 -16.3125 C 74.757812 -15.382812 75.691406 -14.921875 77.859375 -14.921875 L 78.796875 -14.921875 L 78.796875 -15.390625 C 78.484375 -15.703125 78.019531 -15.859375 77.40625 -15.859375 Z M 76.46875 -16.78125 "/></g></g></g></svg>