<svg xmlns="http://www.w3.org/2000/svg" xmlns:xlink="http://www.w3.org/1999/xlink" width="2000" zoomAndPan="magnify" viewBox="0 0 1500 1499.999933" height="2000" preserveAspectRatio="xMidYMid meet" version="1.0"><defs><g/></defs><g fill="#f7f2eb" fill-opacity="1"><g transform="translate(0.00003335, 884.016261)"><g><path d="M 73.671875 -66.671875 C 59.367188 -71.960938 44.757812 -79.113281 29.84375 -88.125 C 28.289062 -89.050781 26.734375 -89.515625 25.171875 -89.515625 C 21.128906 -89.515625 18.332031 -87.648438 16.78125 -83.921875 L -3.734375 -42.890625 C -4.660156 -41.023438 -5.125 -39.316406 -5.125 -37.765625 C -5.125 -34.660156 -3.414062 -32.175781 0 -30.3125 C 31.394531 -13.207031 57.503906 -3.570312 78.328125 -1.40625 C 87.035156 -0.78125 93.566406 -0.46875 97.921875 -0.46875 C 116.566406 -0.46875 133.503906 -3.421875 148.734375 -9.328125 C 163.035156 -14.921875 174.535156 -24.085938 183.234375 -36.828125 C 191.941406 -49.578125 198.003906 -64.8125 201.421875 -82.53125 L 201.421875 -83 C 201.734375 -85.175781 201.890625 -88.59375 201.890625 -93.25 C 201.890625 -127.757812 182.617188 -156.671875 144.078125 -179.984375 L 129.625 -188.84375 C 122.46875 -193.1875 116.25 -198.003906 110.96875 -203.296875 C 102.269531 -211.066406 97.921875 -220.078125 97.921875 -230.328125 C 97.921875 -236.546875 99.472656 -242.609375 102.578125 -248.515625 C 106.304688 -258.148438 112.679688 -262.191406 121.703125 -260.640625 L 122.15625 -260.640625 C 125.582031 -260.328125 127.757812 -257.375 128.6875 -251.78125 C 129.625 -240.28125 130.09375 -229.242188 130.09375 -218.671875 C 130.09375 -212.460938 133.195312 -209.359375 139.40625 -209.359375 L 193.5 -209.359375 C 199.71875 -209.359375 202.828125 -212.3125 202.828125 -218.21875 C 203.453125 -228.164062 203.765625 -236.710938 203.765625 -243.859375 C 203.765625 -250.078125 203.453125 -255.671875 202.828125 -260.640625 C 201.578125 -275.867188 197.535156 -287.835938 190.703125 -296.546875 C 177.023438 -313.328125 155.578125 -321.71875 126.359375 -321.71875 C 118.273438 -321.71875 110.503906 -321.253906 103.046875 -320.328125 C 68.847656 -316.285156 43.976562 -300.585938 28.4375 -273.234375 C 17.25 -254.578125 11.65625 -235.304688 11.65625 -215.421875 C 11.65625 -207.335938 12.585938 -199.097656 14.453125 -190.703125 C 17.554688 -177.648438 23.304688 -167.238281 31.703125 -159.46875 C 31.703125 -159.46875 31.78125 -159.390625 31.9375 -159.234375 C 32.09375 -159.078125 32.171875 -159 32.171875 -159 C 47.398438 -146.25 56.570312 -139.097656 59.6875 -137.546875 L 60.609375 -137.078125 L 69.9375 -131.484375 C 85.789062 -121.847656 96.050781 -115.164062 100.71875 -111.4375 C 110.351562 -104.289062 115.171875 -95.273438 115.171875 -84.390625 C 115.171875 -77.554688 113.070312 -72.273438 108.875 -68.546875 C 104.675781 -64.816406 99.160156 -62.953125 92.328125 -62.953125 C 86.722656 -62.953125 80.503906 -64.191406 73.671875 -66.671875 Z M 149.203125 -267.171875 L 151.0625 -267.171875 L 151.0625 -266.234375 L 149.203125 -266.234375 Z M 161.328125 -251.3125 C 161.015625 -251 160.625 -250.84375 160.15625 -250.84375 C 159.695312 -250.84375 159.617188 -251.15625 159.921875 -251.78125 C 159.921875 -251.78125 160 -251.859375 160.15625 -252.015625 C 160.3125 -252.171875 160.390625 -252.25 160.390625 -252.25 L 160.859375 -253.1875 C 160.859375 -253.1875 160.9375 -253.109375 161.09375 -252.953125 C 161.25 -252.796875 161.328125 -252.71875 161.328125 -252.71875 L 162.265625 -252.25 Z M 151.0625 -232.671875 C 151.0625 -232.046875 150.910156 -231.734375 150.609375 -231.734375 L 148.265625 -231.734375 C 148.265625 -232.972656 149.046875 -233.59375 150.609375 -233.59375 Z M 139.875 -151.53125 C 140.5 -150.914062 140.8125 -150.140625 140.8125 -149.203125 L 137.078125 -149.203125 C 137.078125 -149.203125 136.921875 -149.742188 136.609375 -150.828125 C 136.304688 -151.921875 136.460938 -153.242188 137.078125 -154.796875 L 139.875 -154.796875 C 140.1875 -154.484375 140.34375 -153.707031 140.34375 -152.46875 Z M 119.828125 -151.53125 L 119.828125 -153.40625 L 124.03125 -153.40625 L 124.03125 -151.53125 Z M 145.46875 -148.734375 L 144.546875 -148.265625 L 144.546875 -147.8125 L 140.8125 -145.9375 C 139.570312 -147.800781 138.953125 -148.734375 138.953125 -148.734375 C 139.566406 -149.046875 140.5 -149.203125 141.75 -149.203125 L 143.609375 -149.203125 Z M 132.421875 -132.890625 C 133.046875 -132.265625 133.359375 -131.640625 133.359375 -131.015625 L 132.421875 -130.546875 L 131.484375 -131.015625 L 130.546875 -131.015625 L 130.546875 -134.28125 L 131.484375 -133.359375 Z M 157.59375 -125.890625 L 156.671875 -125.421875 L 153.875 -125.421875 C 153.875 -126.671875 154.804688 -127.757812 156.671875 -128.6875 L 158.53125 -126.828125 L 158.53125 -125.890625 Z M 150.609375 -118.4375 L 150.609375 -119.828125 L 154.796875 -119.359375 L 154.796875 -117.5 Z M 176.25 -109.578125 C 176.5625 -109.578125 176.71875 -109.265625 176.71875 -108.640625 C 176.71875 -106.773438 175.785156 -105.84375 173.921875 -105.84375 C 172.054688 -105.84375 170.8125 -106.617188 170.1875 -108.171875 L 171.125 -110.5 L 175.3125 -110.5 C 175.3125 -110.1875 175.46875 -110.03125 175.78125 -110.03125 Z M 155.265625 -107.703125 L 153.40625 -108.640625 L 154.796875 -110.03125 L 156.671875 -109.578125 Z M 162.265625 -96.515625 C 162.265625 -95.890625 162.726562 -95.578125 163.65625 -95.578125 C 163.65625 -94.960938 163.5 -94.65625 163.1875 -94.65625 L 163.1875 -93.71875 C 162.882812 -93.71875 162.734375 -93.5625 162.734375 -93.25 L 159.46875 -93.25 L 159 -93.71875 L 158.53125 -93.71875 L 157.59375 -94.1875 L 158.53125 -97.453125 L 160.390625 -97.453125 Z M 181.375 -95.125 L 182.78125 -94.65625 L 181.375 -93.71875 L 180.4375 -93.25 C 179.507812 -92.320312 178.734375 -91.859375 178.109375 -91.859375 L 178.109375 -93.71875 C 177.796875 -94.34375 177.953125 -94.960938 178.578125 -95.578125 L 180.4375 -95.578125 Z M 166.921875 -86.71875 C 165.679688 -86.71875 164.671875 -87.03125 163.890625 -87.65625 C 163.117188 -88.28125 162.882812 -89.054688 163.1875 -89.984375 C 163.5 -89.984375 163.96875 -90.0625 164.59375 -90.21875 C 165.21875 -90.375 166.148438 -90.453125 167.390625 -90.453125 L 168.328125 -90.921875 C 168.628906 -91.234375 169.25 -91.390625 170.1875 -91.390625 L 170.65625 -89.0625 L 168.78125 -87.65625 Z M 164.59375 -79.265625 C 167.082031 -76.773438 168.328125 -75.375 168.328125 -75.0625 C 168.328125 -74.445312 168.171875 -73.984375 167.859375 -73.671875 L 167.859375 -72.734375 L 166.921875 -72.734375 L 165.984375 -72.265625 L 164.59375 -72.265625 C 163.65625 -72.265625 162.878906 -72.578125 162.265625 -73.203125 L 160.859375 -73.203125 C 160.859375 -73.203125 160.3125 -73.28125 159.21875 -73.4375 C 158.132812 -73.59375 156.660156 -73.828125 154.796875 -74.140625 C 154.179688 -74.753906 153.875 -75.21875 153.875 -75.53125 L 153.40625 -76 L 153.40625 -77.859375 L 154.796875 -77.859375 C 156.347656 -77.859375 157.59375 -77.707031 158.53125 -77.40625 C 159.15625 -77.09375 159.929688 -76.9375 160.859375 -76.9375 L 161.328125 -76.9375 C 161.953125 -76.9375 162.421875 -77.09375 162.734375 -77.40625 L 163.65625 -77.859375 C 163.65625 -78.171875 163.96875 -78.640625 164.59375 -79.265625 Z M 178.578125 -75.53125 L 178.578125 -74.609375 L 174.84375 -74.609375 C 175.78125 -75.535156 176.25 -76.46875 176.25 -77.40625 L 179.515625 -77.40625 Z M 173.453125 -71.34375 L 173.453125 -74.140625 L 175.78125 -74.140625 L 175.78125 -71.34375 Z M 163.1875 -69 C 163.1875 -68.382812 162.410156 -67.609375 160.859375 -66.671875 L 157.59375 -64.8125 L 155.734375 -64.8125 C 153.867188 -64.8125 152.625 -65.125 152 -65.75 L 152 -66.671875 C 152 -67.609375 152.929688 -68.539062 154.796875 -69.46875 C 155.734375 -69.46875 156.359375 -69.625 156.671875 -69.9375 C 158.222656 -70.875 158.84375 -71.1875 158.53125 -70.875 L 163.1875 -70.875 Z M 176.71875 -65.75 C 177.644531 -64.8125 178.109375 -64.1875 178.109375 -63.875 C 178.109375 -62.320312 177.332031 -61.546875 175.78125 -61.546875 L 173.921875 -60.140625 C 172.671875 -61.703125 172.046875 -62.945312 172.046875 -63.875 C 172.046875 -65.738281 172.828125 -66.828125 174.390625 -67.140625 Z M 163.65625 -62.015625 C 162.101562 -61.703125 160.394531 -61.703125 158.53125 -62.015625 L 158.53125 -63.875 L 160.390625 -65.28125 L 163.1875 -65.28125 C 163.5 -65.28125 163.65625 -64.8125 163.65625 -63.875 Z M 68.546875 -61.546875 L 68.546875 -62.953125 L 71.34375 -62.953125 L 71.34375 -61.546875 Z M 153.875 -55.484375 L 152.9375 -54.546875 L 152 -54.546875 C 152 -54.242188 151.6875 -54.09375 151.0625 -54.09375 L 151.0625 -55.953125 C 151.0625 -56.578125 151.375 -57.195312 152 -57.8125 C 152.3125 -57.8125 152.546875 -57.734375 152.703125 -57.578125 C 152.859375 -57.421875 152.9375 -57.34375 152.9375 -57.34375 L 153.40625 -56.421875 Z M 138.015625 -49.890625 C 138.640625 -49.578125 138.953125 -48.644531 138.953125 -47.09375 C 137.703125 -47.09375 136.457031 -47.40625 135.21875 -48.03125 C 135.53125 -48.03125 135.765625 -48.101562 135.921875 -48.25 C 136.078125 -48.40625 136.15625 -48.484375 136.15625 -48.484375 C 136.15625 -48.796875 136.460938 -48.953125 137.078125 -48.953125 L 137.078125 -49.421875 C 137.078125 -49.734375 137.390625 -49.890625 138.015625 -49.890625 Z M 163.65625 -48.953125 C 163.96875 -48.640625 164.125 -48.175781 164.125 -47.5625 C 163.195312 -47.5625 161.332031 -48.023438 158.53125 -48.953125 L 163.65625 -49.890625 Z M 77.859375 -47.09375 L 76 -48.03125 L 77.40625 -49.421875 L 79.265625 -48.953125 Z M 140.8125 -44.296875 C 142.050781 -44.296875 142.828125 -44.140625 143.140625 -43.828125 L 145.46875 -43.359375 C 145.46875 -41.804688 144.226562 -41.03125 141.75 -41.03125 C 141.75 -41.34375 141.125 -41.5 139.875 -41.5 Z M 131.484375 -41.03125 L 131.484375 -43.359375 L 133.359375 -43.359375 L 133.359375 -41.03125 Z M 89.0625 -32.640625 L 89.0625 -34.03125 L 92.328125 -34.03125 L 92.328125 -32.640625 Z M 139.875 -31.234375 C 139.257812 -31.546875 138.953125 -32.015625 138.953125 -32.640625 C 138.953125 -33.566406 139.257812 -34.03125 139.875 -34.03125 L 143.609375 -34.03125 Z M 139.875 -31.234375 "/></g></g></g><g fill="#f7f2eb" fill-opacity="1"><g transform="translate(223.341742, 884.016261)"><g><path d="M 97.453125 -78.796875 C 88.742188 -78.796875 82.679688 -82.132812 79.265625 -88.8125 C 75.847656 -95.5 74.140625 -104.75 74.140625 -116.5625 C 74.140625 -120.914062 74.445312 -127.445312 75.0625 -136.15625 L 79.265625 -197.703125 L 88.125 -310.0625 L 88.125 -311 C 88.125 -313.488281 87.191406 -315.664062 85.328125 -317.53125 C 83.460938 -319.394531 81.285156 -320.328125 78.796875 -320.328125 L 21.453125 -320.328125 C 15.859375 -320.328125 12.75 -317.53125 12.125 -311.9375 L 0.46875 -200.953125 C -2.332031 -172.671875 -3.890625 -148.425781 -4.203125 -128.21875 L -4.203125 -113.296875 C -4.203125 -96.515625 -3.578125 -84.082031 -2.328125 -76 C 0.460938 -50.195312 8.695312 -31.082031 22.375 -18.65625 C 35.4375 -6.21875 58.285156 0 90.921875 0 C 132.265625 0 163.816406 -12.273438 185.578125 -36.828125 C 199.253906 -52.679688 208.734375 -73.195312 214.015625 -98.375 C 218.054688 -119.820312 220.078125 -142.828125 220.078125 -167.390625 L 220.078125 -198.15625 L 224.28125 -310.53125 C 224.28125 -313.019531 223.34375 -315.273438 221.46875 -317.296875 C 219.601562 -319.316406 217.429688 -320.328125 214.953125 -320.328125 L 157.59375 -320.328125 C 151.6875 -320.328125 148.578125 -317.375 148.265625 -311.46875 L 142.671875 -200.5 L 142.671875 -200.03125 C 141.429688 -174.851562 140.34375 -155.890625 139.40625 -143.140625 L 138.015625 -125.421875 C 138.015625 -124.179688 137.546875 -120.765625 136.609375 -115.171875 C 134.742188 -103.671875 131.09375 -94.734375 125.65625 -88.359375 C 120.21875 -81.984375 110.816406 -78.796875 97.453125 -78.796875 Z M 213.078125 -296.078125 C 212.148438 -291.410156 211.6875 -287.992188 211.6875 -285.828125 C 211.6875 -285.828125 211.765625 -285.75 211.921875 -285.59375 C 212.078125 -285.4375 212.15625 -285.359375 212.15625 -285.359375 C 212.15625 -285.046875 212.304688 -284.890625 212.609375 -284.890625 L 207.484375 -284.890625 L 207.015625 -290.484375 L 207.015625 -296.078125 C 207.015625 -298.878906 206.863281 -300.585938 206.5625 -301.203125 L 206.5625 -304 C 206.5625 -304.9375 206.867188 -306.335938 207.484375 -308.203125 C 208.109375 -310.066406 209.039062 -311 210.28125 -311 C 212.769531 -311 213.9375 -309.988281 213.78125 -307.96875 C 213.625 -305.945312 213.546875 -304.78125 213.546875 -304.46875 L 213.546875 -302.609375 Z M 13.984375 -250.390625 C 13.984375 -251.316406 14.453125 -252.25 15.390625 -253.1875 L 16.3125 -255.984375 L 15.859375 -258.78125 L 15.390625 -262.046875 L 13.515625 -266.703125 L 14.453125 -269.96875 L 15.859375 -275.09375 C 15.859375 -275.40625 15.546875 -275.875 14.921875 -276.5 L 14.453125 -277.890625 C 14.453125 -278.203125 14.765625 -278.671875 15.390625 -279.296875 L 15.859375 -285.359375 C 16.472656 -285.972656 16.78125 -286.4375 16.78125 -286.75 C 17.09375 -287.0625 17.09375 -287.835938 16.78125 -289.078125 C 18.03125 -290.328125 18.65625 -291.414062 18.65625 -292.34375 L 18.65625 -295.609375 C 18.34375 -296.859375 17.953125 -297.867188 17.484375 -298.640625 C 17.015625 -299.421875 16.316406 -300.117188 15.390625 -300.734375 C 16.941406 -300.734375 17.71875 -300.890625 17.71875 -301.203125 C 18.34375 -301.828125 18.960938 -302.140625 19.578125 -302.140625 L 21.921875 -302.140625 L 19.109375 -242.921875 C 18.179688 -241.367188 17.097656 -240.28125 15.859375 -239.65625 L 15.859375 -238.734375 C 16.472656 -238.734375 16.78125 -238.578125 16.78125 -238.265625 C 17.40625 -238.265625 18.03125 -238.570312 18.65625 -239.1875 C 18.65625 -237.320312 18.1875 -235.457031 17.25 -233.59375 C 16.320312 -232.351562 15.546875 -231.734375 14.921875 -231.734375 C 14.921875 -232.359375 14.609375 -232.671875 13.984375 -232.671875 L 13.515625 -233.59375 Z M 16.78125 -192.5625 C 14.601562 -192.875 12.738281 -193.804688 11.1875 -195.359375 L 11.65625 -197.234375 L 13.515625 -197.703125 L 16.78125 -198.15625 Z M 164.125 -194.90625 C 163.8125 -194.59375 163.578125 -194.28125 163.421875 -193.96875 C 163.265625 -193.65625 163.035156 -193.5 162.734375 -193.5 C 162.734375 -193.5 162.65625 -193.421875 162.5 -193.265625 C 162.34375 -193.109375 162.265625 -193.03125 162.265625 -193.03125 C 161.640625 -193.03125 161.328125 -193.34375 161.328125 -193.96875 L 161.328125 -195.359375 Z M 15.859375 -178.578125 C 15.859375 -175.785156 14.769531 -174.390625 12.59375 -174.390625 C 11.65625 -174.390625 10.878906 -174.851562 10.265625 -175.78125 C 10.566406 -177.019531 12.429688 -178.421875 15.859375 -179.984375 Z M 175.78125 -149.203125 C 176.09375 -148.273438 175.9375 -147.65625 175.3125 -147.34375 L 171.578125 -147.34375 L 172.515625 -149.203125 Z M 165.984375 -134.28125 C 165.679688 -133.96875 165.21875 -133.8125 164.59375 -133.8125 C 164.59375 -134.4375 164.125 -134.90625 163.1875 -135.21875 C 163.8125 -135.21875 164.125 -135.375 164.125 -135.6875 L 165.0625 -135.6875 C 165.988281 -135.6875 166.609375 -135.53125 166.921875 -135.21875 Z M 157.125 -99.3125 L 158.53125 -100.25 L 158.53125 -99.3125 L 157.125 -98.375 Z M 163.65625 -94.65625 L 165.0625 -94.65625 L 164.59375 -92.78125 L 163.1875 -92.78125 Z M 133.8125 -79.734375 C 134.125 -78.796875 134.125 -78.171875 133.8125 -77.859375 L 129.625 -77.859375 L 130.546875 -79.734375 Z M 105.375 -73.671875 C 104.445312 -71.804688 103.75 -70.71875 103.28125 -70.40625 C 102.8125 -70.09375 101.800781 -69.9375 100.25 -69.9375 L 97.921875 -69.9375 C 96.054688 -69.9375 94.8125 -70.867188 94.1875 -72.734375 C 94.1875 -73.046875 94.648438 -73.671875 95.578125 -74.609375 C 97.753906 -74.609375 99.460938 -74.53125 100.703125 -74.375 C 101.953125 -74.21875 102.890625 -74.140625 103.515625 -74.140625 Z M 117.5 -72.734375 L 117.96875 -74.140625 L 119.359375 -73.671875 L 118.4375 -72.265625 Z M 117.03125 -57.34375 L 117.5 -65.75 L 118.890625 -65.75 L 117.5 -57.34375 Z M 85.796875 -61.078125 C 85.796875 -61.390625 86.414062 -62.164062 87.65625 -63.40625 C 87.65625 -63.40625 88.117188 -63.09375 89.046875 -62.46875 C 89.984375 -61.851562 90.765625 -60.925781 91.390625 -59.6875 L 86.265625 -59.21875 Z M 85.796875 -61.078125 "/></g></g></g><g fill="#f7f2eb" fill-opacity="1"><g transform="translate(466.732951, 884.016261)"><g><path d="M 205.15625 -172.984375 C 216.03125 -184.484375 223.488281 -197.382812 227.53125 -211.6875 L 228 -212.15625 L 228 -212.609375 C 230.488281 -223.492188 231.734375 -234.222656 231.734375 -244.796875 C 231.734375 -259.398438 229.09375 -271.363281 223.8125 -280.6875 C 213.238281 -299.65625 196.140625 -311.9375 172.515625 -317.53125 C 165.992188 -319.082031 157.757812 -319.859375 147.8125 -319.859375 C 137.863281 -319.859375 127.445312 -319.082031 116.5625 -317.53125 L 27.046875 -307.265625 C 22.066406 -306.953125 19.269531 -304.15625 18.65625 -298.875 L -4.65625 -10.265625 C -4.65625 -7.148438 -3.722656 -4.660156 -1.859375 -2.796875 C 0.00390625 -0.929688 2.175781 0 4.65625 0 L 111.90625 0 C 135.53125 0 154.644531 -3.109375 169.25 -9.328125 C 185.414062 -15.546875 198.316406 -26.734375 207.953125 -42.890625 C 217.585938 -59.054688 222.40625 -76.15625 222.40625 -94.1875 C 222.40625 -109.726562 220.070312 -122.472656 215.40625 -132.421875 C 210.75 -142.367188 203.289062 -151.691406 193.03125 -160.390625 Z M 194.4375 -287.21875 L 193.5 -285.359375 L 192.5625 -285.359375 L 193.03125 -287.21875 Z M 126.359375 -277.890625 L 124.03125 -278.828125 C 122.78125 -279.453125 121.847656 -279.765625 121.234375 -279.765625 L 123.09375 -281.15625 L 125.421875 -282.5625 L 128.6875 -279.765625 L 128.6875 -278.828125 L 127.75 -277.890625 Z M 126.828125 -263.4375 C 126.515625 -263.125 126.046875 -262.96875 125.421875 -262.96875 L 124.953125 -263.90625 C 124.648438 -264.21875 124.5 -264.6875 124.5 -265.3125 L 124.953125 -267.640625 L 127.75 -270.90625 C 127.75 -270.28125 127.597656 -269.8125 127.296875 -269.5 L 126.828125 -268.5625 C 126.203125 -267.945312 126.203125 -267.171875 126.828125 -266.234375 C 127.441406 -265.617188 127.75 -264.84375 127.75 -263.90625 Z M 138.953125 -264.375 L 139.875 -264.375 L 139.875 -262.5 L 138.953125 -262.5 Z M 162.265625 -254.109375 L 163.1875 -255.984375 L 164.125 -255.984375 L 163.1875 -253.65625 Z M 99.78125 -240.125 C 112.21875 -242.300781 121.539062 -243.390625 127.75 -243.390625 C 132.101562 -243.390625 135.835938 -242.300781 138.953125 -240.125 C 141.128906 -238.882812 142.21875 -235.929688 142.21875 -231.265625 C 142.21875 -228.472656 141.75 -224.742188 140.8125 -220.078125 C 138.945312 -213.234375 135.21875 -208.257812 129.625 -205.15625 C 119.675781 -199.25 104.441406 -194.273438 83.921875 -190.234375 L 88.125 -238.734375 Z M 167.859375 -222.40625 C 167.859375 -221.476562 167.546875 -220.703125 166.921875 -220.078125 L 165.984375 -220.546875 C 165.984375 -221.160156 166.609375 -221.78125 167.859375 -222.40625 Z M 82.53125 -217.28125 C 82.53125 -215.726562 81.597656 -214.484375 79.734375 -213.546875 L 80.65625 -211.6875 L 82.0625 -210.28125 C 82.0625 -210.28125 82.140625 -210.203125 82.296875 -210.046875 C 82.453125 -209.890625 82.53125 -209.8125 82.53125 -209.8125 L 81.59375 -207.953125 L 78.796875 -207.953125 C 77.867188 -207.953125 77.40625 -208.421875 77.40625 -209.359375 L 76.46875 -211.21875 C 78.332031 -212.457031 78.953125 -213.390625 78.328125 -214.015625 L 76.9375 -214.015625 L 76.46875 -214.484375 L 76 -214.484375 C 76 -215.109375 76.3125 -215.421875 76.9375 -215.421875 L 77.859375 -215.421875 L 77.40625 -216.34375 C 77.40625 -216.34375 77.328125 -216.5 77.171875 -216.8125 C 77.015625 -217.125 76.78125 -217.28125 76.46875 -217.28125 L 76.46875 -218.671875 C 76.46875 -218.984375 76.625 -219.140625 76.9375 -219.140625 L 76.9375 -220.078125 L 77.859375 -220.078125 L 79.265625 -221.015625 C 79.890625 -220.390625 80.203125 -220.078125 80.203125 -220.078125 L 82.0625 -218.21875 Z M 209.8125 -203.296875 C 209.195312 -202.671875 208.734375 -202.359375 208.421875 -202.359375 C 207.796875 -202.359375 207.484375 -202.203125 207.484375 -201.890625 C 207.171875 -201.890625 206.78125 -202.046875 206.3125 -202.359375 C 205.851562 -202.671875 205.625 -203.140625 205.625 -203.765625 C 205.625 -204.691406 206.242188 -205.15625 207.484375 -205.15625 L 208.421875 -205.15625 L 209.8125 -204.6875 Z M 78.796875 -201.890625 C 79.109375 -201.578125 79.726562 -201.113281 80.65625 -200.5 L 81.125 -198.625 L 76 -198.625 L 76.9375 -200.5 L 77.859375 -200.953125 Z M 141.75 -197.703125 C 142.363281 -198.316406 142.671875 -199.398438 142.671875 -200.953125 L 146.875 -200.953125 L 146.875 -199.5625 L 147.34375 -198.625 L 147.34375 -197.703125 Z M 135.21875 -197.703125 C 135.21875 -196.765625 135.835938 -196.296875 137.078125 -196.296875 C 134.597656 -194.742188 132.421875 -194.742188 130.546875 -196.296875 L 133.359375 -196.765625 C 134.285156 -197.390625 134.984375 -197.851562 135.453125 -198.15625 C 135.921875 -198.46875 135.84375 -198.316406 135.21875 -197.703125 Z M 79.265625 -196.296875 C 79.265625 -195.984375 79.421875 -195.828125 79.734375 -195.828125 L 79.734375 -195.359375 L 76.9375 -193.96875 C 75.6875 -194.28125 74.441406 -195.367188 73.203125 -197.234375 L 76.9375 -197.703125 L 77.859375 -197.234375 L 78.796875 -197.234375 L 79.265625 -196.765625 Z M 144.546875 -195.359375 C 144.546875 -195.359375 144.625 -195.28125 144.78125 -195.125 C 144.9375 -194.976562 145.015625 -194.90625 145.015625 -194.90625 L 145.015625 -193.96875 L 143.140625 -193.96875 C 142.210938 -193.96875 141.4375 -194.125 140.8125 -194.4375 C 140.8125 -194.75 141.195312 -195.132812 141.96875 -195.59375 C 142.75 -196.0625 143.609375 -196.296875 144.546875 -196.296875 Z M 152.9375 -186.96875 C 152 -186.039062 151.066406 -185.578125 150.140625 -185.578125 C 149.515625 -185.578125 148.582031 -185.265625 147.34375 -184.640625 C 147.34375 -185.265625 147.1875 -185.734375 146.875 -186.046875 L 145.9375 -186.5 L 145.015625 -187.4375 L 145.9375 -188.375 L 147.34375 -190.234375 C 148.894531 -191.171875 149.828125 -192.101562 150.140625 -193.03125 Z M 123.09375 -191.171875 L 123.09375 -192.5625 L 126.828125 -192.09375 L 126.828125 -190.234375 Z M 57.8125 -186.96875 C 57.5 -187.28125 56.878906 -187.4375 55.953125 -187.4375 L 55.015625 -187.90625 L 52.21875 -188.84375 C 52.21875 -189.769531 53.460938 -190.703125 55.953125 -191.640625 L 57.8125 -190.234375 Z M 124.953125 -189.765625 C 126.203125 -188.835938 126.203125 -187.75 124.953125 -186.5 L 124.03125 -186.5 L 123.09375 -186.96875 C 123.09375 -186.96875 123.015625 -187.046875 122.859375 -187.203125 C 122.703125 -187.359375 122.625 -187.4375 122.625 -187.4375 L 123.09375 -188.375 L 124.03125 -189.296875 Z M 48.03125 -185.578125 C 47.09375 -185.578125 46.3125 -185.734375 45.6875 -186.046875 L 46.625 -188.84375 C 46.9375 -188.84375 47.25 -188.765625 47.5625 -188.609375 C 47.875 -188.453125 48.179688 -188.375 48.484375 -188.375 L 50.359375 -188.375 L 50.359375 -185.578125 Z M 71.8125 -186.046875 C 71.8125 -186.347656 72.039062 -186.578125 72.5 -186.734375 C 72.96875 -186.890625 73.359375 -187.125 73.671875 -187.4375 L 73.671875 -185.578125 C 73.671875 -184.640625 73.515625 -183.863281 73.203125 -183.25 L 70.875 -184.640625 C 70.875 -184.953125 71.1875 -185.421875 71.8125 -186.046875 Z M 187.90625 -185.109375 C 188.21875 -185.421875 188.835938 -185.726562 189.765625 -186.03125 C 190.703125 -186.34375 191.632812 -186.5 192.5625 -186.5 L 194.4375 -186.5 L 195.828125 -186.046875 L 193.96875 -184.171875 Z M 186.046875 -184.171875 L 185.109375 -183.703125 L 184.640625 -185.109375 L 185.578125 -185.109375 Z M 146.875 -179.984375 L 146.875 -182.78125 L 149.203125 -182.78125 L 149.203125 -179.984375 Z M 141.75 -179.984375 C 143.925781 -179.046875 145.015625 -177.800781 145.015625 -176.25 L 140.8125 -176.25 C 141.4375 -177.488281 141.75 -178.734375 141.75 -179.984375 Z M 190.234375 -179.046875 L 188.375 -178.109375 L 188.375 -179.046875 L 189.765625 -179.515625 Z M 122.625 -162.734375 C 122.007812 -162.109375 121.234375 -162.257812 120.296875 -163.1875 L 119.828125 -164.59375 C 119.828125 -165.832031 120.453125 -166.453125 121.703125 -166.453125 C 122.628906 -166.453125 123.40625 -166.296875 124.03125 -165.984375 L 124.03125 -162.734375 Z M 154.328125 -159.46875 L 154.328125 -161.328125 C 154.640625 -161.328125 154.796875 -161.484375 154.796875 -161.796875 L 157.59375 -161.796875 L 156.671875 -159.46875 Z M 125.890625 -126.359375 C 124.335938 -126.359375 123.25 -127.132812 122.625 -128.6875 C 123.875 -128.6875 124.804688 -128.53125 125.421875 -128.21875 C 125.734375 -127.90625 125.890625 -127.285156 125.890625 -126.359375 Z M 98.84375 -123.09375 L 99.3125 -123.5625 C 106.15625 -125.113281 111.90625 -125.890625 116.5625 -125.890625 C 119.988281 -125.890625 122.632812 -125.425781 124.5 -124.5 C 130.09375 -121.070312 132.890625 -116.097656 132.890625 -109.578125 C 132.890625 -105.535156 131.800781 -101.492188 129.625 -97.453125 C 127.445312 -93.410156 124.804688 -90.144531 121.703125 -87.65625 C 116.097656 -83.300781 110.109375 -79.957031 103.734375 -77.625 C 97.367188 -75.300781 89.210938 -73.671875 79.265625 -72.734375 L 81.125 -119.359375 Z M 145.9375 -125.890625 L 146.875 -125.890625 L 146.875 -123.5625 L 145.9375 -123.5625 Z M 43.359375 -118.4375 C 43.359375 -117.5 42.894531 -116.71875 41.96875 -116.09375 L 41.96875 -120.296875 C 42.894531 -119.359375 43.359375 -118.738281 43.359375 -118.4375 Z M 44.296875 -112.375 C 44.296875 -112.375 44.21875 -112.296875 44.0625 -112.140625 C 43.90625 -111.984375 43.828125 -111.90625 43.828125 -111.90625 C 42.273438 -110.96875 41.65625 -109.878906 41.96875 -108.640625 C 42.28125 -108.328125 42.359375 -108.015625 42.203125 -107.703125 C 42.046875 -107.390625 41.96875 -107.082031 41.96875 -106.78125 C 41.65625 -107.082031 41.03125 -107.234375 40.09375 -107.234375 L 40.09375 -108.640625 C 41.34375 -109.566406 41.96875 -110.5 41.96875 -111.4375 C 41.03125 -112.375 41.492188 -113.148438 43.359375 -113.765625 L 43.828125 -113.765625 L 43.828125 -112.84375 C 44.140625 -112.84375 44.296875 -112.6875 44.296875 -112.375 Z M 43.359375 -102.109375 C 43.359375 -101.484375 43.125 -100.472656 42.65625 -99.078125 C 42.195312 -97.679688 41.65625 -96.671875 41.03125 -96.046875 C 41.03125 -96.046875 41.5 -95.582031 42.4375 -94.65625 C 42.4375 -94.65625 42.507812 -94.578125 42.65625 -94.421875 C 42.8125 -94.265625 42.890625 -94.1875 42.890625 -94.1875 L 41.96875 -93.71875 C 41.65625 -94.03125 41.03125 -94.1875 40.09375 -94.1875 L 40.09375 -99.78125 C 39.476562 -101.644531 39.476562 -103.351562 40.09375 -104.90625 L 41.96875 -104.90625 C 41.96875 -104.59375 42.273438 -104.128906 42.890625 -103.515625 Z M 61.078125 -102.578125 C 61.390625 -102.265625 61.46875 -101.953125 61.3125 -101.640625 C 61.15625 -101.328125 61.078125 -101.019531 61.078125 -100.71875 L 60.609375 -101.640625 C 60.609375 -102.265625 60.453125 -102.734375 60.140625 -103.046875 C 60.140625 -103.671875 60.453125 -104.132812 61.078125 -104.4375 Z M 41.96875 -85.796875 C 41.96875 -86.109375 41.8125 -86.335938 41.5 -86.484375 C 41.1875 -86.640625 41.03125 -86.71875 41.03125 -86.71875 C 40.71875 -86.71875 40.484375 -86.875 40.328125 -87.1875 C 40.171875 -87.5 40.09375 -87.65625 40.09375 -87.65625 L 41.96875 -87.65625 Z M 42.4375 -66.203125 C 42.125 -65.585938 41.96875 -64.347656 41.96875 -62.484375 C 40.71875 -62.484375 39.9375 -62.171875 39.625 -61.546875 C 40.25 -60.921875 40.71875 -60.609375 41.03125 -60.609375 C 41.65625 -60.609375 41.96875 -60.300781 41.96875 -59.6875 C 41.65625 -59.6875 41.5 -59.53125 41.5 -59.21875 L 41.03125 -58.75 L 39.171875 -60.609375 C 38.234375 -61.234375 37.765625 -61.703125 37.765625 -62.015625 L 38.234375 -63.875 L 38.703125 -65.28125 L 40.09375 -65.28125 L 41.5 -65.75 C 40.875 -66.363281 40.097656 -66.671875 39.171875 -66.671875 C 38.546875 -69.785156 38.234375 -73.050781 38.234375 -76.46875 C 38.234375 -77.09375 38.851562 -77.40625 40.09375 -77.40625 C 41.03125 -78.019531 41.5 -78.640625 41.5 -79.265625 L 41.5 -80.65625 C 41.5 -81.59375 41.65625 -82.21875 41.96875 -82.53125 L 42.4375 -74.609375 C 41.5 -74.609375 40.71875 -74.140625 40.09375 -73.203125 C 40.40625 -72.890625 40.875 -72.5 41.5 -72.03125 C 42.125 -71.570312 42.507812 -71.109375 42.65625 -70.640625 C 42.8125 -70.171875 42.890625 -69.625 42.890625 -69 Z M 121.703125 -69 C 121.078125 -68.382812 120.140625 -68.078125 118.890625 -68.078125 L 117.5 -69.46875 L 119.359375 -70.40625 L 121.234375 -71.34375 Z M 38.234375 -56.421875 L 38.234375 -57.8125 L 38.703125 -58.28125 L 40.09375 -58.28125 L 41.96875 -57.8125 L 41.96875 -55.015625 L 40.5625 -55.015625 Z M 59.21875 -25.640625 C 59.21875 -25.640625 59.140625 -25.71875 58.984375 -25.875 C 58.828125 -26.03125 58.75 -26.109375 58.75 -26.109375 L 58.75 -27.046875 C 58.75 -27.972656 59.054688 -28.976562 59.671875 -30.0625 C 60.296875 -31.15625 60.921875 -32.015625 61.546875 -32.640625 L 61.546875 -34.5 L 61.078125 -36.375 L 61.546875 -36.828125 C 61.546875 -37.140625 61.703125 -37.296875 62.015625 -37.296875 C 61.078125 -39.785156 61.234375 -41.960938 62.484375 -43.828125 C 63.722656 -46.316406 64.34375 -49.269531 64.34375 -52.6875 L 65.28125 -55.484375 C 65.894531 -56.722656 66.515625 -57.65625 67.140625 -58.28125 L 67.140625 -25.640625 Z M 39.625 -47.5625 L 38.703125 -47.5625 L 38.703125 -49.421875 L 39.625 -49.421875 Z M 39.625 -43.359375 L 38.703125 -43.359375 L 38.703125 -44.765625 L 39.625 -44.765625 Z M 39.171875 -34.96875 C 37.921875 -34.65625 36.832031 -34.65625 35.90625 -34.96875 L 35.90625 -36.828125 L 39.171875 -36.828125 Z M 56.890625 -28.90625 C 56.890625 -28.28125 56.578125 -27.65625 55.953125 -27.03125 C 55.328125 -26.414062 55.015625 -25.796875 55.015625 -25.171875 C 55.328125 -24.867188 55.484375 -24.25 55.484375 -23.3125 C 55.484375 -22.070312 54.863281 -20.828125 53.625 -19.578125 L 52.6875 -19.109375 L 52.21875 -19.109375 C 51.90625 -19.421875 51.75 -20.359375 51.75 -21.921875 C 51.75 -23.785156 52.0625 -24.71875 52.6875 -24.71875 C 53.3125 -24.71875 54.242188 -26.269531 55.484375 -29.375 C 55.796875 -29.375 55.953125 -29.21875 55.953125 -28.90625 Z M 56.890625 -28.90625 "/></g></g></g><g fill="#f7f2eb" fill-opacity="1"><g transform="translate(718.516914, 884.016261)"><g><path d="M 238.265625 29.375 C 241.054688 29.375 243.304688 28.285156 245.015625 26.109375 C 246.734375 23.929688 247.4375 21.445312 247.125 18.65625 L 245.71875 3.265625 C 245.40625 -2.328125 242.296875 -5.125 236.390625 -5.125 C 146.242188 -2.945312 68.847656 0.3125 4.203125 4.65625 C 1.710938 4.96875 -0.617188 6.210938 -2.796875 8.390625 C -4.035156 9.640625 -4.65625 11.972656 -4.65625 15.390625 L -2.328125 40.5625 C -1.398438 46.78125 2.171875 49.578125 8.390625 48.953125 C 25.796875 47.085938 44.132812 44.757812 63.40625 41.96875 C 87.03125 38.539062 110.03125 35.894531 132.40625 34.03125 C 154.789062 32.164062 190.078125 30.613281 238.265625 29.375 Z M 238.265625 29.375 "/></g></g></g><g fill="#f7f2eb" fill-opacity="1"><g transform="translate(966.104508, 884.016261)"><g><path d="M 270.4375 -9.328125 C 270.4375 -6.835938 269.503906 -4.660156 267.640625 -2.796875 C 265.773438 -0.929688 263.597656 0 261.109375 0 L 193.5 -1.40625 C 191.007812 -1.40625 188.753906 -2.410156 186.734375 -4.421875 C 184.710938 -6.441406 183.859375 -8.695312 184.171875 -11.1875 L 190.234375 -110.96875 L 165.53125 -59.6875 C 162.101562 -52.53125 158.523438 -46.390625 154.796875 -41.265625 C 151.066406 -36.140625 146.875 -32.488281 142.21875 -30.3125 C 138.175781 -27.820312 133.351562 -26.578125 127.75 -26.578125 C 121.84375 -26.578125 116.632812 -28.363281 112.125 -31.9375 C 107.625 -35.507812 104.441406 -40.71875 102.578125 -47.5625 L 84.859375 -101.640625 L 83 -108.171875 L 81.59375 -61.546875 L 80.65625 -61.078125 L 80.65625 -58.75 L 81.59375 -58.75 L 80.203125 -10.71875 C 80.203125 -7.613281 78.800781 -4.972656 76 -2.796875 C 75.375 -3.109375 74.128906 -3.265625 72.265625 -3.265625 L 59.6875 -3.265625 L 56.890625 -3.734375 L 54.09375 -4.65625 C 53.15625 -4.65625 52.140625 -4.34375 51.046875 -3.71875 C 49.960938 -3.101562 49.265625 -2.332031 48.953125 -1.40625 L 70.875 -1.40625 L 5.125 0 C 2.332031 0 0.00390625 -0.929688 -1.859375 -2.796875 C -3.722656 -4.660156 -4.65625 -6.992188 -4.65625 -9.796875 L 2.796875 -160.859375 L 7.453125 -254.578125 C 8.078125 -257.992188 8.078125 -260.484375 7.453125 -262.046875 L 9.796875 -310.0625 C 10.109375 -315.96875 13.210938 -319.078125 19.109375 -319.390625 L 55.953125 -320.796875 L 56.421875 -319.859375 C 56.734375 -319.546875 57.195312 -319.390625 57.8125 -319.390625 L 56.421875 -320.796875 L 58.75 -320.796875 C 70.875 -321.097656 80.820312 -317.832031 88.59375 -311 C 86.101562 -310.6875 82.375 -310.53125 77.40625 -310.53125 C 73.363281 -310.53125 69.320312 -311.148438 65.28125 -312.390625 C 64.34375 -312.390625 58.742188 -313.171875 48.484375 -314.734375 C 46.617188 -312.554688 44.753906 -311.46875 42.890625 -311.46875 L 36.375 -312.390625 C 33.882812 -313.015625 32.019531 -313.328125 30.78125 -313.328125 C 28.289062 -313.328125 26.113281 -312.394531 24.25 -310.53125 C 22.382812 -311.46875 20.984375 -311.9375 20.046875 -311.9375 C 19.421875 -311.9375 18.875 -311.78125 18.40625 -311.46875 C 17.945312 -311.15625 17.71875 -310.84375 17.71875 -310.53125 L 16.78125 -310.0625 C 16.78125 -310.0625 15.847656 -311.460938 13.984375 -314.265625 L 13.0625 -307.734375 C 15.539062 -308.046875 18.957031 -308.203125 23.3125 -308.203125 C 28.289062 -308.203125 32.644531 -307.890625 36.375 -307.265625 L 41.03125 -306.796875 C 42.582031 -306.796875 46.15625 -307.109375 51.75 -307.734375 L 53.625 -308.671875 L 55.484375 -308.671875 L 58.75 -309.140625 L 60.609375 -308.203125 C 70.554688 -307.265625 81.28125 -306.796875 92.78125 -306.796875 C 96.207031 -302.753906 99.160156 -297.472656 101.640625 -290.953125 L 101.640625 -290.484375 L 135.21875 -173.921875 L 191.171875 -306.796875 C 205.460938 -306.796875 221.78125 -307.265625 240.125 -308.203125 L 240.59375 -312.390625 C 228.15625 -311.148438 213.859375 -310.53125 197.703125 -310.53125 L 192.5625 -310.53125 L 195.359375 -316.125 L 195.828125 -318 L 196.296875 -317.53125 L 197.703125 -316.59375 C 199.253906 -317.21875 200.03125 -317.992188 200.03125 -318.921875 L 200.5 -319.859375 L 200.5 -321.25 C 201.738281 -321.875 202.976562 -322.1875 204.21875 -322.1875 L 224.28125 -322.1875 C 237.644531 -322.1875 247.742188 -318.769531 254.578125 -311.9375 C 264.210938 -302.300781 269.03125 -290.332031 269.03125 -276.03125 Z M 71.34375 -317.0625 L 71.8125 -315.65625 L 74.609375 -315.65625 L 75.53125 -317.53125 C 75.53125 -318.457031 74.910156 -318.921875 73.671875 -318.921875 C 73.046875 -318.304688 72.425781 -318 71.8125 -318 Z M 238.265625 -314.265625 C 234.222656 -315.191406 231.113281 -316.125 228.9375 -317.0625 L 225.671875 -318 C 226.296875 -317.0625 226.453125 -316.4375 226.140625 -316.125 Z M 210.75 -314.734375 C 210.125 -315.347656 209.503906 -315.65625 208.890625 -315.65625 C 207.953125 -315.65625 207.015625 -315.34375 206.078125 -314.71875 C 205.148438 -314.101562 204.53125 -313.484375 204.21875 -312.859375 C 204.84375 -312.242188 205.3125 -311.9375 205.625 -311.9375 C 205.625 -311.9375 205.703125 -311.859375 205.859375 -311.703125 C 206.015625 -311.546875 206.09375 -311.46875 206.09375 -311.46875 L 210.75 -312.859375 Z M 61.546875 -315.65625 C 61.859375 -315.351562 62.015625 -315.351562 62.015625 -315.65625 Z M 13.984375 -298.40625 L 13.0625 -299.34375 L 11.65625 -298.40625 Z M 13.0625 -290.953125 L 13.0625 -293.75 L 11.1875 -290.953125 Z M 100.25 -258.3125 C 100.25 -258.3125 99.625 -257.691406 98.375 -256.453125 L 96.046875 -253.65625 L 99.78125 -253.65625 C 100.09375 -254.269531 100.25 -255.046875 100.25 -255.984375 Z M 87.65625 -250.84375 L 90.921875 -250.84375 L 90.921875 -251.78125 L 87.65625 -251.78125 Z M 232.671875 -248.515625 C 231.734375 -249.140625 231.265625 -249.609375 231.265625 -249.921875 L 228 -249.921875 C 228 -248.984375 228.46875 -248.050781 229.40625 -247.125 L 231.265625 -247.125 Z M 217.75 -246.1875 C 217.75 -244.007812 216.503906 -242.609375 214.015625 -241.984375 C 214.640625 -241.367188 215.414062 -241.0625 216.34375 -241.0625 C 217.59375 -241.0625 219.148438 -241.523438 221.015625 -242.453125 L 221.015625 -245.25 Z M 95.125 -232.203125 L 91.859375 -234.0625 C 91.859375 -233.75 91.703125 -233.59375 91.390625 -233.59375 L 91.390625 -233.140625 L 90.921875 -232.671875 L 92.78125 -232.203125 Z M 232.203125 -225.203125 C 232.203125 -226.453125 231.269531 -227.226562 229.40625 -227.53125 L 228.46875 -226.609375 C 228.15625 -225.984375 227.691406 -225.671875 227.078125 -225.671875 C 227.378906 -224.742188 228.3125 -224.585938 229.875 -225.203125 Z M 13.984375 -175.3125 L 12.59375 -176.71875 L 13.984375 -173.921875 Z M 216.8125 -167.859375 L 216.8125 -167.390625 L 218.21875 -167.859375 L 219.609375 -167.859375 C 219.609375 -169.097656 218.832031 -169.71875 217.28125 -169.71875 L 215.875 -168.78125 Z M 134.28125 -164.125 C 134.28125 -162.882812 134.4375 -162.109375 134.75 -161.796875 C 135.0625 -161.484375 135.21875 -161.015625 135.21875 -160.390625 L 138.953125 -160.390625 L 139.875 -161.796875 C 139.875 -161.796875 139.796875 -161.875 139.640625 -162.03125 C 139.484375 -162.1875 139.40625 -162.265625 139.40625 -162.265625 L 138.953125 -162.734375 L 138.015625 -164.125 Z M 207.015625 -154.796875 C 205.460938 -154.179688 204.6875 -153.40625 204.6875 -152.46875 C 204.6875 -151.84375 204.84375 -151.53125 205.15625 -151.53125 L 205.625 -151.0625 C 205.625 -151.375 205.9375 -151.53125 206.5625 -151.53125 L 207.015625 -151.53125 Z M 128.6875 -150.140625 L 129.15625 -148.734375 L 130.09375 -148.265625 C 131.019531 -148.265625 131.484375 -149.046875 131.484375 -150.609375 L 126.828125 -151.0625 Z M 13.984375 -150.140625 L 12.59375 -150.140625 L 12.59375 -144.546875 L 13.984375 -144.546875 Z M 166.921875 -143.140625 L 166.921875 -143.609375 C 166.921875 -143.609375 167 -143.6875 167.15625 -143.84375 C 167.3125 -144 167.390625 -144.078125 167.390625 -144.078125 C 167.703125 -144.078125 167.859375 -144.390625 167.859375 -145.015625 C 167.859375 -146.566406 166.613281 -147.34375 164.125 -147.34375 C 162.882812 -147.34375 161.484375 -146.410156 159.921875 -144.546875 C 160.546875 -144.546875 160.859375 -144.078125 160.859375 -143.140625 C 161.171875 -142.828125 162.257812 -142.671875 164.125 -142.671875 Z M 141.28125 -137.546875 C 142.207031 -137.546875 142.828125 -137.703125 143.140625 -138.015625 L 144.078125 -138.015625 C 145.003906 -138.941406 144.847656 -140.1875 143.609375 -141.75 L 138.015625 -140.34375 L 136.15625 -139.875 L 137.546875 -138.953125 Z M 13.984375 -141.28125 L 12.59375 -141.28125 L 12.59375 -137.078125 L 13.984375 -137.078125 Z M 132.890625 -130.09375 L 135.21875 -130.09375 L 135.21875 -131.953125 L 132.890625 -131.953125 Z M 169.71875 -131.015625 L 165.53125 -131.015625 L 165.53125 -129.625 L 169.71875 -129.625 Z M 10.71875 -128.6875 C 10.101562 -128.375 9.945312 -128.0625 10.25 -127.75 C 10.5625 -127.445312 11.1875 -127.140625 12.125 -126.828125 L 12.125 -130.09375 C 12.125 -129.78125 11.65625 -129.3125 10.71875 -128.6875 Z M 12.125 -125.890625 C 12.125 -125.265625 11.347656 -124.644531 9.796875 -124.03125 C 10.410156 -122.78125 10.71875 -121.847656 10.71875 -121.234375 C 10.71875 -119.367188 10.566406 -118.125 10.265625 -117.5 L 10.265625 -115.640625 C 10.265625 -113.460938 11.039062 -111.90625 12.59375 -110.96875 Z M 137.546875 -116.09375 L 138.953125 -116.09375 L 141.28125 -117.03125 L 139.875 -118.4375 C 139.875 -118.4375 139.566406 -118.742188 138.953125 -119.359375 C 138.328125 -118.742188 136.769531 -118.4375 134.28125 -118.4375 L 135.6875 -115.640625 Z M 155.265625 -113.765625 C 156.503906 -114.078125 157.125 -114.703125 157.125 -115.640625 C 157.125 -115.941406 156.816406 -116.40625 156.203125 -117.03125 L 155.734375 -117.03125 L 155.265625 -117.5 L 152.46875 -117.5 C 150.914062 -116.5625 150.140625 -115.785156 150.140625 -115.171875 C 150.140625 -114.546875 150.445312 -113.921875 151.0625 -113.296875 C 151.6875 -112.679688 152.3125 -112.375 152.9375 -112.375 Z M 146.875 -103.046875 C 147.5 -102.734375 148.273438 -102.65625 149.203125 -102.8125 C 150.140625 -102.96875 151.226562 -103.046875 152.46875 -103.046875 C 150.914062 -105.535156 149.363281 -106.78125 147.8125 -106.78125 C 147.5 -106.78125 146.097656 -106 143.609375 -104.4375 L 145.015625 -103.046875 Z M 164.125 -102.109375 C 164.75 -102.734375 165.0625 -103.203125 165.0625 -103.515625 C 165.0625 -104.441406 164.128906 -105.53125 162.265625 -106.78125 C 161.015625 -105.84375 159.84375 -104.671875 158.75 -103.265625 C 157.664062 -101.867188 157.125 -100.707031 157.125 -99.78125 C 157.125 -98.539062 157.28125 -97.765625 157.59375 -97.453125 C 158.21875 -96.515625 159.304688 -96.046875 160.859375 -96.046875 C 162.109375 -96.046875 162.882812 -96.515625 163.1875 -97.453125 C 163.1875 -98.378906 163.34375 -99.15625 163.65625 -99.78125 C 163.65625 -100.40625 163.5 -100.71875 163.1875 -100.71875 L 163.1875 -102.109375 Z M 9.796875 -46.15625 L 11.1875 -74.140625 L 13.984375 -105.375 L 9.796875 -106.3125 L 9.796875 -93.25 C 9.796875 -91.070312 8.863281 -89.050781 7 -87.1875 L 4.65625 -85.328125 C 4.039062 -84.703125 3.734375 -84.859375 3.734375 -85.796875 L 4.65625 -66.671875 L 6.0625 -54.546875 L 7.921875 -44.296875 C 8.546875 -39.941406 8.859375 -36.367188 8.859375 -33.578125 C 8.859375 -29.835938 8.390625 -25.796875 7.453125 -21.453125 C 6.835938 -19.585938 6.53125 -17.875 6.53125 -16.3125 L 7 -11.1875 C 7.300781 -10.257812 7.453125 -9.25 7.453125 -8.15625 C 7.453125 -7.070312 7.609375 -6.0625 7.921875 -5.125 L 12.59375 -11.1875 Z M 143.140625 -97.453125 C 143.140625 -97.765625 142.75 -98.148438 141.96875 -98.609375 C 141.195312 -99.078125 140.5 -99.3125 139.875 -99.3125 L 139.875 -97.453125 L 140.34375 -96.984375 C 141.28125 -96.984375 141.90625 -97.140625 142.21875 -97.453125 Z M 135.21875 -90.453125 C 135.53125 -90.453125 135.835938 -90.609375 136.140625 -90.921875 C 136.453125 -91.234375 136.457031 -91.390625 136.15625 -91.390625 C 135.53125 -91.390625 135.21875 -91.234375 135.21875 -90.921875 Z M 221.46875 -70.875 L 220.078125 -71.8125 C 219.453125 -72.425781 218.832031 -72.734375 218.21875 -72.734375 C 216.96875 -72.734375 216.035156 -71.957031 215.421875 -70.40625 C 215.421875 -70.40625 215.726562 -70.09375 216.34375 -69.46875 C 216.96875 -68.851562 217.742188 -68.546875 218.671875 -68.546875 C 218.984375 -68.546875 219.453125 -68.851562 220.078125 -69.46875 Z M 249.921875 -60.609375 C 249.921875 -61.546875 249.609375 -62.015625 248.984375 -62.015625 C 248.359375 -62.015625 247.582031 -61.546875 246.65625 -60.609375 Z M 140.34375 -55.015625 C 137.851562 -55.015625 135.675781 -55.640625 133.8125 -56.890625 C 132.570312 -57.503906 131.796875 -57.8125 131.484375 -57.8125 C 130.859375 -57.8125 130.3125 -57.578125 129.84375 -57.109375 C 129.382812 -56.648438 129.15625 -56.265625 129.15625 -55.953125 C 131.957031 -54.710938 133.664062 -53.9375 134.28125 -53.625 L 136.609375 -52.21875 C 137.234375 -51.601562 138.015625 -51.296875 138.953125 -51.296875 L 140.34375 -52.21875 Z M 151.53125 -50.828125 L 150.140625 -52.6875 C 150.140625 -52.6875 149.515625 -53.304688 148.265625 -54.546875 C 147.335938 -54.242188 146.875 -53.46875 146.875 -52.21875 C 147.5 -51.601562 148.195312 -51.140625 148.96875 -50.828125 C 149.75 -50.515625 150.296875 -50.203125 150.609375 -49.890625 Z M 71.8125 -50.359375 C 71.8125 -48.804688 73.050781 -48.03125 75.53125 -48.03125 C 76.78125 -48.03125 77.40625 -48.804688 77.40625 -50.359375 C 77.40625 -51.597656 76.625 -52.21875 75.0625 -52.21875 C 72.894531 -52.21875 71.8125 -51.597656 71.8125 -50.359375 Z M 56.421875 -46.625 L 55.953125 -47.09375 L 53.625 -47.09375 C 53.625 -47.09375 53.546875 -47.015625 53.390625 -46.859375 C 53.234375 -46.703125 53.15625 -46.625 53.15625 -46.625 L 53.15625 -45.6875 C 53.15625 -44.757812 53.773438 -44.296875 55.015625 -44.296875 C 55.953125 -44.921875 56.421875 -45.382812 56.421875 -45.6875 Z M 138.953125 -40.09375 C 138.015625 -40.09375 137.546875 -39.628906 137.546875 -38.703125 L 138.953125 -38.234375 Z M 138.953125 -34.03125 L 138.015625 -34.03125 L 138.015625 -32.171875 L 138.953125 -31.703125 Z M 48.03125 -31.703125 C 48.03125 -32.953125 47.5625 -33.578125 46.625 -33.578125 C 46 -33.578125 45.296875 -33.421875 44.515625 -33.109375 C 43.742188 -32.796875 43.203125 -32.484375 42.890625 -32.171875 C 44.140625 -30.929688 45.695312 -30.3125 47.5625 -30.3125 C 47.5625 -30.625 47.71875 -30.78125 48.03125 -30.78125 Z M 76.46875 -16.78125 L 76.46875 -18.65625 L 78.796875 -20.515625 L 77.40625 -20.984375 L 76 -21.453125 C 74.445312 -21.453125 73.671875 -21.140625 73.671875 -20.515625 L 73.671875 -19.578125 C 74.910156 -18.335938 75.375 -17.25 75.0625 -16.3125 C 74.757812 -15.382812 75.691406 -14.921875 77.859375 -14.921875 L 78.796875 -14.921875 L 78.796875 -15.390625 C 78.484375 -15.703125 78.019531 -15.859375 77.40625 -15.859375 Z M 76.46875 -16.78125 "/></g></g></g><g fill="#f7f2eb" fill-opacity="1"><g transform="translate(1258.91997, 884.016261)"><g><path d="M 212.15625 -324.984375 C 215.257812 -324.984375 217.742188 -324.050781 219.609375 -322.1875 C 221.472656 -320.320312 222.40625 -317.992188 222.40625 -315.203125 L 221.015625 -259.703125 C 220.390625 -253.796875 217.4375 -250.691406 212.15625 -250.390625 L 83.921875 -236.859375 L 80.65625 -198.15625 L 176.71875 -203.296875 L 176.71875 -157.59375 L 178.578125 -157.59375 L 178.578125 -203.296875 C 181.066406 -203.296875 183.320312 -202.363281 185.34375 -200.5 C 187.363281 -198.632812 188.375 -196.457031 188.375 -193.96875 L 188.375 -145.46875 C 188.375 -140.1875 185.726562 -137.082031 180.4375 -136.15625 L 78.328125 -122.625 L 76 -83.921875 L 200.5 -87.65625 C 203.289062 -87.65625 205.617188 -86.722656 207.484375 -84.859375 C 209.347656 -82.992188 210.28125 -80.816406 210.28125 -78.328125 L 210.28125 -19.578125 C 210.28125 -13.671875 207.328125 -10.566406 201.421875 -10.265625 L 5.125 0 C 2.332031 0 0.00390625 -0.851562 -1.859375 -2.5625 C -3.722656 -4.269531 -4.65625 -6.679688 -4.65625 -9.796875 C -4.039062 -55.796875 -2.644531 -103.664062 -0.46875 -153.40625 C 1.707031 -199.09375 5.59375 -250.535156 11.1875 -307.734375 C 12.125 -313.328125 15.234375 -316.125 20.515625 -316.125 Z M 79.265625 -314.734375 L 80.203125 -314.734375 L 80.203125 -316.125 L 79.265625 -316.125 Z M 109.578125 -311.9375 C 109.265625 -311.625 109.1875 -311.390625 109.34375 -311.234375 C 109.5 -311.078125 109.882812 -311 110.5 -311 C 109.882812 -311 109.578125 -311.3125 109.578125 -311.9375 Z M 118.4375 -304 C 119.050781 -304.625 119.359375 -305.25 119.359375 -305.875 C 119.359375 -307.113281 118.425781 -307.734375 116.5625 -307.734375 C 114.695312 -307.734375 113.300781 -307.113281 112.375 -305.875 L 110.96875 -304 C 111.90625 -304.625 112.375 -305.25 112.375 -305.875 L 114.703125 -306.34375 C 116.566406 -306.03125 117.5 -305.25 117.5 -304 L 117.5 -302.140625 C 117.5 -302.765625 117.8125 -303.382812 118.4375 -304 Z M 188.375 -307.265625 L 187.4375 -307.265625 L 187.4375 -305.875 L 188.375 -305.875 Z M 55.953125 -304.46875 L 65.75 -304.46875 L 65.75 -305.875 L 55.953125 -305.875 Z M 89.515625 -305.875 L 83 -305.875 L 83 -305.40625 L 82.0625 -305.40625 C 80.507812 -304.78125 79.734375 -304.3125 79.734375 -304 L 83 -304 L 83.46875 -304.46875 L 89.515625 -304.46875 Z M 74.140625 -304 L 75.53125 -304 L 75.53125 -304.9375 L 74.140625 -304.9375 Z M 151.53125 -304 L 147.8125 -304 L 147.8125 -302.140625 L 151.53125 -302.140625 Z M 96.046875 -302.140625 C 95.429688 -302.140625 95.125 -301.363281 95.125 -299.8125 C 95.125 -299.8125 95.742188 -300.429688 96.984375 -301.671875 C 97.910156 -302.609375 97.597656 -302.765625 96.046875 -302.140625 Z M 126.828125 -300.734375 L 124.953125 -300.734375 L 124.953125 -299.8125 L 126.828125 -299.8125 Z M 51.75 -292.8125 L 52.21875 -290.953125 L 52.21875 -290.015625 L 54.09375 -290.015625 C 54.09375 -290.328125 54.398438 -290.796875 55.015625 -291.421875 C 55.640625 -292.035156 55.953125 -292.34375 55.953125 -292.34375 Z M 108.640625 -286.28125 C 107.085938 -286.90625 106.3125 -287.53125 106.3125 -288.15625 L 106.3125 -288.625 L 108.640625 -290.953125 L 106.78125 -290.015625 L 105.84375 -290.015625 C 105.53125 -290.015625 105.296875 -289.9375 105.140625 -289.78125 C 104.984375 -289.625 104.75 -289.546875 104.4375 -289.546875 L 103.515625 -289.546875 C 101.953125 -288.929688 100.707031 -287.691406 99.78125 -285.828125 L 100.71875 -284.890625 L 106.3125 -284.890625 C 106.625 -284.890625 106.851562 -284.96875 107 -285.125 C 107.15625 -285.28125 107.234375 -285.359375 107.234375 -285.359375 L 107.703125 -285.359375 Z M 124.5 -284.890625 L 124.953125 -284.890625 L 125.421875 -284.421875 L 125.890625 -285.828125 L 124.5 -285.828125 Z M 97.921875 -281.625 L 96.984375 -284.421875 C 94.492188 -283.484375 93.25 -282.550781 93.25 -281.625 C 94.1875 -281.3125 94.8125 -281.3125 95.125 -281.625 Z M 118.4375 -277.890625 C 118.4375 -278.515625 117.65625 -279.445312 116.09375 -280.6875 L 114.703125 -277.890625 Z M 137.546875 -277.421875 C 137.546875 -277.734375 137.234375 -278.203125 136.609375 -278.828125 L 135.6875 -279.765625 C 133.195312 -278.828125 131.953125 -277.894531 131.953125 -276.96875 Z M 106.3125 -276.96875 C 104.445312 -277.894531 103.046875 -278.359375 102.109375 -278.359375 C 100.554688 -278.359375 99.78125 -277.582031 99.78125 -276.03125 L 102.109375 -274.625 L 103.515625 -274.171875 L 103.984375 -274.171875 C 104.597656 -274.171875 104.90625 -274.632812 104.90625 -275.5625 Z M 124.5 -273.234375 C 125.113281 -272.609375 125.890625 -272.609375 126.828125 -273.234375 C 126.828125 -275.097656 126.203125 -276.1875 124.953125 -276.5 L 121.234375 -275.5625 L 122.15625 -273.234375 Z M 26.578125 -274.625 L 26.109375 -274.625 L 25.171875 -274.171875 L 26.109375 -273.703125 Z M 113.296875 -270.4375 C 114.234375 -270.4375 114.703125 -271.054688 114.703125 -272.296875 C 114.703125 -273.546875 113.925781 -274.171875 112.375 -274.171875 L 111.4375 -273.703125 L 110.96875 -273.703125 L 110.5 -273.234375 C 109.882812 -272.609375 109.578125 -271.984375 109.578125 -271.359375 L 110.03125 -270.4375 Z M 182.78125 -273.703125 L 181.84375 -273.703125 L 181.84375 -271.359375 L 182.78125 -271.359375 Z M 112.375 -250.84375 L 111.4375 -250.84375 L 111.4375 -249.453125 L 112.375 -249.453125 Z M 74.609375 -249.453125 C 73.984375 -249.453125 73.671875 -248.984375 73.671875 -248.046875 L 74.609375 -248.046875 L 75.0625 -248.515625 C 74.757812 -248.515625 74.609375 -248.828125 74.609375 -249.453125 Z M 71.8125 -226.609375 C 71.1875 -225.984375 70.875 -225.671875 70.875 -225.671875 L 73.203125 -225.203125 C 73.515625 -225.515625 73.515625 -226.289062 73.203125 -227.53125 C 72.890625 -227.53125 72.425781 -227.222656 71.8125 -226.609375 Z M 74.140625 -217.28125 L 74.609375 -217.75 L 72.265625 -218.21875 L 72.265625 -217.75 Z M 76.9375 -198.625 L 79.265625 -198.625 L 79.265625 -200.953125 L 76.9375 -200.953125 Z M 78.328125 -192.5625 C 77.398438 -192.5625 76.78125 -192.71875 76.46875 -193.03125 L 74.609375 -193.5 L 74.140625 -193.03125 C 73.203125 -192.71875 72.734375 -192.097656 72.734375 -191.171875 C 72.734375 -189.617188 73.976562 -188.84375 76.46875 -188.84375 C 77.394531 -188.84375 78.015625 -188.992188 78.328125 -189.296875 Z M 113.765625 -189.765625 L 114.234375 -189.765625 L 114.234375 -190.234375 Z M 180.4375 -183.703125 C 181.375 -183.703125 182.15625 -183.550781 182.78125 -183.25 L 185.109375 -182.78125 L 186.96875 -185.109375 L 186.96875 -188.84375 C 186.65625 -189.144531 186.109375 -189.453125 185.328125 -189.765625 C 184.554688 -190.078125 183.863281 -190.234375 183.25 -190.234375 L 180.4375 -188.375 Z M 116.09375 -189.296875 L 117.03125 -189.765625 L 116.09375 -189.765625 Z M 103.984375 -184.640625 L 106.3125 -182.78125 C 106.925781 -183.09375 107.3125 -183.632812 107.46875 -184.40625 C 107.625 -185.1875 107.394531 -185.734375 106.78125 -186.046875 Z M 116.09375 -184.171875 L 117.96875 -183.25 L 118.890625 -186.046875 L 117.03125 -186.046875 Z M 88.59375 -180.90625 C 90.457031 -181.53125 90.457031 -182.460938 88.59375 -183.703125 Z M 81.59375 -178.109375 L 83.46875 -176.25 L 85.796875 -175.78125 L 86.265625 -176.25 L 87.1875 -176.25 L 87.1875 -178.578125 C 85.945312 -178.578125 85.015625 -178.890625 84.390625 -179.515625 L 83.46875 -179.046875 C 83.46875 -179.046875 83.390625 -178.96875 83.234375 -178.8125 C 83.078125 -178.65625 83 -178.578125 83 -178.578125 Z M 103.984375 -178.578125 L 104.90625 -176.71875 L 108.171875 -176.71875 L 106.78125 -177.640625 L 104.90625 -179.046875 Z M 73.203125 -177.1875 C 72.890625 -177.488281 72.265625 -177.796875 71.328125 -178.109375 C 70.398438 -178.421875 69.625 -178.578125 69 -178.578125 C 69 -177.953125 69.46875 -177.332031 70.40625 -176.71875 C 71.03125 -176.09375 72.429688 -175.78125 74.609375 -175.78125 L 76 -175.78125 L 76 -177.1875 Z M 103.046875 -171.578125 L 106.78125 -171.578125 C 107.394531 -171.890625 107.703125 -172.359375 107.703125 -172.984375 L 107.703125 -174.84375 L 103.984375 -174.84375 L 103.515625 -172.984375 Z M 69.9375 -168.78125 C 69.9375 -168.476562 70.015625 -168.25 70.171875 -168.09375 C 70.328125 -167.9375 70.5625 -168.015625 70.875 -168.328125 L 72.265625 -168.78125 L 71.34375 -169.25 L 70.875 -169.25 C 70.25 -169.25 69.9375 -169.09375 69.9375 -168.78125 Z M 64.34375 -159.921875 C 65.894531 -159.921875 66.984375 -160.234375 67.609375 -160.859375 C 66.984375 -160.859375 66.363281 -161.171875 65.75 -161.796875 L 65.28125 -162.265625 L 62.953125 -162.265625 C 62.015625 -161.328125 61.546875 -160.394531 61.546875 -159.46875 Z M 70.875 -157.59375 C 69.320312 -157.59375 67.144531 -157.90625 64.34375 -158.53125 L 62.953125 -157.59375 L 64.34375 -155.734375 C 64.96875 -157.285156 65.742188 -157.75 66.671875 -157.125 C 68.535156 -157.125 69.9375 -157.28125 70.875 -157.59375 Z M 50.828125 -157.59375 C 49.890625 -157.28125 49.421875 -156.660156 49.421875 -155.734375 L 50.828125 -154.796875 L 52.6875 -155.265625 C 52.6875 -155.890625 53.15625 -156.359375 54.09375 -156.671875 L 52.6875 -157.125 Z M 177.640625 -145.015625 L 179.515625 -147.34375 L 180.4375 -149.203125 L 179.515625 -152.46875 C 179.203125 -152.78125 178.578125 -154.179688 177.640625 -156.671875 Z M 70.40625 -149.203125 C 70.40625 -149.828125 71.335938 -151.382812 73.203125 -153.875 L 71.34375 -154.328125 L 69.46875 -154.328125 C 68.539062 -154.328125 67.609375 -154.019531 66.671875 -153.40625 L 62.953125 -152 C 63.878906 -151.6875 64.726562 -151.375 65.5 -151.0625 C 66.28125 -150.757812 66.828125 -150.453125 67.140625 -150.140625 C 66.515625 -148.585938 66.359375 -147.5 66.671875 -146.875 L 70.875 -147.8125 Z M 57.8125 -150.140625 C 58.75 -149.515625 59.523438 -149.515625 60.140625 -150.140625 L 59.6875 -150.609375 L 58.75 -151.0625 L 57.8125 -150.609375 Z M 72.734375 -150.609375 C 73.046875 -149.671875 73.4375 -149.046875 73.90625 -148.734375 C 74.375 -148.421875 75.070312 -148.265625 76 -148.265625 C 76.3125 -148.265625 77.398438 -148.578125 79.265625 -149.203125 L 77.859375 -150.609375 Z M 58.75 -149.203125 C 56.882812 -148.273438 56.414062 -147.5 57.34375 -146.875 L 57.8125 -145.015625 C 59.0625 -145.015625 59.992188 -145.320312 60.609375 -145.9375 C 60.609375 -147.1875 59.988281 -148.273438 58.75 -149.203125 Z M 79.734375 -144.546875 L 77.40625 -144.546875 C 76.46875 -144.546875 76 -144.234375 76 -143.609375 C 76 -142.984375 75.6875 -142.671875 75.0625 -142.671875 C 75.0625 -144.234375 74.597656 -145.164062 73.671875 -145.46875 L 70.875 -145.46875 C 70.875 -144.851562 71.1875 -144.546875 71.8125 -144.546875 L 73.203125 -143.140625 L 69.9375 -141.75 L 67.609375 -139.875 C 67.921875 -139.5625 68.304688 -139.40625 68.765625 -139.40625 C 69.234375 -139.40625 69.625 -139.253906 69.9375 -138.953125 L 73.671875 -138.953125 C 74.910156 -138.953125 76.929688 -139.570312 79.734375 -140.8125 Z M 62.953125 -142.671875 C 62.015625 -142.671875 61.234375 -142.125 60.609375 -141.03125 C 59.992188 -139.945312 59.6875 -138.941406 59.6875 -138.015625 L 59.6875 -135.6875 C 61.238281 -134.4375 62.632812 -133.8125 63.875 -133.8125 L 65.28125 -133.8125 L 66.671875 -134.75 L 66.671875 -140.8125 L 64.8125 -142.21875 Z M 55.484375 -140.34375 C 55.171875 -140.34375 54.703125 -140.109375 54.078125 -139.640625 C 53.460938 -139.179688 53.15625 -138.796875 53.15625 -138.484375 C 54.394531 -138.171875 55.484375 -138.171875 56.421875 -138.484375 Z M 159 -137.546875 L 164.59375 -137.546875 L 164.59375 -138.953125 L 159 -138.953125 Z M 77.40625 -136.15625 C 78.019531 -136.15625 78.328125 -136.617188 78.328125 -137.546875 L 75.53125 -137.546875 L 74.609375 -136.15625 Z M 51.75 -135.6875 C 50.195312 -135.375 49.421875 -134.75 49.421875 -133.8125 L 51.75 -133.8125 C 52.0625 -134.125 52.0625 -134.75 51.75 -135.6875 Z M 73.203125 -132.890625 C 73.828125 -132.578125 74.757812 -132.421875 76 -132.421875 C 76 -133.347656 75.378906 -134.125 74.140625 -134.75 Z M 59.6875 -132.890625 C 58.4375 -131.640625 57.8125 -130.707031 57.8125 -130.09375 L 62.015625 -129.625 L 62.953125 -131.484375 C 62.328125 -132.109375 62.015625 -132.578125 62.015625 -132.890625 Z M 67.609375 -129.15625 L 67.140625 -131.953125 C 65.585938 -131.953125 64.8125 -131.332031 64.8125 -130.09375 L 64.8125 -128.21875 Z M 76.46875 -128.21875 C 76.46875 -128.84375 76.15625 -129.15625 75.53125 -129.15625 L 74.609375 -130.09375 C 73.984375 -129.78125 72.582031 -129.625 70.40625 -129.625 L 68.546875 -129.15625 L 67.609375 -128.6875 L 69.9375 -126.828125 C 71.800781 -127.441406 72.890625 -127.75 73.203125 -127.75 Z M 69 -123.5625 L 70.40625 -124.5 L 66.671875 -125.421875 L 66.671875 -123.5625 Z M 65.75 -123.5625 C 64.5 -124.1875 63.253906 -124.5 62.015625 -124.5 L 62.953125 -122.625 C 64.191406 -122.625 65.125 -122.9375 65.75 -123.5625 Z M 60.140625 -120.765625 C 60.140625 -120.453125 59.832031 -119.984375 59.21875 -119.359375 L 64.34375 -118.890625 C 64.96875 -118.890625 65.28125 -119.359375 65.28125 -120.296875 Z M 55.484375 -117.5 C 56.109375 -116.5625 57.039062 -116.09375 58.28125 -116.09375 L 56.421875 -119.828125 L 53.15625 -119.359375 Z M 63.40625 -113.296875 C 62.789062 -114.546875 62.640625 -115.328125 62.953125 -115.640625 C 63.253906 -116.566406 63.253906 -117.1875 62.953125 -117.5 L 61.546875 -116.09375 C 61.234375 -116.09375 61.078125 -115.785156 61.078125 -115.171875 L 61.078125 -113.296875 Z M 72.734375 -114.234375 C 74.285156 -114.234375 75.0625 -114.851562 75.0625 -116.09375 L 72.734375 -116.09375 Z M 48.03125 -115.640625 C 47.09375 -115.328125 46.625 -114.859375 46.625 -114.234375 L 49.421875 -113.296875 C 49.421875 -113.921875 49.578125 -114.390625 49.890625 -114.703125 L 50.359375 -115.171875 Z M 61.078125 -112.375 L 61.078125 -110.5 L 62.484375 -110.5 L 62.484375 -112.375 Z M 63.40625 -111.4375 C 63.40625 -110.8125 63.5625 -110.5 63.875 -110.5 L 64.34375 -109.578125 L 67.609375 -110.5 C 67.296875 -110.5 67.140625 -110.8125 67.140625 -111.4375 L 67.140625 -111.90625 C 66.515625 -111.90625 66.046875 -111.828125 65.734375 -111.671875 C 65.429688 -111.515625 65.125 -111.4375 64.8125 -111.4375 Z M 70.875 -107.234375 L 68.078125 -107.234375 L 68.078125 -105.375 L 70.875 -105.375 Z M 44.296875 -104.4375 C 43.671875 -103.507812 43.828125 -102.578125 44.765625 -101.640625 C 46.316406 -102.265625 47.09375 -103.195312 47.09375 -104.4375 Z M 54.09375 -101.171875 L 55.015625 -100.71875 C 55.640625 -100.71875 56.109375 -100.867188 56.421875 -101.171875 L 55.953125 -103.515625 L 55.015625 -103.515625 C 55.015625 -103.515625 54.9375 -103.4375 54.78125 -103.28125 C 54.625 -103.125 54.546875 -103.046875 54.546875 -103.046875 L 53.625 -103.046875 L 53.625 -101.171875 Z M 44.296875 -93.71875 C 45.535156 -93.71875 46.3125 -93.875 46.625 -94.1875 C 46.625 -94.5 46.703125 -94.734375 46.859375 -94.890625 C 47.015625 -95.046875 47.25 -95.273438 47.5625 -95.578125 L 46.15625 -96.515625 L 43.828125 -95.578125 Z M 57.8125 -94.65625 L 55.484375 -94.65625 L 55.484375 -94.1875 L 57.34375 -93.71875 Z M 50.359375 -89.0625 C 50.984375 -88.4375 51.757812 -88.125 52.6875 -88.125 L 52.6875 -89.515625 C 52.6875 -89.515625 52.6875 -89.984375 52.6875 -90.921875 C 51.757812 -90.921875 50.984375 -90.300781 50.359375 -89.0625 Z M 91.390625 -71.34375 L 95.125 -71.34375 L 95.125 -72.265625 L 91.390625 -72.265625 Z M 110.03125 -70.875 C 108.476562 -69.9375 107.703125 -69.46875 107.703125 -69.46875 C 108.640625 -69.15625 109.109375 -68.535156 109.109375 -67.609375 L 111.4375 -67.609375 C 112.0625 -68.234375 112.375 -68.695312 112.375 -69 L 112.84375 -69.9375 L 111.90625 -72.265625 C 111.90625 -71.960938 111.75 -71.65625 111.4375 -71.34375 C 111.125 -71.03125 110.65625 -70.875 110.03125 -70.875 Z M 136.609375 -69 L 137.546875 -69 L 138.015625 -69.9375 L 137.546875 -70.40625 Z M 96.984375 -69.9375 L 94.1875 -69.9375 L 94.1875 -69 L 96.984375 -69 Z M 118.4375 -66.203125 L 120.296875 -66.671875 C 120.296875 -66.984375 120.140625 -67.140625 119.828125 -67.140625 C 119.828125 -67.140625 119.515625 -67.453125 118.890625 -68.078125 Z M 91.390625 -65.28125 L 92.328125 -64.34375 C 93.878906 -64.96875 94.1875 -65.585938 93.25 -66.203125 C 92.632812 -66.203125 92.328125 -66.050781 92.328125 -65.75 L 91.390625 -65.75 Z M 107.703125 -64.34375 C 107.085938 -64.96875 106.3125 -65.28125 105.375 -65.28125 L 106.3125 -62.015625 C 106.3125 -62.015625 106.390625 -62.09375 106.546875 -62.25 C 106.703125 -62.40625 106.78125 -62.484375 106.78125 -62.484375 C 107.082031 -62.484375 107.234375 -62.789062 107.234375 -63.40625 C 107.546875 -63.40625 107.703125 -63.71875 107.703125 -64.34375 Z M 116.5625 -63.40625 C 115.007812 -62.789062 114.234375 -62.015625 114.234375 -61.078125 L 116.5625 -61.078125 C 116.5625 -61.703125 116.71875 -62.171875 117.03125 -62.484375 Z M 50.359375 -56.421875 L 50.359375 -53.625 C 50.359375 -53.625 50.671875 -53.929688 51.296875 -54.546875 L 53.15625 -56.421875 Z M 59.6875 -56.421875 C 59.6875 -55.484375 60.460938 -55.015625 62.015625 -55.015625 L 62.015625 -55.953125 C 62.015625 -56.265625 62.171875 -56.421875 62.484375 -56.421875 Z M 83.921875 -55.015625 L 84.859375 -53.15625 L 85.796875 -53.15625 L 84.390625 -55.015625 Z M 128.6875 -53.625 C 128.6875 -52.070312 129.460938 -51.296875 131.015625 -51.296875 L 131.953125 -52.6875 L 132.421875 -53.625 Z M 112.375 -52.6875 L 111.4375 -52.6875 L 110.96875 -51.296875 L 112.375 -51.296875 Z M 97.453125 -49.890625 C 97.453125 -49.890625 97.53125 -49.96875 97.6875 -50.125 C 97.84375 -50.28125 97.921875 -50.359375 97.921875 -50.359375 L 96.984375 -51.296875 L 96.046875 -51.296875 L 96.984375 -49.421875 C 96.984375 -49.421875 97.0625 -49.5 97.21875 -49.65625 C 97.375 -49.8125 97.453125 -49.890625 97.453125 -49.890625 Z M 56.890625 -44.765625 L 53.15625 -44.765625 L 53.15625 -42.4375 L 56.890625 -42.4375 Z M 13.984375 -34.5 C 13.984375 -36.050781 14.453125 -36.984375 15.390625 -37.296875 L 9.328125 -37.296875 L 9.328125 -34.5 Z M 183.703125 -35.4375 L 189.296875 -34.5 L 189.296875 -35.90625 L 184.640625 -37.296875 Z M 44.296875 -36.375 L 39.171875 -36.375 L 39.171875 -34.5 L 44.296875 -34.5 Z M 75.0625 -34.5 L 75.0625 -32.171875 L 78.796875 -32.171875 L 78.796875 -34.5 Z M 100.71875 -32.640625 C 100.40625 -32.015625 100.25 -30.769531 100.25 -28.90625 L 100.71875 -26.578125 L 107.234375 -26.578125 L 108.171875 -28.4375 C 108.484375 -28.75 108.640625 -29.375 108.640625 -30.3125 L 106.3125 -32.640625 Z M 28.90625 -30.3125 L 34.03125 -30.3125 L 34.03125 -32.171875 L 28.90625 -32.171875 Z M 49.421875 -20.515625 C 50.359375 -20.828125 51.132812 -21.679688 51.75 -23.078125 C 52.375 -24.472656 52.6875 -25.953125 52.6875 -27.515625 C 52.6875 -29.378906 52.222656 -30.773438 51.296875 -31.703125 C 50.671875 -31.703125 49.425781 -31.238281 47.5625 -30.3125 C 48.800781 -27.507812 49.421875 -24.242188 49.421875 -20.515625 Z M 2.796875 -27.046875 C 3.109375 -26.109375 3.960938 -25.71875 5.359375 -25.875 C 6.753906 -26.03125 7.765625 -26.421875 8.390625 -27.046875 Z M 22.375 -25.171875 L 21.453125 -25.171875 L 21.453125 -27.046875 L 17.25 -27.046875 L 17.25 -25.171875 L 21.453125 -25.171875 L 21.453125 -23.3125 L 22.375 -23.3125 Z M 70.875 -24.25 C 68.382812 -24.25 66.675781 -24.09375 65.75 -23.78125 L 62.953125 -22.84375 L 60.609375 -22.375 C 61.234375 -22.070312 61.851562 -21.53125 62.46875 -20.75 C 63.09375 -19.96875 63.5625 -19.269531 63.875 -18.65625 C 65.425781 -19.582031 66.984375 -20.820312 68.546875 -22.375 Z M 39.171875 -20.046875 C 39.785156 -20.984375 40.09375 -21.914062 40.09375 -22.84375 L 32.171875 -22.84375 L 32.171875 -18.65625 C 34.660156 -18.65625 36.835938 -18.34375 38.703125 -17.71875 Z M 124.5 -20.515625 L 127.75 -20.515625 L 127.75 -21.453125 L 124.5 -21.453125 Z M 183.703125 -14.453125 C 183.703125 -13.523438 183.394531 -13.0625 182.78125 -13.0625 C 183.707031 -13.0625 184.640625 -13.523438 185.578125 -14.453125 Z M 33.578125 -13.515625 L 29.84375 -13.515625 L 29.84375 -11.65625 L 33.578125 -11.65625 Z M 33.578125 -13.515625 "/></g></g></g></svg>