<svg xmlns="http://www.w3.org/2000/svg" xmlns:xlink="http://www.w3.org/1999/xlink" width="2000" zoomAndPan="magnify" viewBox="0 0 1500 1499.999933" height="2000" preserveAspectRatio="xMidYMid meet" version="1.0"><defs><g/><clipPath id="a64fcb2e11"><path d="M 0 175 L 204 175 L 204 497 L 0 497 Z M 0 175 " clip-rule="nonzero"/></clipPath><clipPath id="ba6d947dd7"><rect x="0" width="1500" y="0" height="636"/></clipPath></defs><g transform="matrix(1, 0, 0, 1, 0, 384)"><g clip-path="url(#ba6d947dd7)"><g clip-path="url(#a64fcb2e11)"><g fill="#ffffff" fill-opacity="1"><g transform="translate(0.00003335, 497.411517)"><g><path d="M 73.671875 -66.671875 C 59.367188 -71.953125 44.757812 -79.101562 29.84375 -88.125 C 28.289062 -89.050781 26.734375 -89.515625 25.171875 -89.515625 C 21.128906 -89.515625 18.332031 -87.648438 16.78125 -83.921875 L -3.734375 -42.890625 C -4.660156 -41.023438 -5.125 -39.316406 -5.125 -37.765625 C -5.125 -34.660156 -3.414062 -32.175781 0 -30.3125 C 31.394531 -13.207031 57.503906 -3.570312 78.328125 -1.40625 C 87.035156 -0.78125 93.5625 -0.46875 97.90625 -0.46875 C 116.5625 -0.46875 133.503906 -3.421875 148.734375 -9.328125 C 163.035156 -14.921875 174.535156 -24.085938 183.234375 -36.828125 C 191.941406 -49.578125 198.003906 -64.8125 201.421875 -82.53125 L 201.421875 -83 C 201.734375 -85.164062 201.890625 -88.582031 201.890625 -93.25 C 201.890625 -127.75 182.617188 -156.65625 144.078125 -179.96875 L 129.625 -188.828125 C 122.46875 -193.179688 116.25 -198 110.96875 -203.28125 C 102.257812 -211.050781 97.90625 -220.066406 97.90625 -230.328125 C 97.90625 -236.546875 99.460938 -242.609375 102.578125 -248.515625 C 106.304688 -258.148438 112.675781 -262.191406 121.6875 -260.640625 L 122.15625 -260.640625 C 125.570312 -260.328125 127.75 -257.375 128.6875 -251.78125 C 129.613281 -240.28125 130.078125 -229.242188 130.078125 -218.671875 C 130.078125 -212.453125 133.1875 -209.34375 139.40625 -209.34375 L 193.5 -209.34375 C 199.707031 -209.34375 202.8125 -212.296875 202.8125 -218.203125 C 203.4375 -228.148438 203.75 -236.695312 203.75 -243.84375 C 203.75 -250.0625 203.4375 -255.660156 202.8125 -260.640625 C 201.570312 -275.867188 197.535156 -287.832031 190.703125 -296.53125 C 177.023438 -313.320312 155.578125 -321.71875 126.359375 -321.71875 C 118.273438 -321.71875 110.503906 -321.25 103.046875 -320.3125 C 68.847656 -316.269531 43.976562 -300.570312 28.4375 -273.21875 C 17.25 -254.570312 11.65625 -235.300781 11.65625 -215.40625 C 11.65625 -207.320312 12.585938 -199.085938 14.453125 -190.703125 C 17.554688 -177.640625 23.304688 -167.222656 31.703125 -159.453125 C 31.703125 -159.453125 31.78125 -159.375 31.9375 -159.21875 C 32.09375 -159.0625 32.171875 -158.984375 32.171875 -158.984375 C 47.398438 -146.242188 56.570312 -139.097656 59.6875 -137.546875 L 60.609375 -137.078125 L 69.9375 -131.484375 C 85.789062 -121.847656 96.046875 -115.164062 100.703125 -111.4375 C 110.335938 -104.28125 115.15625 -95.265625 115.15625 -84.390625 C 115.15625 -77.554688 113.054688 -72.269531 108.859375 -68.53125 C 104.671875 -64.800781 99.15625 -62.9375 92.3125 -62.9375 C 86.71875 -62.9375 80.503906 -64.179688 73.671875 -66.671875 Z M 149.203125 -267.15625 L 151.0625 -267.15625 L 151.0625 -266.234375 L 149.203125 -266.234375 Z M 161.328125 -251.3125 C 161.015625 -251 160.625 -250.84375 160.15625 -250.84375 C 159.6875 -250.84375 159.609375 -251.15625 159.921875 -251.78125 C 159.921875 -251.78125 160 -251.851562 160.15625 -252 C 160.3125 -252.15625 160.390625 -252.234375 160.390625 -252.234375 L 160.859375 -253.171875 C 160.859375 -253.171875 160.9375 -253.09375 161.09375 -252.9375 C 161.25 -252.78125 161.328125 -252.703125 161.328125 -252.703125 L 162.25 -252.234375 Z M 151.0625 -232.65625 C 151.0625 -232.03125 150.90625 -231.71875 150.59375 -231.71875 L 148.265625 -231.71875 C 148.265625 -232.96875 149.039062 -233.59375 150.59375 -233.59375 Z M 139.875 -151.53125 C 140.5 -150.90625 140.8125 -150.128906 140.8125 -149.203125 L 137.078125 -149.203125 C 137.078125 -149.203125 136.921875 -149.742188 136.609375 -150.828125 C 136.296875 -151.921875 136.453125 -153.242188 137.078125 -154.796875 L 139.875 -154.796875 C 140.1875 -154.484375 140.34375 -153.707031 140.34375 -152.46875 Z M 119.828125 -151.53125 L 119.828125 -153.390625 L 124.015625 -153.390625 L 124.015625 -151.53125 Z M 145.46875 -148.734375 L 144.53125 -148.265625 L 144.53125 -147.796875 L 140.8125 -145.9375 C 139.5625 -147.800781 138.9375 -148.734375 138.9375 -148.734375 C 139.5625 -149.046875 140.492188 -149.203125 141.734375 -149.203125 L 143.609375 -149.203125 Z M 132.421875 -132.875 C 133.035156 -132.257812 133.34375 -131.640625 133.34375 -131.015625 L 132.421875 -130.546875 L 131.484375 -131.015625 L 130.546875 -131.015625 L 130.546875 -134.28125 L 131.484375 -133.34375 Z M 157.59375 -125.890625 L 156.65625 -125.421875 L 153.859375 -125.421875 C 153.859375 -126.660156 154.789062 -127.75 156.65625 -128.6875 L 158.53125 -126.8125 L 158.53125 -125.890625 Z M 150.59375 -118.421875 L 150.59375 -119.828125 L 154.796875 -119.359375 L 154.796875 -117.5 Z M 176.25 -109.5625 C 176.550781 -109.5625 176.703125 -109.253906 176.703125 -108.640625 C 176.703125 -106.773438 175.769531 -105.84375 173.90625 -105.84375 C 172.039062 -105.84375 170.800781 -106.617188 170.1875 -108.171875 L 171.109375 -110.5 L 175.3125 -110.5 C 175.3125 -110.1875 175.46875 -110.03125 175.78125 -110.03125 Z M 155.265625 -107.703125 L 153.390625 -108.640625 L 154.796875 -110.03125 L 156.65625 -109.5625 Z M 162.25 -96.515625 C 162.25 -95.890625 162.71875 -95.578125 163.65625 -95.578125 C 163.65625 -94.960938 163.5 -94.65625 163.1875 -94.65625 L 163.1875 -93.71875 C 162.875 -93.71875 162.71875 -93.5625 162.71875 -93.25 L 159.453125 -93.25 L 158.984375 -93.71875 L 158.53125 -93.71875 L 157.59375 -94.1875 L 158.53125 -97.453125 L 160.390625 -97.453125 Z M 181.375 -95.109375 L 182.765625 -94.65625 L 181.375 -93.71875 L 180.4375 -93.25 C 179.507812 -92.3125 178.734375 -91.84375 178.109375 -91.84375 L 178.109375 -93.71875 C 177.796875 -94.34375 177.953125 -94.960938 178.578125 -95.578125 L 180.4375 -95.578125 Z M 166.921875 -86.71875 C 165.671875 -86.71875 164.65625 -87.03125 163.875 -87.65625 C 163.101562 -88.28125 162.875 -89.054688 163.1875 -89.984375 C 163.5 -89.984375 163.960938 -90.0625 164.578125 -90.21875 C 165.203125 -90.375 166.140625 -90.453125 167.390625 -90.453125 L 168.3125 -90.921875 C 168.625 -91.234375 169.25 -91.390625 170.1875 -91.390625 L 170.640625 -89.046875 L 168.78125 -87.65625 Z M 164.59375 -79.265625 C 167.070312 -76.773438 168.3125 -75.375 168.3125 -75.0625 C 168.3125 -74.445312 168.15625 -73.984375 167.84375 -73.671875 L 167.84375 -72.734375 L 166.921875 -72.734375 L 165.984375 -72.265625 L 164.59375 -72.265625 C 163.65625 -72.265625 162.875 -72.578125 162.25 -73.203125 L 160.859375 -73.203125 C 160.859375 -73.203125 160.3125 -73.28125 159.21875 -73.4375 C 158.132812 -73.59375 156.660156 -73.828125 154.796875 -74.140625 C 154.171875 -74.753906 153.859375 -75.21875 153.859375 -75.53125 L 153.390625 -76 L 153.390625 -77.859375 L 154.796875 -77.859375 C 156.347656 -77.859375 157.59375 -77.703125 158.53125 -77.390625 C 159.144531 -77.085938 159.921875 -76.9375 160.859375 -76.9375 L 161.328125 -76.9375 C 161.941406 -76.9375 162.40625 -77.085938 162.71875 -77.390625 L 163.65625 -77.859375 C 163.65625 -78.171875 163.96875 -78.640625 164.59375 -79.265625 Z M 178.578125 -75.53125 L 178.578125 -74.59375 L 174.84375 -74.59375 C 175.78125 -75.53125 176.25 -76.460938 176.25 -77.390625 L 179.5 -77.390625 Z M 173.4375 -71.34375 L 173.4375 -74.140625 L 175.78125 -74.140625 L 175.78125 -71.34375 Z M 163.1875 -69 C 163.1875 -68.382812 162.410156 -67.609375 160.859375 -66.671875 L 157.59375 -64.8125 L 155.734375 -64.8125 C 153.867188 -64.8125 152.625 -65.117188 152 -65.734375 L 152 -66.671875 C 152 -67.609375 152.929688 -68.539062 154.796875 -69.46875 C 155.722656 -69.46875 156.34375 -69.625 156.65625 -69.9375 C 158.207031 -70.875 158.832031 -71.1875 158.53125 -70.875 L 163.1875 -70.875 Z M 176.703125 -65.734375 C 177.640625 -64.804688 178.109375 -64.1875 178.109375 -63.875 C 178.109375 -62.320312 177.332031 -61.546875 175.78125 -61.546875 L 173.90625 -60.140625 C 172.664062 -61.703125 172.046875 -62.945312 172.046875 -63.875 C 172.046875 -65.738281 172.820312 -66.828125 174.375 -67.140625 Z M 163.65625 -62.015625 C 162.101562 -61.703125 160.394531 -61.703125 158.53125 -62.015625 L 158.53125 -63.875 L 160.390625 -65.28125 L 163.1875 -65.28125 C 163.5 -65.28125 163.65625 -64.8125 163.65625 -63.875 Z M 68.53125 -61.546875 L 68.53125 -62.9375 L 71.34375 -62.9375 L 71.34375 -61.546875 Z M 153.859375 -55.484375 L 152.9375 -54.546875 L 152 -54.546875 C 152 -54.234375 151.6875 -54.078125 151.0625 -54.078125 L 151.0625 -55.953125 C 151.0625 -56.566406 151.375 -57.1875 152 -57.8125 C 152.3125 -57.8125 152.546875 -57.734375 152.703125 -57.578125 C 152.859375 -57.421875 152.9375 -57.34375 152.9375 -57.34375 L 153.390625 -56.421875 Z M 138.015625 -49.890625 C 138.628906 -49.578125 138.9375 -48.644531 138.9375 -47.09375 C 137.695312 -47.09375 136.457031 -47.40625 135.21875 -48.03125 C 135.519531 -48.03125 135.75 -48.101562 135.90625 -48.25 C 136.0625 -48.40625 136.140625 -48.484375 136.140625 -48.484375 C 136.140625 -48.796875 136.453125 -48.953125 137.078125 -48.953125 L 137.078125 -49.421875 C 137.078125 -49.734375 137.390625 -49.890625 138.015625 -49.890625 Z M 163.65625 -48.953125 C 163.96875 -48.640625 164.125 -48.175781 164.125 -47.5625 C 163.1875 -47.5625 161.320312 -48.023438 158.53125 -48.953125 L 163.65625 -49.890625 Z M 77.859375 -47.09375 L 76 -48.03125 L 77.390625 -49.421875 L 79.265625 -48.953125 Z M 140.8125 -44.296875 C 142.050781 -44.296875 142.828125 -44.140625 143.140625 -43.828125 L 145.46875 -43.359375 C 145.46875 -41.804688 144.222656 -41.03125 141.734375 -41.03125 C 141.734375 -41.34375 141.113281 -41.5 139.875 -41.5 Z M 131.484375 -41.03125 L 131.484375 -43.359375 L 133.34375 -43.359375 L 133.34375 -41.03125 Z M 89.046875 -32.640625 L 89.046875 -34.03125 L 92.3125 -34.03125 L 92.3125 -32.640625 Z M 139.875 -31.234375 C 139.25 -31.546875 138.9375 -32.015625 138.9375 -32.640625 C 138.9375 -33.566406 139.25 -34.03125 139.875 -34.03125 L 143.609375 -34.03125 Z M 139.875 -31.234375 "/></g></g></g></g><g fill="#ffffff" fill-opacity="1"><g transform="translate(223.33261, 497.411517)"><g><path d="M 97.453125 -78.796875 C 88.742188 -78.796875 82.679688 -82.132812 79.265625 -88.8125 C 75.847656 -95.5 74.140625 -104.75 74.140625 -116.5625 C 74.140625 -120.914062 74.445312 -127.441406 75.0625 -136.140625 L 79.265625 -197.6875 L 88.125 -310.0625 L 88.125 -310.984375 C 88.125 -313.472656 87.191406 -315.648438 85.328125 -317.515625 C 83.460938 -319.378906 81.285156 -320.3125 78.796875 -320.3125 L 21.453125 -320.3125 C 15.859375 -320.3125 12.75 -317.515625 12.125 -311.921875 L 0.46875 -200.953125 C -2.332031 -172.671875 -3.890625 -148.425781 -4.203125 -128.21875 L -4.203125 -113.296875 C -4.203125 -96.515625 -3.578125 -84.082031 -2.328125 -76 C 0.460938 -50.195312 8.695312 -31.082031 22.375 -18.65625 C 35.4375 -6.21875 58.285156 0 90.921875 0 C 132.265625 0 163.8125 -12.273438 185.5625 -36.828125 C 199.238281 -52.679688 208.722656 -73.195312 214.015625 -98.375 C 218.046875 -119.820312 220.0625 -142.828125 220.0625 -167.390625 L 220.0625 -198.15625 L 224.265625 -310.515625 C 224.265625 -313.003906 223.332031 -315.257812 221.46875 -317.28125 C 219.601562 -319.300781 217.425781 -320.3125 214.9375 -320.3125 L 157.59375 -320.3125 C 151.6875 -320.3125 148.578125 -317.359375 148.265625 -311.453125 L 142.671875 -200.484375 L 142.671875 -200.015625 C 141.429688 -174.835938 140.34375 -155.878906 139.40625 -143.140625 L 138.015625 -125.421875 C 138.015625 -124.179688 137.546875 -120.757812 136.609375 -115.15625 C 134.742188 -103.65625 131.09375 -94.71875 125.65625 -88.34375 C 120.21875 -81.976562 110.816406 -78.796875 97.453125 -78.796875 Z M 213.078125 -296.0625 C 212.140625 -291.40625 211.671875 -287.988281 211.671875 -285.8125 C 211.671875 -285.8125 211.75 -285.734375 211.90625 -285.578125 C 212.0625 -285.421875 212.140625 -285.34375 212.140625 -285.34375 C 212.140625 -285.03125 212.296875 -284.875 212.609375 -284.875 L 207.484375 -284.875 L 207.015625 -290.46875 L 207.015625 -296.0625 C 207.015625 -298.863281 206.859375 -300.578125 206.546875 -301.203125 L 206.546875 -304 C 206.546875 -304.925781 206.851562 -306.320312 207.46875 -308.1875 C 208.09375 -310.050781 209.03125 -310.984375 210.28125 -310.984375 C 212.769531 -310.984375 213.9375 -309.972656 213.78125 -307.953125 C 213.625 -305.929688 213.546875 -304.769531 213.546875 -304.46875 L 213.546875 -302.59375 Z M 13.984375 -250.375 C 13.984375 -251.3125 14.453125 -252.242188 15.390625 -253.171875 L 16.3125 -255.96875 L 15.859375 -258.765625 L 15.390625 -262.03125 L 13.515625 -266.6875 L 14.453125 -269.953125 L 15.859375 -275.09375 C 15.859375 -275.394531 15.546875 -275.859375 14.921875 -276.484375 L 14.453125 -277.890625 C 14.453125 -278.191406 14.765625 -278.65625 15.390625 -279.28125 L 15.859375 -285.34375 C 16.472656 -285.96875 16.78125 -286.4375 16.78125 -286.75 C 17.09375 -287.050781 17.09375 -287.828125 16.78125 -289.078125 C 18.03125 -290.316406 18.65625 -291.40625 18.65625 -292.34375 L 18.65625 -295.609375 C 18.34375 -296.847656 17.953125 -297.851562 17.484375 -298.625 C 17.015625 -299.40625 16.316406 -300.109375 15.390625 -300.734375 C 16.941406 -300.734375 17.71875 -300.890625 17.71875 -301.203125 C 18.34375 -301.816406 18.960938 -302.125 19.578125 -302.125 L 21.90625 -302.125 L 19.109375 -242.921875 C 18.179688 -241.359375 17.097656 -240.269531 15.859375 -239.65625 L 15.859375 -238.71875 C 16.472656 -238.71875 16.78125 -238.5625 16.78125 -238.25 C 17.40625 -238.25 18.03125 -238.5625 18.65625 -239.1875 C 18.65625 -237.320312 18.1875 -235.457031 17.25 -233.59375 C 16.320312 -232.34375 15.546875 -231.71875 14.921875 -231.71875 C 14.921875 -232.34375 14.609375 -232.65625 13.984375 -232.65625 L 13.515625 -233.59375 Z M 16.78125 -192.5625 C 14.601562 -192.875 12.738281 -193.804688 11.1875 -195.359375 L 11.65625 -197.21875 L 13.515625 -197.6875 L 16.78125 -198.15625 Z M 164.125 -194.890625 C 163.8125 -194.578125 163.578125 -194.265625 163.421875 -193.953125 C 163.265625 -193.648438 163.03125 -193.5 162.71875 -193.5 C 162.71875 -193.5 162.640625 -193.421875 162.484375 -193.265625 C 162.328125 -193.109375 162.25 -193.03125 162.25 -193.03125 C 161.632812 -193.03125 161.328125 -193.335938 161.328125 -193.953125 L 161.328125 -195.359375 Z M 15.859375 -178.578125 C 15.859375 -175.773438 14.769531 -174.375 12.59375 -174.375 C 11.65625 -174.375 10.875 -174.84375 10.25 -175.78125 C 10.5625 -177.019531 12.429688 -178.414062 15.859375 -179.96875 Z M 175.78125 -149.203125 C 176.09375 -148.265625 175.9375 -147.640625 175.3125 -147.328125 L 171.578125 -147.328125 L 172.515625 -149.203125 Z M 165.984375 -134.28125 C 165.671875 -133.96875 165.207031 -133.8125 164.59375 -133.8125 C 164.59375 -134.4375 164.125 -134.90625 163.1875 -135.21875 C 163.8125 -135.21875 164.125 -135.367188 164.125 -135.671875 L 165.046875 -135.671875 C 165.984375 -135.671875 166.609375 -135.519531 166.921875 -135.21875 Z M 157.125 -99.3125 L 158.53125 -100.25 L 158.53125 -99.3125 L 157.125 -98.375 Z M 163.65625 -94.65625 L 165.046875 -94.65625 L 164.59375 -92.78125 L 163.1875 -92.78125 Z M 133.8125 -79.734375 C 134.125 -78.796875 134.125 -78.171875 133.8125 -77.859375 L 129.625 -77.859375 L 130.546875 -79.734375 Z M 105.375 -73.671875 C 104.4375 -71.804688 103.734375 -70.71875 103.265625 -70.40625 C 102.804688 -70.09375 101.800781 -69.9375 100.25 -69.9375 L 97.90625 -69.9375 C 96.039062 -69.9375 94.800781 -70.867188 94.1875 -72.734375 C 94.1875 -73.046875 94.648438 -73.664062 95.578125 -74.59375 C 97.753906 -74.59375 99.460938 -74.515625 100.703125 -74.359375 C 101.953125 -74.210938 102.882812 -74.140625 103.5 -74.140625 Z M 117.5 -72.734375 L 117.96875 -74.140625 L 119.359375 -73.671875 L 118.421875 -72.265625 Z M 117.03125 -57.34375 L 117.5 -65.734375 L 118.890625 -65.734375 L 117.5 -57.34375 Z M 85.796875 -61.078125 C 85.796875 -61.390625 86.414062 -62.164062 87.65625 -63.40625 C 87.65625 -63.40625 88.117188 -63.09375 89.046875 -62.46875 C 89.984375 -61.851562 90.765625 -60.925781 91.390625 -59.6875 L 86.25 -59.21875 Z M 85.796875 -61.078125 "/></g></g></g><g fill="#ffffff" fill-opacity="1"><g transform="translate(466.713836, 497.411517)"><g><path d="M 205.15625 -172.984375 C 216.03125 -184.484375 223.488281 -197.378906 227.53125 -211.671875 L 228 -212.140625 L 228 -212.609375 C 230.476562 -223.484375 231.71875 -234.207031 231.71875 -244.78125 C 231.71875 -259.382812 229.078125 -271.351562 223.796875 -280.6875 C 213.234375 -299.644531 196.140625 -311.921875 172.515625 -317.515625 C 165.984375 -319.066406 157.742188 -319.84375 147.796875 -319.84375 C 137.847656 -319.84375 127.4375 -319.066406 116.5625 -317.515625 L 27.046875 -307.265625 C 22.066406 -306.953125 19.269531 -304.148438 18.65625 -298.859375 L -4.65625 -10.25 C -4.65625 -7.144531 -3.722656 -4.660156 -1.859375 -2.796875 C 0.00390625 -0.929688 2.175781 0 4.65625 0 L 111.90625 0 C 135.519531 0 154.632812 -3.109375 169.25 -9.328125 C 185.414062 -15.546875 198.316406 -26.734375 207.953125 -42.890625 C 217.585938 -59.054688 222.40625 -76.15625 222.40625 -94.1875 C 222.40625 -109.726562 220.070312 -122.46875 215.40625 -132.40625 C 210.738281 -142.351562 203.28125 -151.679688 193.03125 -160.390625 Z M 194.421875 -287.203125 L 193.5 -285.34375 L 192.5625 -285.34375 L 193.03125 -287.203125 Z M 126.359375 -277.890625 L 124.015625 -278.8125 C 122.773438 -279.4375 121.84375 -279.75 121.21875 -279.75 L 123.09375 -281.15625 L 125.421875 -282.546875 L 128.6875 -279.75 L 128.6875 -278.8125 L 127.75 -277.890625 Z M 126.8125 -263.4375 C 126.507812 -263.125 126.046875 -262.96875 125.421875 -262.96875 L 124.953125 -263.890625 C 124.640625 -264.203125 124.484375 -264.671875 124.484375 -265.296875 L 124.953125 -267.625 L 127.75 -270.890625 C 127.75 -270.265625 127.59375 -269.800781 127.28125 -269.5 L 126.8125 -268.5625 C 126.195312 -267.9375 126.195312 -267.160156 126.8125 -266.234375 C 127.4375 -265.609375 127.75 -264.828125 127.75 -263.890625 Z M 138.9375 -264.359375 L 139.875 -264.359375 L 139.875 -262.5 L 138.9375 -262.5 Z M 162.25 -254.109375 L 163.1875 -255.96875 L 164.125 -255.96875 L 163.1875 -253.640625 Z M 99.78125 -240.125 C 112.207031 -242.289062 121.53125 -243.375 127.75 -243.375 C 132.101562 -243.375 135.832031 -242.289062 138.9375 -240.125 C 141.113281 -238.875 142.203125 -235.921875 142.203125 -231.265625 C 142.203125 -228.460938 141.738281 -224.726562 140.8125 -220.0625 C 138.945312 -213.226562 135.21875 -208.257812 129.625 -205.15625 C 119.675781 -199.25 104.441406 -194.273438 83.921875 -190.234375 L 88.125 -238.71875 Z M 167.84375 -222.40625 C 167.84375 -221.46875 167.535156 -220.6875 166.921875 -220.0625 L 165.984375 -220.53125 C 165.984375 -221.15625 166.601562 -221.78125 167.84375 -222.40625 Z M 82.53125 -217.265625 C 82.53125 -215.710938 81.597656 -214.472656 79.734375 -213.546875 L 80.65625 -211.671875 L 82.0625 -210.28125 C 82.0625 -210.28125 82.140625 -210.203125 82.296875 -210.046875 C 82.453125 -209.890625 82.53125 -209.8125 82.53125 -209.8125 L 81.59375 -207.953125 L 78.796875 -207.953125 C 77.859375 -207.953125 77.390625 -208.414062 77.390625 -209.34375 L 76.46875 -211.21875 C 78.332031 -212.457031 78.953125 -213.390625 78.328125 -214.015625 L 76.9375 -214.015625 L 76.46875 -214.46875 L 76 -214.46875 C 76 -215.09375 76.3125 -215.40625 76.9375 -215.40625 L 77.859375 -215.40625 L 77.390625 -216.34375 C 77.390625 -216.34375 77.3125 -216.492188 77.15625 -216.796875 C 77.007812 -217.109375 76.78125 -217.265625 76.46875 -217.265625 L 76.46875 -218.671875 C 76.46875 -218.984375 76.625 -219.140625 76.9375 -219.140625 L 76.9375 -220.0625 L 77.859375 -220.0625 L 79.265625 -221 C 79.878906 -220.375 80.1875 -220.0625 80.1875 -220.0625 L 82.0625 -218.203125 Z M 209.8125 -203.28125 C 209.1875 -202.664062 208.71875 -202.359375 208.40625 -202.359375 C 207.789062 -202.359375 207.484375 -202.203125 207.484375 -201.890625 C 207.171875 -201.890625 206.78125 -202.039062 206.3125 -202.34375 C 205.84375 -202.65625 205.609375 -203.125 205.609375 -203.75 C 205.609375 -204.6875 206.234375 -205.15625 207.484375 -205.15625 L 208.40625 -205.15625 L 209.8125 -204.6875 Z M 78.796875 -201.890625 C 79.109375 -201.578125 79.726562 -201.109375 80.65625 -200.484375 L 81.125 -198.625 L 76 -198.625 L 76.9375 -200.484375 L 77.859375 -200.953125 Z M 141.734375 -197.6875 C 142.359375 -198.3125 142.671875 -199.398438 142.671875 -200.953125 L 146.875 -200.953125 L 146.875 -199.5625 L 147.328125 -198.625 L 147.328125 -197.6875 Z M 135.21875 -197.6875 C 135.21875 -196.757812 135.835938 -196.296875 137.078125 -196.296875 C 134.585938 -194.734375 132.410156 -194.734375 130.546875 -196.296875 L 133.34375 -196.75 C 134.28125 -197.375 134.976562 -197.84375 135.4375 -198.15625 C 135.90625 -198.46875 135.832031 -198.3125 135.21875 -197.6875 Z M 79.265625 -196.296875 C 79.265625 -195.984375 79.421875 -195.828125 79.734375 -195.828125 L 79.734375 -195.359375 L 76.9375 -193.953125 C 75.6875 -194.265625 74.441406 -195.351562 73.203125 -197.21875 L 76.9375 -197.6875 L 77.859375 -197.21875 L 78.796875 -197.21875 L 79.265625 -196.75 Z M 144.53125 -195.359375 C 144.53125 -195.359375 144.609375 -195.28125 144.765625 -195.125 C 144.921875 -194.96875 145 -194.890625 145 -194.890625 L 145 -193.953125 L 143.140625 -193.953125 C 142.203125 -193.953125 141.425781 -194.109375 140.8125 -194.421875 C 140.8125 -194.734375 141.195312 -195.125 141.96875 -195.59375 C 142.75 -196.0625 143.601562 -196.296875 144.53125 -196.296875 Z M 152.9375 -186.96875 C 152 -186.03125 151.0625 -185.5625 150.125 -185.5625 C 149.507812 -185.5625 148.578125 -185.253906 147.328125 -184.640625 C 147.328125 -185.253906 147.175781 -185.71875 146.875 -186.03125 L 145.9375 -186.5 L 145 -187.4375 L 145.9375 -188.359375 L 147.328125 -190.234375 C 148.890625 -191.160156 149.820312 -192.09375 150.125 -193.03125 Z M 123.09375 -191.15625 L 123.09375 -192.5625 L 126.8125 -192.09375 L 126.8125 -190.234375 Z M 57.8125 -186.96875 C 57.5 -187.28125 56.878906 -187.4375 55.953125 -187.4375 L 55.015625 -187.90625 L 52.21875 -188.828125 C 52.21875 -189.765625 53.460938 -190.695312 55.953125 -191.625 L 57.8125 -190.234375 Z M 124.953125 -189.765625 C 126.191406 -188.828125 126.191406 -187.738281 124.953125 -186.5 L 124.015625 -186.5 L 123.09375 -186.96875 C 123.09375 -186.96875 123.015625 -187.046875 122.859375 -187.203125 C 122.703125 -187.359375 122.625 -187.4375 122.625 -187.4375 L 123.09375 -188.359375 L 124.015625 -189.296875 Z M 48.03125 -185.5625 C 47.09375 -185.5625 46.3125 -185.71875 45.6875 -186.03125 L 46.625 -188.828125 C 46.9375 -188.828125 47.25 -188.75 47.5625 -188.59375 C 47.875 -188.4375 48.179688 -188.359375 48.484375 -188.359375 L 50.359375 -188.359375 L 50.359375 -185.5625 Z M 71.796875 -186.03125 C 71.796875 -186.34375 72.03125 -186.578125 72.5 -186.734375 C 72.96875 -186.890625 73.359375 -187.125 73.671875 -187.4375 L 73.671875 -185.5625 C 73.671875 -184.632812 73.515625 -183.859375 73.203125 -183.234375 L 70.875 -184.640625 C 70.875 -184.941406 71.179688 -185.40625 71.796875 -186.03125 Z M 187.90625 -185.09375 C 188.207031 -185.40625 188.820312 -185.71875 189.75 -186.03125 C 190.6875 -186.34375 191.625 -186.5 192.5625 -186.5 L 194.421875 -186.5 L 195.828125 -186.03125 L 193.953125 -184.171875 Z M 186.03125 -184.171875 L 185.09375 -183.703125 L 184.640625 -185.09375 L 185.5625 -185.09375 Z M 146.875 -179.96875 L 146.875 -182.765625 L 149.203125 -182.765625 L 149.203125 -179.96875 Z M 141.734375 -179.96875 C 143.910156 -179.039062 145 -177.800781 145 -176.25 L 140.8125 -176.25 C 141.425781 -177.488281 141.734375 -178.726562 141.734375 -179.96875 Z M 190.234375 -179.046875 L 188.359375 -178.109375 L 188.359375 -179.046875 L 189.765625 -179.5 Z M 122.625 -162.71875 C 122 -162.09375 121.222656 -162.25 120.296875 -163.1875 L 119.828125 -164.59375 C 119.828125 -165.832031 120.445312 -166.453125 121.6875 -166.453125 C 122.625 -166.453125 123.398438 -166.296875 124.015625 -165.984375 L 124.015625 -162.71875 Z M 154.328125 -159.453125 L 154.328125 -161.328125 C 154.640625 -161.328125 154.796875 -161.476562 154.796875 -161.78125 L 157.59375 -161.78125 L 156.65625 -159.453125 Z M 125.890625 -126.359375 C 124.335938 -126.359375 123.25 -127.132812 122.625 -128.6875 C 123.863281 -128.6875 124.796875 -128.53125 125.421875 -128.21875 C 125.734375 -127.90625 125.890625 -127.285156 125.890625 -126.359375 Z M 98.84375 -123.09375 L 99.3125 -123.5625 C 106.144531 -125.113281 111.894531 -125.890625 116.5625 -125.890625 C 119.976562 -125.890625 122.617188 -125.421875 124.484375 -124.484375 C 130.078125 -121.066406 132.875 -116.09375 132.875 -109.5625 C 132.875 -105.519531 131.785156 -101.476562 129.609375 -97.4375 C 127.441406 -93.40625 124.800781 -90.144531 121.6875 -87.65625 C 116.09375 -83.300781 110.109375 -79.957031 103.734375 -77.625 C 97.367188 -75.300781 89.210938 -73.671875 79.265625 -72.734375 L 81.125 -119.359375 Z M 145.9375 -125.890625 L 146.875 -125.890625 L 146.875 -123.5625 L 145.9375 -123.5625 Z M 43.359375 -118.421875 C 43.359375 -117.492188 42.894531 -116.71875 41.96875 -116.09375 L 41.96875 -120.296875 C 42.894531 -119.359375 43.359375 -118.734375 43.359375 -118.421875 Z M 44.296875 -112.359375 C 44.296875 -112.359375 44.21875 -112.28125 44.0625 -112.125 C 43.90625 -111.976562 43.828125 -111.90625 43.828125 -111.90625 C 42.273438 -110.96875 41.65625 -109.878906 41.96875 -108.640625 C 42.269531 -108.328125 42.34375 -108.015625 42.1875 -107.703125 C 42.039062 -107.390625 41.96875 -107.078125 41.96875 -106.765625 C 41.65625 -107.078125 41.03125 -107.234375 40.09375 -107.234375 L 40.09375 -108.640625 C 41.34375 -109.566406 41.96875 -110.5 41.96875 -111.4375 C 41.03125 -112.363281 41.492188 -113.140625 43.359375 -113.765625 L 43.828125 -113.765625 L 43.828125 -112.828125 C 44.140625 -112.828125 44.296875 -112.671875 44.296875 -112.359375 Z M 43.359375 -102.109375 C 43.359375 -101.484375 43.125 -100.472656 42.65625 -99.078125 C 42.195312 -97.679688 41.65625 -96.671875 41.03125 -96.046875 C 41.03125 -96.046875 41.492188 -95.582031 42.421875 -94.65625 C 42.421875 -94.65625 42.5 -94.578125 42.65625 -94.421875 C 42.8125 -94.265625 42.890625 -94.1875 42.890625 -94.1875 L 41.96875 -93.71875 C 41.65625 -94.03125 41.03125 -94.1875 40.09375 -94.1875 L 40.09375 -99.78125 C 39.476562 -101.644531 39.476562 -103.351562 40.09375 -104.90625 L 41.96875 -104.90625 C 41.96875 -104.59375 42.273438 -104.125 42.890625 -103.5 Z M 61.078125 -102.578125 C 61.390625 -102.265625 61.46875 -101.953125 61.3125 -101.640625 C 61.15625 -101.328125 61.078125 -101.015625 61.078125 -100.703125 L 60.609375 -101.640625 C 60.609375 -102.265625 60.453125 -102.734375 60.140625 -103.046875 C 60.140625 -103.660156 60.453125 -104.125 61.078125 -104.4375 Z M 41.96875 -85.796875 C 41.96875 -86.097656 41.8125 -86.328125 41.5 -86.484375 C 41.1875 -86.640625 41.03125 -86.71875 41.03125 -86.71875 C 40.71875 -86.71875 40.484375 -86.875 40.328125 -87.1875 C 40.171875 -87.5 40.09375 -87.65625 40.09375 -87.65625 L 41.96875 -87.65625 Z M 42.421875 -66.203125 C 42.117188 -65.585938 41.96875 -64.347656 41.96875 -62.484375 C 40.71875 -62.484375 39.9375 -62.171875 39.625 -61.546875 C 40.25 -60.921875 40.71875 -60.609375 41.03125 -60.609375 C 41.65625 -60.609375 41.96875 -60.300781 41.96875 -59.6875 C 41.65625 -59.6875 41.5 -59.53125 41.5 -59.21875 L 41.03125 -58.75 L 39.171875 -60.609375 C 38.234375 -61.234375 37.765625 -61.703125 37.765625 -62.015625 L 38.234375 -63.875 L 38.703125 -65.28125 L 40.09375 -65.28125 L 41.5 -65.734375 C 40.875 -66.359375 40.097656 -66.671875 39.171875 -66.671875 C 38.546875 -69.785156 38.234375 -73.050781 38.234375 -76.46875 C 38.234375 -77.082031 38.851562 -77.390625 40.09375 -77.390625 C 41.03125 -78.015625 41.5 -78.640625 41.5 -79.265625 L 41.5 -80.65625 C 41.5 -81.59375 41.65625 -82.21875 41.96875 -82.53125 L 42.421875 -74.59375 C 41.492188 -74.59375 40.71875 -74.128906 40.09375 -73.203125 C 40.40625 -72.890625 40.867188 -72.5 41.484375 -72.03125 C 42.109375 -71.570312 42.5 -71.109375 42.65625 -70.640625 C 42.8125 -70.171875 42.890625 -69.625 42.890625 -69 Z M 121.6875 -69 C 121.070312 -68.382812 120.140625 -68.078125 118.890625 -68.078125 L 117.5 -69.46875 L 121.21875 -71.34375 Z M 38.234375 -56.421875 L 38.234375 -57.8125 L 38.703125 -58.28125 L 40.09375 -58.28125 L 41.96875 -57.8125 L 41.96875 -55.015625 L 40.5625 -55.015625 Z M 59.21875 -25.640625 C 59.21875 -25.640625 59.140625 -25.71875 58.984375 -25.875 C 58.828125 -26.03125 58.75 -26.109375 58.75 -26.109375 L 58.75 -27.046875 C 58.75 -27.972656 59.054688 -28.976562 59.671875 -30.0625 C 60.296875 -31.15625 60.921875 -32.015625 61.546875 -32.640625 L 61.546875 -34.5 L 61.078125 -36.375 L 61.546875 -36.828125 C 61.546875 -37.140625 61.703125 -37.296875 62.015625 -37.296875 C 61.078125 -39.785156 61.234375 -41.960938 62.484375 -43.828125 C 63.722656 -46.316406 64.34375 -49.269531 64.34375 -52.6875 L 65.28125 -55.484375 C 65.894531 -56.722656 66.515625 -57.65625 67.140625 -58.28125 L 67.140625 -25.640625 Z M 39.625 -47.5625 L 38.703125 -47.5625 L 38.703125 -49.421875 L 39.625 -49.421875 Z M 39.625 -43.359375 L 38.703125 -43.359375 L 38.703125 -44.765625 L 39.625 -44.765625 Z M 39.171875 -34.96875 C 37.921875 -34.65625 36.832031 -34.65625 35.90625 -34.96875 L 35.90625 -36.828125 L 39.171875 -36.828125 Z M 56.875 -28.90625 C 56.875 -28.28125 56.5625 -27.65625 55.9375 -27.03125 C 55.320312 -26.414062 55.015625 -25.796875 55.015625 -25.171875 C 55.328125 -24.867188 55.484375 -24.25 55.484375 -23.3125 C 55.484375 -22.070312 54.863281 -20.828125 53.625 -19.578125 L 52.6875 -19.109375 L 52.21875 -19.109375 C 51.90625 -19.421875 51.75 -20.351562 51.75 -21.90625 C 51.75 -23.78125 52.0625 -24.71875 52.6875 -24.71875 C 53.3125 -24.71875 54.242188 -26.269531 55.484375 -29.375 C 55.796875 -29.375 55.953125 -29.21875 55.953125 -28.90625 Z M 56.875 -28.90625 "/></g></g></g><g fill="#ffffff" fill-opacity="1"><g transform="translate(718.487513, 497.411517)"><g><path d="M 238.25 29.375 C 241.050781 29.375 243.304688 28.285156 245.015625 26.109375 C 246.722656 23.929688 247.421875 21.445312 247.109375 18.65625 L 245.71875 3.265625 C 245.40625 -2.328125 242.296875 -5.125 236.390625 -5.125 C 146.242188 -2.945312 68.847656 0.3125 4.203125 4.65625 C 1.710938 4.96875 -0.617188 6.210938 -2.796875 8.390625 C -4.035156 9.628906 -4.65625 11.960938 -4.65625 15.390625 L -2.328125 40.5625 C -1.398438 46.78125 2.171875 49.578125 8.390625 48.953125 C 25.796875 47.085938 44.132812 44.757812 63.40625 41.96875 C 87.03125 38.539062 110.03125 35.894531 132.40625 34.03125 C 154.789062 32.164062 190.070312 30.613281 238.25 29.375 Z M 238.25 29.375 "/></g></g></g><g fill="#ffffff" fill-opacity="1"><g transform="translate(966.064929, 497.411517)"><g><path d="M 270.421875 -9.328125 C 270.421875 -6.835938 269.488281 -4.660156 267.625 -2.796875 C 265.757812 -0.929688 263.582031 0 261.09375 0 L 193.5 -1.40625 C 191.007812 -1.40625 188.753906 -2.410156 186.734375 -4.421875 C 184.710938 -6.441406 183.859375 -8.695312 184.171875 -11.1875 L 190.234375 -110.96875 L 165.515625 -59.6875 C 162.097656 -52.53125 158.523438 -46.382812 154.796875 -41.25 C 151.066406 -36.125 146.867188 -32.476562 142.203125 -30.3125 C 138.160156 -27.820312 133.34375 -26.578125 127.75 -26.578125 C 121.84375 -26.578125 116.632812 -28.363281 112.125 -31.9375 C 107.625 -35.507812 104.441406 -40.71875 102.578125 -47.5625 L 84.859375 -101.640625 L 83 -108.171875 L 81.59375 -61.546875 L 80.65625 -61.078125 L 80.65625 -58.75 L 81.59375 -58.75 L 80.1875 -10.71875 C 80.1875 -7.613281 78.789062 -4.972656 76 -2.796875 C 75.375 -3.109375 74.128906 -3.265625 72.265625 -3.265625 L 59.6875 -3.265625 L 56.875 -3.734375 L 54.078125 -4.65625 C 53.148438 -4.65625 52.140625 -4.34375 51.046875 -3.71875 C 49.960938 -3.101562 49.265625 -2.332031 48.953125 -1.40625 L 70.875 -1.40625 L 5.125 0 C 2.332031 0 0.00390625 -0.929688 -1.859375 -2.796875 C -3.722656 -4.660156 -4.65625 -6.992188 -4.65625 -9.796875 L 2.796875 -160.859375 L 7.453125 -254.578125 C 8.078125 -257.992188 8.078125 -260.476562 7.453125 -262.03125 L 9.796875 -310.0625 C 10.097656 -315.96875 13.203125 -319.070312 19.109375 -319.375 L 55.953125 -320.78125 L 56.421875 -319.84375 C 56.722656 -319.53125 57.1875 -319.375 57.8125 -319.375 L 56.421875 -320.78125 L 58.75 -320.78125 C 70.875 -321.09375 80.820312 -317.828125 88.59375 -310.984375 C 86.101562 -310.671875 82.367188 -310.515625 77.390625 -310.515625 C 73.359375 -310.515625 69.320312 -311.140625 65.28125 -312.390625 C 64.34375 -312.390625 58.742188 -313.164062 48.484375 -314.71875 C 46.617188 -312.539062 44.753906 -311.453125 42.890625 -311.453125 L 36.375 -312.390625 C 33.882812 -313.003906 32.015625 -313.3125 30.765625 -313.3125 C 28.285156 -313.3125 26.113281 -312.378906 24.25 -310.515625 C 22.382812 -311.453125 20.984375 -311.921875 20.046875 -311.921875 C 19.421875 -311.921875 18.875 -311.765625 18.40625 -311.453125 C 17.945312 -311.140625 17.71875 -310.828125 17.71875 -310.515625 L 16.78125 -310.0625 C 16.78125 -310.0625 15.847656 -311.457031 13.984375 -314.25 L 13.0625 -307.71875 C 15.539062 -308.03125 18.957031 -308.1875 23.3125 -308.1875 C 28.28125 -308.1875 32.632812 -307.878906 36.375 -307.265625 L 41.03125 -306.796875 C 42.582031 -306.796875 46.15625 -307.101562 51.75 -307.71875 L 53.625 -308.65625 L 55.484375 -308.65625 L 58.75 -309.125 L 60.609375 -308.1875 C 70.554688 -307.257812 81.28125 -306.796875 92.78125 -306.796875 C 96.195312 -302.753906 99.148438 -297.46875 101.640625 -290.9375 L 101.640625 -290.46875 L 135.21875 -173.90625 L 191.15625 -306.796875 C 205.457031 -306.796875 221.78125 -307.257812 240.125 -308.1875 L 240.578125 -312.390625 C 228.148438 -311.140625 213.851562 -310.515625 197.6875 -310.515625 L 192.5625 -310.515625 L 195.359375 -316.125 L 195.828125 -317.984375 L 196.296875 -317.515625 L 197.6875 -316.578125 C 199.238281 -317.203125 200.015625 -317.984375 200.015625 -318.921875 L 200.484375 -319.84375 L 200.484375 -321.25 C 201.734375 -321.863281 202.976562 -322.171875 204.21875 -322.171875 L 224.265625 -322.171875 C 237.628906 -322.171875 247.734375 -318.753906 254.578125 -311.921875 C 264.210938 -302.285156 269.03125 -290.316406 269.03125 -276.015625 Z M 71.34375 -317.046875 L 71.796875 -315.65625 L 74.59375 -315.65625 L 75.53125 -317.515625 C 75.53125 -318.453125 74.910156 -318.921875 73.671875 -318.921875 C 73.046875 -318.296875 72.421875 -317.984375 71.796875 -317.984375 Z M 238.25 -314.25 C 234.207031 -315.1875 231.097656 -316.117188 228.921875 -317.046875 L 225.671875 -317.984375 C 226.285156 -317.046875 226.4375 -316.425781 226.125 -316.125 Z M 210.75 -314.71875 C 210.125 -315.34375 209.5 -315.65625 208.875 -315.65625 C 207.945312 -315.65625 207.015625 -315.34375 206.078125 -314.71875 C 205.148438 -314.09375 204.53125 -313.472656 204.21875 -312.859375 C 204.84375 -312.234375 205.304688 -311.921875 205.609375 -311.921875 C 205.609375 -311.921875 205.6875 -311.84375 205.84375 -311.6875 C 206 -311.53125 206.078125 -311.453125 206.078125 -311.453125 L 210.75 -312.859375 Z M 61.546875 -315.65625 C 61.859375 -315.34375 62.015625 -315.34375 62.015625 -315.65625 Z M 13.984375 -298.40625 L 13.0625 -299.328125 L 11.65625 -298.40625 Z M 13.0625 -290.9375 L 13.0625 -293.734375 L 11.1875 -290.9375 Z M 100.25 -258.296875 C 100.25 -258.296875 99.625 -257.675781 98.375 -256.4375 L 96.046875 -253.640625 L 99.78125 -253.640625 C 100.09375 -254.265625 100.25 -255.039062 100.25 -255.96875 Z M 87.65625 -250.84375 L 90.921875 -250.84375 L 90.921875 -251.78125 L 87.65625 -251.78125 Z M 232.65625 -248.515625 C 231.726562 -249.128906 231.265625 -249.59375 231.265625 -249.90625 L 228 -249.90625 C 228 -248.976562 228.460938 -248.046875 229.390625 -247.109375 L 231.265625 -247.109375 Z M 217.734375 -246.1875 C 217.734375 -244.007812 216.492188 -242.609375 214.015625 -241.984375 C 214.628906 -241.359375 215.40625 -241.046875 216.34375 -241.046875 C 217.582031 -241.046875 219.132812 -241.515625 221 -242.453125 L 221 -245.25 Z M 95.109375 -232.1875 L 91.84375 -234.0625 C 91.84375 -233.75 91.691406 -233.59375 91.390625 -233.59375 L 91.390625 -233.125 L 90.921875 -232.65625 L 92.78125 -232.1875 Z M 232.1875 -225.203125 C 232.1875 -226.441406 231.253906 -227.21875 229.390625 -227.53125 L 228.46875 -226.59375 C 228.15625 -225.976562 227.6875 -225.671875 227.0625 -225.671875 C 227.375 -224.734375 228.304688 -224.578125 229.859375 -225.203125 Z M 13.984375 -175.3125 L 12.59375 -176.703125 L 13.984375 -173.90625 Z M 216.8125 -167.84375 L 216.8125 -167.390625 L 218.203125 -167.84375 L 219.609375 -167.84375 C 219.609375 -169.09375 218.828125 -169.71875 217.265625 -169.71875 L 215.875 -168.78125 Z M 134.28125 -164.125 C 134.28125 -162.875 134.4375 -162.09375 134.75 -161.78125 C 135.0625 -161.476562 135.21875 -161.015625 135.21875 -160.390625 L 138.9375 -160.390625 L 139.875 -161.78125 C 139.875 -161.78125 139.796875 -161.859375 139.640625 -162.015625 C 139.484375 -162.171875 139.40625 -162.25 139.40625 -162.25 L 138.9375 -162.71875 L 138.015625 -164.125 Z M 207.015625 -154.796875 C 205.460938 -154.171875 204.6875 -153.394531 204.6875 -152.46875 C 204.6875 -151.84375 204.84375 -151.53125 205.15625 -151.53125 L 205.609375 -151.0625 C 205.609375 -151.375 205.921875 -151.53125 206.546875 -151.53125 L 207.015625 -151.53125 Z M 128.6875 -150.125 L 129.15625 -148.734375 L 130.078125 -148.265625 C 131.015625 -148.265625 131.484375 -149.039062 131.484375 -150.59375 L 126.8125 -151.0625 Z M 13.984375 -150.125 L 12.59375 -150.125 L 12.59375 -144.53125 L 13.984375 -144.53125 Z M 166.921875 -143.140625 L 166.921875 -143.609375 C 166.921875 -143.609375 167 -143.6875 167.15625 -143.84375 C 167.3125 -144 167.390625 -144.078125 167.390625 -144.078125 C 167.691406 -144.078125 167.84375 -144.382812 167.84375 -145 C 167.84375 -146.550781 166.601562 -147.328125 164.125 -147.328125 C 162.875 -147.328125 161.472656 -146.394531 159.921875 -144.53125 C 160.546875 -144.53125 160.859375 -144.066406 160.859375 -143.140625 C 161.171875 -142.828125 162.257812 -142.671875 164.125 -142.671875 Z M 141.28125 -137.546875 C 142.207031 -137.546875 142.828125 -137.703125 143.140625 -138.015625 L 144.078125 -138.015625 C 145.003906 -138.941406 144.847656 -140.179688 143.609375 -141.734375 L 138.015625 -140.34375 L 136.140625 -139.875 L 137.546875 -138.9375 Z M 13.984375 -141.28125 L 12.59375 -141.28125 L 12.59375 -137.078125 L 13.984375 -137.078125 Z M 132.875 -130.078125 L 135.21875 -130.078125 L 135.21875 -131.953125 L 132.875 -131.953125 Z M 169.71875 -131.015625 L 165.515625 -131.015625 L 165.515625 -129.625 L 169.71875 -129.625 Z M 10.71875 -128.6875 C 10.101562 -128.375 9.945312 -128.0625 10.25 -127.75 C 10.5625 -127.4375 11.1875 -127.125 12.125 -126.8125 L 12.125 -130.078125 C 12.125 -129.773438 11.65625 -129.3125 10.71875 -128.6875 Z M 12.125 -125.890625 C 12.125 -125.265625 11.347656 -124.640625 9.796875 -124.015625 C 10.410156 -122.773438 10.71875 -121.84375 10.71875 -121.21875 C 10.71875 -119.351562 10.5625 -118.113281 10.25 -117.5 L 10.25 -115.625 C 10.25 -113.445312 11.03125 -111.894531 12.59375 -110.96875 Z M 137.546875 -116.09375 L 138.9375 -116.09375 L 141.28125 -117.03125 L 139.875 -118.421875 C 139.875 -118.421875 139.5625 -118.734375 138.9375 -119.359375 C 138.320312 -118.734375 136.769531 -118.421875 134.28125 -118.421875 L 135.671875 -115.625 Z M 155.265625 -113.765625 C 156.503906 -114.078125 157.125 -114.695312 157.125 -115.625 C 157.125 -115.9375 156.8125 -116.40625 156.1875 -117.03125 L 155.734375 -117.03125 L 155.265625 -117.5 L 152.46875 -117.5 C 150.90625 -116.5625 150.125 -115.78125 150.125 -115.15625 C 150.125 -114.539062 150.4375 -113.921875 151.0625 -113.296875 C 151.6875 -112.671875 152.3125 -112.359375 152.9375 -112.359375 Z M 146.875 -103.046875 C 147.488281 -102.734375 148.257812 -102.65625 149.1875 -102.8125 C 150.125 -102.96875 151.21875 -103.046875 152.46875 -103.046875 C 150.90625 -105.523438 149.347656 -106.765625 147.796875 -106.765625 C 147.484375 -106.765625 146.085938 -105.988281 143.609375 -104.4375 L 145 -103.046875 Z M 164.125 -102.109375 C 164.738281 -102.734375 165.046875 -103.195312 165.046875 -103.5 C 165.046875 -104.4375 164.113281 -105.523438 162.25 -106.765625 C 161.007812 -105.835938 159.84375 -104.671875 158.75 -103.265625 C 157.664062 -101.867188 157.125 -100.707031 157.125 -99.78125 C 157.125 -98.53125 157.28125 -97.753906 157.59375 -97.453125 C 158.21875 -96.515625 159.304688 -96.046875 160.859375 -96.046875 C 162.097656 -96.046875 162.875 -96.515625 163.1875 -97.453125 C 163.1875 -98.378906 163.34375 -99.15625 163.65625 -99.78125 C 163.65625 -100.394531 163.5 -100.703125 163.1875 -100.703125 L 163.1875 -102.109375 Z M 9.796875 -46.15625 L 11.1875 -74.140625 L 13.984375 -105.375 L 9.796875 -106.3125 L 9.796875 -93.25 C 9.796875 -91.070312 8.863281 -89.050781 7 -87.1875 L 4.65625 -85.328125 C 4.039062 -84.703125 3.734375 -84.859375 3.734375 -85.796875 L 4.65625 -66.671875 L 6.0625 -54.546875 L 7.921875 -44.296875 C 8.546875 -39.941406 8.859375 -36.363281 8.859375 -33.5625 C 8.859375 -29.832031 8.390625 -25.796875 7.453125 -21.453125 C 6.835938 -19.585938 6.53125 -17.875 6.53125 -16.3125 L 7 -11.1875 C 7.300781 -10.257812 7.453125 -9.25 7.453125 -8.15625 C 7.453125 -7.070312 7.609375 -6.0625 7.921875 -5.125 L 12.59375 -11.1875 Z M 143.140625 -97.453125 C 143.140625 -97.753906 142.75 -98.140625 141.96875 -98.609375 C 141.195312 -99.078125 140.5 -99.3125 139.875 -99.3125 L 139.875 -97.453125 L 140.34375 -96.984375 C 141.269531 -96.984375 141.890625 -97.140625 142.203125 -97.453125 Z M 135.21875 -90.453125 C 135.519531 -90.453125 135.828125 -90.609375 136.140625 -90.921875 C 136.453125 -91.234375 136.453125 -91.390625 136.140625 -91.390625 C 135.523438 -91.390625 135.21875 -91.234375 135.21875 -90.921875 Z M 221.46875 -70.875 L 220.0625 -71.796875 C 219.445312 -72.421875 218.828125 -72.734375 218.203125 -72.734375 C 216.960938 -72.734375 216.03125 -71.957031 215.40625 -70.40625 C 215.40625 -70.40625 215.71875 -70.09375 216.34375 -69.46875 C 216.957031 -68.84375 217.734375 -68.53125 218.671875 -68.53125 C 218.984375 -68.53125 219.445312 -68.84375 220.0625 -69.46875 Z M 249.90625 -60.609375 C 249.90625 -61.546875 249.597656 -62.015625 248.984375 -62.015625 C 248.359375 -62.015625 247.578125 -61.546875 246.640625 -60.609375 Z M 140.34375 -55.015625 C 137.851562 -55.015625 135.675781 -55.632812 133.8125 -56.875 C 132.570312 -57.5 131.796875 -57.8125 131.484375 -57.8125 C 130.859375 -57.8125 130.3125 -57.578125 129.84375 -57.109375 C 129.382812 -56.648438 129.15625 -56.265625 129.15625 -55.953125 C 131.945312 -54.703125 133.65625 -53.925781 134.28125 -53.625 L 136.609375 -52.21875 C 137.234375 -51.59375 138.007812 -51.28125 138.9375 -51.28125 L 140.34375 -52.21875 Z M 151.53125 -50.828125 L 150.125 -52.6875 C 150.125 -52.6875 149.503906 -53.304688 148.265625 -54.546875 C 147.335938 -54.234375 146.875 -53.457031 146.875 -52.21875 C 147.488281 -51.59375 148.179688 -51.125 148.953125 -50.8125 C 149.734375 -50.507812 150.28125 -50.203125 150.59375 -49.890625 Z M 71.796875 -50.359375 C 71.796875 -48.804688 73.039062 -48.03125 75.53125 -48.03125 C 76.769531 -48.03125 77.390625 -48.804688 77.390625 -50.359375 C 77.390625 -51.597656 76.613281 -52.21875 75.0625 -52.21875 C 72.882812 -52.21875 71.796875 -51.597656 71.796875 -50.359375 Z M 56.421875 -46.625 L 55.953125 -47.09375 L 53.625 -47.09375 C 53.625 -47.09375 53.546875 -47.015625 53.390625 -46.859375 C 53.234375 -46.703125 53.15625 -46.625 53.15625 -46.625 L 53.15625 -45.6875 C 53.15625 -44.757812 53.773438 -44.296875 55.015625 -44.296875 C 55.953125 -44.910156 56.421875 -45.375 56.421875 -45.6875 Z M 138.9375 -40.09375 C 138.007812 -40.09375 137.546875 -39.628906 137.546875 -38.703125 L 138.9375 -38.234375 Z M 138.9375 -34.03125 L 138.015625 -34.03125 L 138.015625 -32.171875 L 138.9375 -31.703125 Z M 48.03125 -31.703125 C 48.03125 -32.941406 47.5625 -33.5625 46.625 -33.5625 C 46 -33.5625 45.296875 -33.40625 44.515625 -33.09375 C 43.742188 -32.789062 43.203125 -32.484375 42.890625 -32.171875 C 44.140625 -30.929688 45.695312 -30.3125 47.5625 -30.3125 C 47.5625 -30.613281 47.71875 -30.765625 48.03125 -30.765625 Z M 76.46875 -16.78125 L 76.46875 -18.65625 L 78.796875 -20.515625 L 77.390625 -20.984375 L 76 -21.453125 C 74.445312 -21.453125 73.671875 -21.140625 73.671875 -20.515625 L 73.671875 -19.578125 C 74.910156 -18.335938 75.375 -17.25 75.0625 -16.3125 C 74.75 -15.382812 75.679688 -14.921875 77.859375 -14.921875 L 78.796875 -14.921875 L 78.796875 -15.390625 C 78.484375 -15.703125 78.015625 -15.859375 77.390625 -15.859375 Z M 76.46875 -16.78125 "/></g></g></g><g fill="#ffffff" fill-opacity="1"><g transform="translate(1258.868456, 497.411517)"><g><path d="M 212.140625 -324.96875 C 215.253906 -324.96875 217.742188 -324.035156 219.609375 -322.171875 C 221.472656 -320.304688 222.40625 -317.976562 222.40625 -315.1875 L 221 -259.703125 C 220.375 -253.796875 217.421875 -250.6875 212.140625 -250.375 L 83.921875 -236.859375 L 80.65625 -198.15625 L 176.703125 -203.28125 L 176.703125 -157.59375 L 178.578125 -157.59375 L 178.578125 -203.28125 C 181.054688 -203.28125 183.304688 -202.347656 185.328125 -200.484375 C 187.347656 -198.617188 188.359375 -196.441406 188.359375 -193.953125 L 188.359375 -145.46875 C 188.359375 -140.1875 185.71875 -137.078125 180.4375 -136.140625 L 78.328125 -122.625 L 76 -83.921875 L 200.484375 -87.65625 C 203.285156 -87.65625 205.617188 -86.722656 207.484375 -84.859375 C 209.347656 -82.992188 210.28125 -80.816406 210.28125 -78.328125 L 210.28125 -19.578125 C 210.28125 -13.671875 207.328125 -10.5625 201.421875 -10.25 L 5.125 0 C 2.332031 0 0.00390625 -0.851562 -1.859375 -2.5625 C -3.722656 -4.269531 -4.65625 -6.679688 -4.65625 -9.796875 C -4.039062 -55.796875 -2.644531 -103.660156 -0.46875 -153.390625 C 1.707031 -199.085938 5.59375 -250.53125 11.1875 -307.71875 C 12.125 -313.320312 15.234375 -316.125 20.515625 -316.125 Z M 79.265625 -314.71875 L 80.1875 -314.71875 L 80.1875 -316.125 L 79.265625 -316.125 Z M 109.5625 -311.921875 C 109.257812 -311.609375 109.179688 -311.375 109.328125 -311.21875 C 109.484375 -311.0625 109.875 -310.984375 110.5 -310.984375 C 109.875 -310.984375 109.5625 -311.296875 109.5625 -311.921875 Z M 118.421875 -304 C 119.046875 -304.613281 119.359375 -305.234375 119.359375 -305.859375 C 119.359375 -307.097656 118.425781 -307.71875 116.5625 -307.71875 C 114.695312 -307.71875 113.296875 -307.097656 112.359375 -305.859375 L 110.96875 -304 C 111.894531 -304.613281 112.359375 -305.234375 112.359375 -305.859375 L 114.703125 -306.328125 C 116.566406 -306.015625 117.5 -305.238281 117.5 -304 L 117.5 -302.125 C 117.5 -302.75 117.804688 -303.375 118.421875 -304 Z M 188.359375 -307.265625 L 187.4375 -307.265625 L 187.4375 -305.859375 L 188.359375 -305.859375 Z M 55.953125 -304.46875 L 65.734375 -304.46875 L 65.734375 -305.859375 L 55.953125 -305.859375 Z M 89.515625 -305.859375 L 83 -305.859375 L 83 -305.390625 L 82.0625 -305.390625 C 80.507812 -304.773438 79.734375 -304.3125 79.734375 -304 L 83 -304 L 83.453125 -304.46875 L 89.515625 -304.46875 Z M 74.140625 -304 L 75.53125 -304 L 75.53125 -304.921875 L 74.140625 -304.921875 Z M 151.53125 -304 L 147.796875 -304 L 147.796875 -302.125 L 151.53125 -302.125 Z M 96.046875 -302.125 C 95.421875 -302.125 95.109375 -301.347656 95.109375 -299.796875 C 95.109375 -299.796875 95.734375 -300.414062 96.984375 -301.65625 C 97.910156 -302.59375 97.597656 -302.75 96.046875 -302.125 Z M 126.8125 -300.734375 L 124.953125 -300.734375 L 124.953125 -299.796875 L 126.8125 -299.796875 Z M 51.75 -292.8125 L 52.21875 -290.9375 L 52.21875 -290 L 54.078125 -290 C 54.078125 -290.3125 54.390625 -290.78125 55.015625 -291.40625 C 55.640625 -292.03125 55.953125 -292.34375 55.953125 -292.34375 Z M 108.640625 -286.28125 C 107.085938 -286.894531 106.3125 -287.515625 106.3125 -288.140625 L 106.3125 -288.609375 L 108.640625 -290.9375 L 106.765625 -290 L 105.84375 -290 C 105.53125 -290 105.296875 -289.921875 105.140625 -289.765625 C 104.984375 -289.617188 104.75 -289.546875 104.4375 -289.546875 L 103.5 -289.546875 C 101.945312 -288.921875 100.707031 -287.675781 99.78125 -285.8125 L 100.703125 -284.875 L 106.3125 -284.875 C 106.613281 -284.875 106.84375 -284.953125 107 -285.109375 C 107.15625 -285.265625 107.234375 -285.34375 107.234375 -285.34375 L 107.703125 -285.34375 Z M 124.484375 -284.875 L 124.953125 -284.875 L 125.421875 -284.40625 L 125.890625 -285.8125 L 124.484375 -285.8125 Z M 97.90625 -281.609375 L 96.984375 -284.40625 C 94.492188 -283.476562 93.25 -282.546875 93.25 -281.609375 C 94.1875 -281.304688 94.804688 -281.304688 95.109375 -281.609375 Z M 118.421875 -277.890625 C 118.421875 -278.503906 117.644531 -279.4375 116.09375 -280.6875 L 114.703125 -277.890625 Z M 137.546875 -277.421875 C 137.546875 -277.734375 137.234375 -278.195312 136.609375 -278.8125 L 135.671875 -279.75 C 133.191406 -278.8125 131.953125 -277.878906 131.953125 -276.953125 Z M 106.3125 -276.953125 C 104.4375 -277.878906 103.035156 -278.34375 102.109375 -278.34375 C 100.554688 -278.34375 99.78125 -277.566406 99.78125 -276.015625 L 102.109375 -274.625 L 103.5 -274.15625 L 103.96875 -274.15625 C 104.59375 -274.15625 104.90625 -274.617188 104.90625 -275.546875 Z M 124.484375 -273.21875 C 125.109375 -272.601562 125.882812 -272.601562 126.8125 -273.21875 C 126.8125 -275.082031 126.191406 -276.171875 124.953125 -276.484375 L 123.09375 -276.015625 L 121.21875 -275.546875 L 122.15625 -273.21875 Z M 26.578125 -274.625 L 26.109375 -274.625 L 25.171875 -274.15625 L 26.109375 -273.6875 Z M 113.296875 -270.421875 C 114.234375 -270.421875 114.703125 -271.046875 114.703125 -272.296875 C 114.703125 -273.535156 113.921875 -274.15625 112.359375 -274.15625 L 111.4375 -273.6875 L 110.96875 -273.6875 L 110.5 -273.21875 C 109.875 -272.601562 109.5625 -271.984375 109.5625 -271.359375 L 110.03125 -270.421875 Z M 182.765625 -273.6875 L 181.84375 -273.6875 L 181.84375 -271.359375 L 182.765625 -271.359375 Z M 112.359375 -250.84375 L 111.4375 -250.84375 L 111.4375 -249.4375 L 112.359375 -249.4375 Z M 74.59375 -249.4375 C 73.976562 -249.4375 73.671875 -248.972656 73.671875 -248.046875 L 74.59375 -248.046875 L 75.0625 -248.515625 C 74.75 -248.515625 74.59375 -248.820312 74.59375 -249.4375 Z M 71.796875 -226.59375 C 71.179688 -225.976562 70.875 -225.671875 70.875 -225.671875 L 73.203125 -225.203125 C 73.515625 -225.515625 73.515625 -226.289062 73.203125 -227.53125 C 72.890625 -227.53125 72.421875 -227.21875 71.796875 -226.59375 Z M 74.140625 -217.265625 L 74.59375 -217.734375 L 72.265625 -218.203125 L 72.265625 -217.734375 Z M 76.9375 -198.625 L 79.265625 -198.625 L 79.265625 -200.953125 L 76.9375 -200.953125 Z M 78.328125 -192.5625 C 77.398438 -192.5625 76.78125 -192.71875 76.46875 -193.03125 L 74.59375 -193.5 L 74.140625 -193.03125 C 73.203125 -192.71875 72.734375 -192.09375 72.734375 -191.15625 C 72.734375 -189.601562 73.976562 -188.828125 76.46875 -188.828125 C 77.394531 -188.828125 78.015625 -188.984375 78.328125 -189.296875 Z M 113.765625 -189.765625 L 114.234375 -189.765625 L 114.234375 -190.234375 Z M 180.4375 -183.703125 C 181.375 -183.703125 182.148438 -183.546875 182.765625 -183.234375 L 185.09375 -182.765625 L 186.96875 -185.09375 L 186.96875 -188.828125 C 186.65625 -189.140625 186.109375 -189.453125 185.328125 -189.765625 C 184.554688 -190.078125 183.859375 -190.234375 183.234375 -190.234375 L 180.4375 -188.359375 Z M 116.09375 -189.296875 L 117.03125 -189.765625 L 116.09375 -189.765625 Z M 103.96875 -184.640625 L 106.3125 -182.765625 C 106.925781 -183.078125 107.3125 -183.617188 107.46875 -184.390625 C 107.625 -185.171875 107.390625 -185.71875 106.765625 -186.03125 Z M 116.09375 -184.171875 L 117.96875 -183.234375 L 118.890625 -186.03125 L 117.03125 -186.03125 Z M 88.59375 -180.90625 C 90.457031 -181.53125 90.457031 -182.460938 88.59375 -183.703125 Z M 81.59375 -178.109375 L 83.453125 -176.25 L 85.796875 -175.78125 L 86.25 -176.25 L 87.1875 -176.25 L 87.1875 -178.578125 C 85.945312 -178.578125 85.015625 -178.882812 84.390625 -179.5 L 83.453125 -179.046875 C 83.453125 -179.046875 83.375 -178.96875 83.21875 -178.8125 C 83.070312 -178.65625 83 -178.578125 83 -178.578125 Z M 103.96875 -178.578125 L 104.90625 -176.703125 L 108.171875 -176.703125 L 106.765625 -177.640625 L 104.90625 -179.046875 Z M 73.203125 -177.171875 C 72.890625 -177.484375 72.265625 -177.796875 71.328125 -178.109375 C 70.398438 -178.421875 69.625 -178.578125 69 -178.578125 C 69 -177.953125 69.46875 -177.328125 70.40625 -176.703125 C 71.03125 -176.085938 72.425781 -175.78125 74.59375 -175.78125 L 76 -175.78125 L 76 -177.171875 Z M 103.046875 -171.578125 L 106.765625 -171.578125 C 107.390625 -171.890625 107.703125 -172.359375 107.703125 -172.984375 L 107.703125 -174.84375 L 103.96875 -174.84375 L 103.5 -172.984375 Z M 69.9375 -168.78125 C 69.9375 -168.46875 70.015625 -168.234375 70.171875 -168.078125 C 70.328125 -167.921875 70.5625 -168 70.875 -168.3125 L 72.265625 -168.78125 L 71.34375 -169.25 L 70.875 -169.25 C 70.25 -169.25 69.9375 -169.09375 69.9375 -168.78125 Z M 64.34375 -159.921875 C 65.894531 -159.921875 66.984375 -160.234375 67.609375 -160.859375 C 66.984375 -160.859375 66.359375 -161.164062 65.734375 -161.78125 L 65.28125 -162.25 L 62.9375 -162.25 C 62.007812 -161.320312 61.546875 -160.390625 61.546875 -159.453125 Z M 70.875 -157.59375 C 69.3125 -157.59375 67.132812 -157.90625 64.34375 -158.53125 L 62.9375 -157.59375 L 64.34375 -155.734375 C 64.96875 -157.285156 65.742188 -157.75 66.671875 -157.125 C 68.535156 -157.125 69.9375 -157.28125 70.875 -157.59375 Z M 50.828125 -157.59375 C 49.890625 -157.28125 49.421875 -156.660156 49.421875 -155.734375 L 50.828125 -154.796875 L 52.6875 -155.265625 C 52.6875 -155.878906 53.148438 -156.34375 54.078125 -156.65625 L 52.6875 -157.125 Z M 177.640625 -145 L 179.5 -147.328125 L 180.4375 -149.203125 L 179.5 -152.46875 C 179.195312 -152.78125 178.578125 -154.175781 177.640625 -156.65625 Z M 70.40625 -149.203125 C 70.40625 -149.816406 71.335938 -151.367188 73.203125 -153.859375 L 71.34375 -154.328125 L 69.46875 -154.328125 C 68.539062 -154.328125 67.609375 -154.015625 66.671875 -153.390625 L 62.9375 -152 C 63.875 -151.6875 64.726562 -151.375 65.5 -151.0625 C 66.28125 -150.75 66.828125 -150.4375 67.140625 -150.125 C 66.515625 -148.570312 66.359375 -147.488281 66.671875 -146.875 L 70.875 -147.796875 Z M 57.8125 -150.125 C 58.75 -149.507812 59.523438 -149.507812 60.140625 -150.125 L 59.6875 -150.59375 L 58.75 -151.0625 L 57.8125 -150.59375 Z M 72.734375 -150.59375 C 73.046875 -149.664062 73.429688 -149.046875 73.890625 -148.734375 C 74.359375 -148.421875 75.0625 -148.265625 76 -148.265625 C 76.3125 -148.265625 77.398438 -148.578125 79.265625 -149.203125 L 77.859375 -150.59375 Z M 58.75 -149.203125 C 56.882812 -148.265625 56.414062 -147.488281 57.34375 -146.875 L 57.8125 -145 C 59.0625 -145 59.992188 -145.3125 60.609375 -145.9375 C 60.609375 -147.175781 59.988281 -148.265625 58.75 -149.203125 Z M 79.734375 -144.53125 L 77.390625 -144.53125 C 76.460938 -144.53125 76 -144.222656 76 -143.609375 C 76 -142.984375 75.6875 -142.671875 75.0625 -142.671875 C 75.0625 -144.222656 74.597656 -145.15625 73.671875 -145.46875 L 70.875 -145.46875 C 70.875 -144.84375 71.179688 -144.53125 71.796875 -144.53125 L 73.203125 -143.140625 L 69.9375 -141.734375 L 67.609375 -139.875 C 67.921875 -139.5625 68.304688 -139.40625 68.765625 -139.40625 C 69.234375 -139.40625 69.625 -139.25 69.9375 -138.9375 L 73.671875 -138.9375 C 74.910156 -138.9375 76.929688 -139.5625 79.734375 -140.8125 Z M 62.9375 -142.671875 C 62.007812 -142.671875 61.234375 -142.125 60.609375 -141.03125 C 59.992188 -139.945312 59.6875 -138.941406 59.6875 -138.015625 L 59.6875 -135.671875 C 61.238281 -134.429688 62.632812 -133.8125 63.875 -133.8125 L 65.28125 -133.8125 L 66.671875 -134.75 L 66.671875 -140.8125 L 64.8125 -142.203125 Z M 55.484375 -140.34375 C 55.171875 -140.34375 54.703125 -140.109375 54.078125 -139.640625 C 53.460938 -139.171875 53.15625 -138.78125 53.15625 -138.46875 C 54.394531 -138.164062 55.484375 -138.164062 56.421875 -138.46875 Z M 158.984375 -137.546875 L 164.59375 -137.546875 L 164.59375 -138.9375 L 158.984375 -138.9375 Z M 77.390625 -136.140625 C 78.015625 -136.140625 78.328125 -136.609375 78.328125 -137.546875 L 75.53125 -137.546875 L 74.59375 -136.140625 Z M 51.75 -135.671875 C 50.195312 -135.367188 49.421875 -134.75 49.421875 -133.8125 L 51.75 -133.8125 C 52.0625 -134.125 52.0625 -134.742188 51.75 -135.671875 Z M 73.203125 -132.875 C 73.828125 -132.570312 74.757812 -132.421875 76 -132.421875 C 76 -133.347656 75.378906 -134.125 74.140625 -134.75 Z M 59.6875 -132.875 C 58.4375 -131.632812 57.8125 -130.703125 57.8125 -130.078125 L 62.015625 -129.625 L 62.9375 -131.484375 C 62.320312 -132.109375 62.015625 -132.570312 62.015625 -132.875 Z M 67.609375 -129.15625 L 67.140625 -131.953125 C 65.585938 -131.953125 64.8125 -131.328125 64.8125 -130.078125 L 64.8125 -128.21875 Z M 76.46875 -128.21875 C 76.46875 -128.84375 76.15625 -129.15625 75.53125 -129.15625 L 74.59375 -130.078125 C 73.976562 -129.773438 72.582031 -129.625 70.40625 -129.625 L 68.53125 -129.15625 L 67.609375 -128.6875 L 69.9375 -126.8125 C 71.800781 -127.4375 72.890625 -127.75 73.203125 -127.75 Z M 69 -123.5625 L 70.40625 -124.484375 L 66.671875 -125.421875 L 66.671875 -123.5625 Z M 65.734375 -123.5625 C 64.492188 -124.175781 63.253906 -124.484375 62.015625 -124.484375 L 62.9375 -122.625 C 64.1875 -122.625 65.117188 -122.9375 65.734375 -123.5625 Z M 60.140625 -120.765625 C 60.140625 -120.453125 59.832031 -119.984375 59.21875 -119.359375 L 64.34375 -118.890625 C 64.96875 -118.890625 65.28125 -119.359375 65.28125 -120.296875 Z M 55.484375 -117.5 C 56.109375 -116.5625 57.039062 -116.09375 58.28125 -116.09375 L 56.421875 -119.828125 L 53.15625 -119.359375 Z M 63.40625 -113.296875 C 62.789062 -114.535156 62.632812 -115.3125 62.9375 -115.625 C 63.25 -116.5625 63.25 -117.1875 62.9375 -117.5 L 61.546875 -116.09375 C 61.234375 -116.09375 61.078125 -115.78125 61.078125 -115.15625 L 61.078125 -113.296875 Z M 72.734375 -114.234375 C 74.285156 -114.234375 75.0625 -114.851562 75.0625 -116.09375 L 72.734375 -116.09375 Z M 48.03125 -115.625 C 47.09375 -115.3125 46.625 -114.847656 46.625 -114.234375 L 49.421875 -113.296875 C 49.421875 -113.921875 49.578125 -114.390625 49.890625 -114.703125 L 50.359375 -115.15625 Z M 61.078125 -112.359375 L 61.078125 -110.5 L 62.484375 -110.5 L 62.484375 -112.359375 Z M 63.40625 -111.4375 C 63.40625 -110.8125 63.5625 -110.5 63.875 -110.5 L 64.34375 -109.5625 L 67.609375 -110.5 C 67.296875 -110.5 67.140625 -110.8125 67.140625 -111.4375 L 67.140625 -111.90625 C 66.515625 -111.90625 66.046875 -111.828125 65.734375 -111.671875 C 65.429688 -111.515625 65.125 -111.4375 64.8125 -111.4375 Z M 70.875 -107.234375 L 68.078125 -107.234375 L 68.078125 -105.375 L 70.875 -105.375 Z M 44.296875 -104.4375 C 43.671875 -103.507812 43.828125 -102.578125 44.765625 -101.640625 C 46.316406 -102.265625 47.09375 -103.195312 47.09375 -104.4375 Z M 54.078125 -101.171875 L 55.015625 -100.703125 C 55.640625 -100.703125 56.109375 -100.859375 56.421875 -101.171875 L 55.953125 -103.5 L 55.015625 -103.5 C 55.015625 -103.5 54.9375 -103.421875 54.78125 -103.265625 C 54.625 -103.117188 54.546875 -103.046875 54.546875 -103.046875 L 53.625 -103.046875 L 53.625 -101.171875 Z M 44.296875 -93.71875 C 45.535156 -93.71875 46.3125 -93.875 46.625 -94.1875 C 46.625 -94.5 46.703125 -94.726562 46.859375 -94.875 C 47.015625 -95.03125 47.25 -95.265625 47.5625 -95.578125 L 46.15625 -96.515625 L 43.828125 -95.578125 Z M 57.8125 -94.65625 L 55.484375 -94.65625 L 55.484375 -94.1875 L 57.34375 -93.71875 Z M 50.359375 -89.046875 C 50.972656 -88.429688 51.75 -88.125 52.6875 -88.125 L 52.6875 -89.515625 C 52.6875 -89.515625 52.6875 -89.984375 52.6875 -90.921875 C 51.75 -90.921875 50.972656 -90.296875 50.359375 -89.046875 Z M 91.390625 -71.34375 L 95.109375 -71.34375 L 95.109375 -72.265625 L 91.390625 -72.265625 Z M 110.03125 -70.875 C 108.476562 -69.9375 107.703125 -69.46875 107.703125 -69.46875 C 108.640625 -69.15625 109.109375 -68.535156 109.109375 -67.609375 L 111.4375 -67.609375 C 112.050781 -68.222656 112.359375 -68.6875 112.359375 -69 L 112.828125 -69.9375 L 111.90625 -72.265625 C 111.90625 -71.953125 111.75 -71.640625 111.4375 -71.328125 C 111.125 -71.023438 110.65625 -70.875 110.03125 -70.875 Z M 136.609375 -69 L 137.546875 -69 L 138.015625 -69.9375 L 137.546875 -70.40625 Z M 96.984375 -69.9375 L 94.1875 -69.9375 L 94.1875 -69 L 96.984375 -69 Z M 118.421875 -66.203125 L 120.296875 -66.671875 C 120.296875 -66.984375 120.140625 -67.140625 119.828125 -67.140625 C 119.828125 -67.140625 119.515625 -67.453125 118.890625 -68.078125 Z M 91.390625 -65.28125 L 92.3125 -64.34375 C 93.875 -64.96875 94.1875 -65.585938 93.25 -66.203125 C 92.625 -66.203125 92.3125 -66.046875 92.3125 -65.734375 L 91.390625 -65.734375 Z M 107.703125 -64.34375 C 107.078125 -64.96875 106.300781 -65.28125 105.375 -65.28125 L 106.3125 -62.015625 C 106.3125 -62.015625 106.382812 -62.09375 106.53125 -62.25 C 106.6875 -62.40625 106.765625 -62.484375 106.765625 -62.484375 C 107.078125 -62.484375 107.234375 -62.789062 107.234375 -63.40625 C 107.546875 -63.40625 107.703125 -63.71875 107.703125 -64.34375 Z M 116.5625 -63.40625 C 115.007812 -62.789062 114.234375 -62.015625 114.234375 -61.078125 L 116.5625 -61.078125 C 116.5625 -61.703125 116.71875 -62.171875 117.03125 -62.484375 Z M 50.359375 -56.421875 L 50.359375 -53.625 C 50.359375 -53.625 50.664062 -53.929688 51.28125 -54.546875 L 53.15625 -56.421875 Z M 59.6875 -56.421875 C 59.6875 -55.484375 60.460938 -55.015625 62.015625 -55.015625 L 62.015625 -55.953125 C 62.015625 -56.265625 62.171875 -56.421875 62.484375 -56.421875 Z M 83.921875 -55.015625 L 84.859375 -53.15625 L 85.796875 -53.15625 L 84.390625 -55.015625 Z M 128.6875 -53.625 C 128.6875 -52.0625 129.460938 -51.28125 131.015625 -51.28125 L 131.953125 -52.6875 L 132.421875 -53.625 Z M 112.359375 -52.6875 L 111.4375 -52.6875 L 110.96875 -51.28125 L 112.359375 -51.28125 Z M 97.453125 -49.890625 C 97.453125 -49.890625 97.523438 -49.96875 97.671875 -50.125 C 97.828125 -50.28125 97.90625 -50.359375 97.90625 -50.359375 L 96.984375 -51.28125 L 96.046875 -51.28125 L 96.984375 -49.421875 C 96.984375 -49.421875 97.0625 -49.5 97.21875 -49.65625 C 97.375 -49.8125 97.453125 -49.890625 97.453125 -49.890625 Z M 56.875 -44.765625 L 53.15625 -44.765625 L 53.15625 -42.421875 L 56.875 -42.421875 Z M 13.984375 -34.5 C 13.984375 -36.050781 14.453125 -36.984375 15.390625 -37.296875 L 9.328125 -37.296875 L 9.328125 -34.5 Z M 183.703125 -35.4375 L 189.296875 -34.5 L 189.296875 -35.90625 L 184.640625 -37.296875 Z M 44.296875 -36.375 L 39.171875 -36.375 L 39.171875 -34.5 L 44.296875 -34.5 Z M 75.0625 -34.5 L 75.0625 -32.171875 L 78.796875 -32.171875 L 78.796875 -34.5 Z M 100.703125 -32.640625 C 100.398438 -32.015625 100.25 -30.769531 100.25 -28.90625 L 100.703125 -26.578125 L 107.234375 -26.578125 L 108.171875 -28.4375 C 108.484375 -28.75 108.640625 -29.375 108.640625 -30.3125 L 106.3125 -32.640625 Z M 28.90625 -30.3125 L 34.03125 -30.3125 L 34.03125 -32.171875 L 28.90625 -32.171875 Z M 49.421875 -20.515625 C 50.359375 -20.828125 51.132812 -21.679688 51.75 -23.078125 C 52.375 -24.472656 52.6875 -25.953125 52.6875 -27.515625 C 52.6875 -29.378906 52.21875 -30.773438 51.28125 -31.703125 C 50.664062 -31.703125 49.425781 -31.238281 47.5625 -30.3125 C 48.800781 -27.507812 49.421875 -24.242188 49.421875 -20.515625 Z M 2.796875 -27.046875 C 3.109375 -26.109375 3.960938 -25.71875 5.359375 -25.875 C 6.753906 -26.03125 7.765625 -26.421875 8.390625 -27.046875 Z M 22.375 -25.171875 L 21.453125 -25.171875 L 21.453125 -27.046875 L 17.25 -27.046875 L 17.25 -25.171875 L 21.453125 -25.171875 L 21.453125 -23.3125 L 22.375 -23.3125 Z M 70.875 -24.25 C 68.382812 -24.25 66.671875 -24.09375 65.734375 -23.78125 L 62.9375 -22.84375 L 60.609375 -22.375 C 61.234375 -22.0625 61.851562 -21.515625 62.46875 -20.734375 C 63.09375 -19.960938 63.5625 -19.269531 63.875 -18.65625 C 65.425781 -19.582031 66.976562 -20.820312 68.53125 -22.375 Z M 39.171875 -20.046875 C 39.785156 -20.984375 40.09375 -21.914062 40.09375 -22.84375 L 32.171875 -22.84375 L 32.171875 -18.65625 C 34.660156 -18.65625 36.835938 -18.34375 38.703125 -17.71875 Z M 124.484375 -20.515625 L 127.75 -20.515625 L 127.75 -21.453125 L 124.484375 -21.453125 Z M 183.703125 -14.453125 C 183.703125 -13.523438 183.390625 -13.0625 182.765625 -13.0625 C 183.703125 -13.0625 184.632812 -13.523438 185.5625 -14.453125 Z M 33.5625 -13.515625 L 29.84375 -13.515625 L 29.84375 -11.65625 L 33.5625 -11.65625 Z M 33.5625 -13.515625 "/></g></g></g></g></g></svg>